<svg xmlns="http://www.w3.org/2000/svg" viewBox="0 0 332.66 294.37"><defs><style>.cls-1{fill:#70a8b9;}</style></defs><g id="Layer_2" data-name="Layer 2"><path class="cls-1" d="M95.29,65.83A58.65,58.65,0,0,1,78.51,47.44c-3-5.23-5.91-10.44-4.22-15.61s6.54-5.29,7-9c1.19-9.58-21.54-22.59-27-18-3.74,3.13,1.77,13.53-1,15-3.6,1.9-11.54-16.39-27-19-6.32-1.07-14,.46-19,5-12.27,11.24-7.1,40.49,9,56,11.33,10.91,30.15,6.8,31,13,.61,4.46-8.35,7.27-8,12,.56,7.56,27.83,8,28,12,.19,4.68-35.72,4.64-39,17-2.64,10,19.12,16.1,24,39,2.65,12.44-2.45,16.82,1,29,1,3.35,5.79,19,21,27a39.9,39.9,0,0,0,15.17,4.34c14.37,1.36,29.84-4.54,38.83-15.34,3.51-4.22,2.76-5.27,6-8,8.53-7.22,24.83-9.39,32-1,2.6,3,5.3,9,3,13-3.66,6.39-15.7.4-29,8-7.28,4.15-6.68,7.66-13,12-12.55,8.62-28,3.81-37,3-41.55-3.8-83.93,65.11-82,67,.85.83,10.35-11.5,34-26,17-10.4,33.39-20.2,54-19,11.35.65,10.39,3.86,27,7,17,3.21,37.94,7.16,55-2,21.87-11.75,18.33-34.81,39-40,10.82-2.72,16.5,2.41,27-3,11.26-5.81,9.58-14.21,18-20,20.75-14.29,58.73,17.67,68,7,3.39-3.91,1.86-12.26-2-16s-9.49-2.57-17-2c-11,.82-28.35,2.13-42-4-12.79-5.75-13.77-14.19-25-15-7.23-.53-8.8,2.83-16,4-16.39,2.66-23.15-12.31-50-23-13.43-5.35-25.31-10.09-38-6-13.31,4.28-15.11,14.28-29,20-3.3,1.36-24,10-35,0-6.26-5.71-9.61-17.66-5-25,10-16,49.61,2.66,61-14,5.41-7.92,3.25-22-4-29-16.15-15.58-56.67,5-61-4-2.41-5,8.92-13.8,6-18-2-2.92-8.26.19-19,0-6.31-.12-20.18-.36-27-9-7.07-9-5.68-25.81,2-30,7.42-4,19.24,4.54,24,8,6.34,4.6,8.34,8.18,13,13C71.78,53.5,80.68,60.59,95.29,65.83Z"/></g></svg>