<svg id="Layer_1" data-name="Layer 1" xmlns="http://www.w3.org/2000/svg" viewBox="0 0 476.26 207.99"><defs><style>.cls-1{fill:#506584;}</style></defs><path class="cls-1" d="M472,5.37c2.27,2.73,4.49,6.33,3.5,9.5-1.45,4.61-9,5.91-27.4,8.69-21.57,3.26-29.6,4.31-29.6,4.31-31,4.06-33.5,5.06-39,3-12.22-4.58-15.4-13.08-24-12-8.42,1.06-10.81,9.88-22,21-11.61,11.53-22.39,8.2-27,18-.73,1.54-4.24,9-1,14,5.76,8.89,25-2.23,45,9,3.56,2,8.86,5,12,11,6.49,12.48.5,32-11,42-20.42,17.78-48.39-2.91-64,13-13.46,13.71.84,35.67-11,49-18.56,20.89-73.53,9.9-76-4-2.11-11.85,33.78-27.75,32-31s-36.32,20.48-58,8c-9.9-5.7-7.6-13.48-19-19-9.88-4.79-14-.09-41,0-18.66.06-22.74-2.16-29,2-10.23,6.78-11.16,20.49-15,20-3.13-.4-2-9.39-6-16-12.08-19.89-62.94-5.28-64-10-.94-4.16,36.36-24.34,58-11,6.5,4,8.55,9.18,16,10,9.26,1,13.07-6.21,28-8,7.67-.92,6.87,1,14,0,15-2,18.09-10.33,28-10,9.66.32,9.77,8.3,19,10,16.92,3.11,24.91-22.23,47-24,10.82-.87,10.81,5.07,32,11,14.84,4.15,38.72,10.84,53-1,8.93-7.41,13.62-21.69,9-30-3-5.37-8.73-6.21-22-10-27.07-7.73-43.06-12.3-44-19-1.11-7.88,18.61-18.37,34-23,22.52-6.78,30,.75,46-8,11.32-6.21,9-10.79,25-21,9.37-6,23.12-14.78,33-10,8.31,4,5.12,13.42,13,17,10.05,4.56,18.87-9.08,41-9,6,0,5.89,1,13,1A79.54,79.54,0,0,0,472,5.37Z"/></svg>