<svg id="Layer_1" data-name="Layer 1" xmlns="http://www.w3.org/2000/svg" viewBox="0 0 933.5 369.93"><defs><style>.cls-1{fill:#70a8b9;}</style></defs><path class="cls-1" d="M106,149.94c105.8-27.79,116.34-25.56,125-21,22.19,11.69,16.4,30.49,41,42,22.15,10.36,56.73,9.09,75-9,32.82-32.51-15.23-91.41,17-133,22.13-28.58,71.85-35.7,107-21,7,2.92,34.82,14.55,43,40,7.89,24.56-10.59,37-5,65,5.26,26.44,29.29,53.59,47,51,26.56-3.9,16.6-71.47,57-92,29.45-15,73.26,1.36,99,23,45,37.88,29.37,87.52,72,107,14.26,6.51,30.84,6.34,64,6,27.57-.29,44.88-.7,53-12,11.44-15.94-4.65-40.59,3-45,6-3.5,23.7,7.63,28,23,7.75,27.73-31.15,57.84-34,60-33.17,25.08-51.87,8.83-73,29-29.61,28.26-5.37,72.08-37,96-12.61,9.53-30.9,13.49-46,8-24.18-8.79-31-38.47-32-43-5.9-27.51,10.37-35.75,14-76,1.62-18.05,5-55.15-17-71-11.66-8.41-28.39-9.36-41-4-24.91,10.57-30.16,44.19-32,56-8.05,51.49,23,74.63,8,98-11.71,18.28-43.16,23.58-64,15-11.54-4.75-15.4-11.94-39-52-46.9-79.61-46.56-76.58-51-88-12.16-31.26-14.62-53.8-26-55-9.48-1-12.79,14.1-32,20-17.18,5.27-23-4.2-34,1-20.65,9.76-8.9,47.37-31,61-15.33,9.45-36.58,1-39,0-21.24-8.77-23-27.66-34-27-15.5.92-15.72,38.44-41,47-8.52,2.88-19.39,2.31-27-3-9.3-6.48-10.45-17.69-14-43-7.58-54-10.1-58.32-14-61-13.48-9.27-38.28,4.74-60,17-40.38,22.79-42.72,39.47-74,50-25.55,8.59-57,8.6-61-1-2.14-5.19,3.24-14.5,10-17,8.29-3.07,15.48,5.28,20,2,5.51-4-3.24-17.87,3-26,4.44-5.8,13.49-4.77,23-5C64,161.76,63.54,161.08,106,149.94Z"/></svg>