<svg id="Layer_1" data-name="Layer 1" xmlns="http://www.w3.org/2000/svg" viewBox="0 0 333 233.94"><defs><style>.cls-1{fill:#70a8b9;}</style></defs><path class="cls-1" d="M96.48,54.7c23.7,7.08,38.25-1.5,43,6,2.93,4.62-.73,10.83-10,29-23.34,45.75-22.46,50.2-21,52,2.87,3.54,11-1.6,43-12,0,0,9.23-3,24.5-7.5,21.22-6.25,65.8-17.66,68-12,1.21,3.11-11.68,8.11-30,24-13.8,12-39,37.38-34,46,3.93,6.75,27.12,4.44,46-5,49.54-24.78,50-89,82-91,9-.56,19,3.9,20,9,1.4,7.45-17,14.24-33,26-29.67,21.76-28.12,43.55-48,68-36,44.26-108.25,55.54-120,39-11-15.49,29.87-57.15,21-66-10.31-10.29-62.62,48.9-102,34-26.84-10.15-43.24-53-31-74C28.91,96.35,77.54,105,79,94.2,80.75,80.9,6.82,71,5,47.2,3.1,22.83,77.8-4.22,81,1.2c3,5.05-53.21,43.26-50,48,1.68,2.48,15.93-9.66,36-7C80,43.93,80.53,49.93,96.48,54.7Z"/></svg>