<svg xmlns="http://www.w3.org/2000/svg" viewBox="0 0 477 259.13"><defs><style>.cls-1{fill:#506584;}</style></defs><g id="Layer_2" data-name="Layer 2"><path class="cls-1" d="M316.66,11.72c23.09,12.46,34.67,11.48,41,8,2-1.09,5.32-3.61,11-5,5.44-1.33,16.6-3.16,19,1,3.46,6-10.78,25-23,24-4.42-.36-5.29-3.08-9-3-8.81.18-9.57,15.63-21,28-20,21.62-59.36,19.42-66.8,19h-.2c-19.13-.88-39.94,27.19-34,44,3,8.47,12.2,12.38,16,14,21.07,8.95,35.79-5.9,56,2,7.47,2.91,18.6,8.41,18,14-.52,4.9-9.82,7.66-11,8-14.82,4.21-22.6-6.56-40-9-13-1.83-23.16,2.17-43,10-21.71,8.56-28.75,16.73-42,14-7.63-1.58-16.45-6.58-16-11,.35-3.42,11.7-.93,17-8,2.16-2.89,3.58-7.61,2-11-4-8.56-28.34-11.62-42-1-11.86,9.22-6.63,21.75-20,30-7.28,4.49-12,2.73-21,9-8.44,5.89-7,9.66-13,14-15.35,11.12-37.26-3.16-43,5-2.85,4.06-.92,12.55,4,17,14.42,13,51.71-11.3,58-2,1,1.42.1,2-1,16-.74,9.52-1.09,14.32,0,16,4.37,6.67,23.86,4.23,40-3,25.8-11.56,25.05-27.27,55-53,17.83-15.32,32.66-28.07,54-29,22.28-1,44.25,11.24,51,15,13.5,7.5,13.18,10.74,24,15,5.16,2,29.42,11.56,50-1,14.54-8.87,26.62-28.37,21-40-2.17-4.5-7.11-8.06-36-13-25.41-4.35-35.46,1.94-52-6-6.75-3.25-15.61-7.5-17-15-2.62-14.21,22.65-34.23,48-42,27.47-8.42,39.51,2.31,57-10,1.94-1.37,19.31-14,19-34-.26-17.44-13.83-32.57-28-37-11.47-3.59-18.08,1.47-43,6A253.53,253.53,0,0,1,316.66,11.72Z"/></g></svg>