<svg xmlns="http://www.w3.org/2000/svg" xmlns:xlink="http://www.w3.org/1999/xlink" viewBox="0 0 1366 773"><defs><style>.cls-1{fill:url(#linear-gradient);}.cls-2{fill:url(#radial-gradient);}.cls-3{fill:#7aa5b6;opacity:0.57;isolation:isolate;}.cls-4{fill:#526682;}.cls-5{fill:url(#linear-gradient-2);}.cls-6{fill:#256329;}.cls-7{fill:#216d21;}.cls-8{fill:url(#linear-gradient-3);}.cls-9{fill:#3c7c4c;}.cls-10{fill:#479947;}.cls-11,.cls-12,.cls-15,.cls-16,.cls-17,.cls-18{stroke:#c16c17;}.cls-11,.cls-12,.cls-13,.cls-15,.cls-16,.cls-17,.cls-18{stroke-miterlimit:10;}.cls-11,.cls-15,.cls-16,.cls-17,.cls-18{stroke-width:3px;}.cls-11{fill:url(#radial-gradient-2);}.cls-12,.cls-13{fill:none;}.cls-13{stroke:#000;}.cls-14{fill:#c16c17;}.cls-15{fill:url(#radial-gradient-3);}.cls-16{fill:url(#radial-gradient-4);}.cls-17{fill:url(#radial-gradient-5);}.cls-18{fill:url(#radial-gradient-6);}.cls-19{fill:url(#linear-gradient-4);}.cls-20{fill:#cece29;}</style><linearGradient id="linear-gradient" x1="684.53" y1="699.9" x2="679.9" y2="-249.28" gradientUnits="userSpaceOnUse"><stop offset="0.15" stop-color="#e09c85"/><stop offset="0.23" stop-color="#ba9293"/><stop offset="0.4" stop-color="#697cb0"/><stop offset="0.47" stop-color="#4973bb"/><stop offset="0.54" stop-color="#2d6aad"/><stop offset="0.63" stop-color="#0c5f9d"/><stop offset="0.75" stop-color="#005b97"/></linearGradient><radialGradient id="radial-gradient" cx="669.18" cy="376.98" fx="510.49324283938006" r="158.7" gradientUnits="userSpaceOnUse"><stop offset="0.19" stop-color="#c1272d"/><stop offset="0.61" stop-color="#c1272d"/><stop offset="0.87" stop-color="#d8451e"/><stop offset="1" stop-color="#d14626"/></radialGradient><linearGradient id="linear-gradient-2" x1="430.3" y1="662.98" x2="1477.14" y2="662.98" gradientTransform="translate(-53.5 80.43) rotate(-4.71)" gradientUnits="userSpaceOnUse"><stop offset="0" stop-color="#c2e555"/><stop offset="0.04" stop-color="#b8de53"/><stop offset="0.28" stop-color="#77b549"/><stop offset="0.5" stop-color="#449441"/><stop offset="0.69" stop-color="#1f7c3c"/><stop offset="0.84" stop-color="#086d38"/><stop offset="0.94" stop-color="#006837"/></linearGradient><linearGradient id="linear-gradient-3" x1="-138.14" y1="111.12" x2="795.24" y2="111.12" gradientTransform="matrix(0.96, 0.1, -0.08, 1.04, 1.58, -38.48)" gradientUnits="userSpaceOnUse"><stop offset="0" stop-color="#bce561"/><stop offset="0.06" stop-color="#9cd05a"/><stop offset="0.16" stop-color="#73b451"/><stop offset="0.26" stop-color="#4f9d49"/><stop offset="0.37" stop-color="#328942"/><stop offset="0.48" stop-color="#1c7b3d"/><stop offset="0.61" stop-color="#0c703a"/><stop offset="0.75" stop-color="#036a38"/><stop offset="0.94" stop-color="#006837"/></linearGradient><radialGradient id="radial-gradient-2" cx="485.46" cy="-201.05" r="118.91" gradientTransform="translate(247.08 122.61) scale(0.39 0.49)" gradientUnits="userSpaceOnUse"><stop offset="0" stop-color="#fcee21"/><stop offset="0.43" stop-color="#f4866c"/><stop offset="0.79" stop-color="#f4e0c6"/></radialGradient><radialGradient id="radial-gradient-3" cx="-213.4" cy="-20.1" r="118.91" gradientTransform="translate(211.72 134.94) scale(0.47 0.55)" gradientUnits="userSpaceOnUse"><stop offset="0.01" stop-color="#f4d625"/><stop offset="0.42" stop-color="#f4866c"/><stop offset="0.72" stop-color="#f4e0c6"/></radialGradient><radialGradient id="radial-gradient-4" cx="2345.12" cy="918.33" r="118.91" gradientTransform="translate(211.72 134.94) scale(0.47 0.55)" gradientUnits="userSpaceOnUse"><stop offset="0" stop-color="#d3a82f"/><stop offset="0.46" stop-color="#f4866c"/><stop offset="1" stop-color="#f4e0c6"/></radialGradient><radialGradient id="radial-gradient-5" cx="2361.31" cy="1177.32" r="118.91" gradientTransform="translate(473.06 226.69) scale(0.27 0.34)" xlink:href="#radial-gradient-4"/><radialGradient id="radial-gradient-6" cx="1455.25" cy="1119.44" r="118.91" gradientTransform="translate(246.29 188.22) scale(0.45 0.5)" gradientUnits="userSpaceOnUse"><stop offset="0" stop-color="#ff0"/><stop offset="0.16" stop-color="#fbcf2b"/><stop offset="0.34" stop-color="#f69a5a"/><stop offset="0.44" stop-color="#f4866c"/><stop offset="0.51" stop-color="#f48b71"/><stop offset="0.6" stop-color="#f4987e"/><stop offset="0.7" stop-color="#f4af95"/><stop offset="0.79" stop-color="#f4cfb5"/><stop offset="0.84" stop-color="#f4e0c6"/></radialGradient><linearGradient id="linear-gradient-4" x1="-56.31" y1="776.85" x2="492" y2="776.85" gradientUnits="userSpaceOnUse"><stop offset="0.15" stop-color="#c6c34e"/><stop offset="0.47" stop-color="#b8dd5e"/><stop offset="0.52" stop-color="#c0df64"/><stop offset="0.75" stop-color="#e1e87e"/></linearGradient></defs><g id="baggrund"><path class="cls-1" d="M1366,773H0V0H1366Z"/></g><g id="Layer_2" data-name="Layer 2"><ellipse class="cls-2" cx="670" cy="381" rx="160" ry="156"/><path class="cls-3" d="M961.07,177.39A53.56,53.56,0,0,1,978,194.15c3.09,4.79,5.91,9.43,4.3,14.22-1.74,4.64-6.58,4.79-7.11,8.23-1.21,8.68,21.75,20.5,27.25,16.31,3.76-2.84-1.74-12.27,1.08-13.62,3.62-1.79,11.68,15,27.25,17.21,6.45.9,14.23-.44,19.2-4.49,12.35-10.17,7.12-36.81-9.13-50.88-11.41-9.87-30.48-6.13-31.28-11.82-.67-4,8.46-6.58,8.05-10.92-.53-6.89-28.06-7.19-28.33-10.93-.13-4.19,36.12-4.19,39.34-15.41,2.69-9.13-19.33-14.67-24.17-35.47-2.68-11.37,2.42-15.27-1.07-26.34-.94-3-5.91-17.21-21.21-24.54a41.71,41.71,0,0,0-15.31-3.89c-14.5-1.2-30.07,4.19-39.2,13.91-3.5,3.89-2.82,4.79-6,7.34-8.59,6.58-25.1,8.53-32.35.89-2.69-2.69-5.38-8.23-3.09-11.82,3.76-5.83,15.84-.3,29.27-7.33,7.38-3.74,6.71-7,13.15-10.93,12.63-7.78,28.33-3.44,37.33-2.69,41.89,3.44,84.72-59.11,82.84-60.91-.8-.75-10.47,10.48-34.37,23.65-17,9.43-33.7,18.4-54.51,17.21-11.41-.6-10.47-3.44-27.26-6.44-17.18-3-38.26-6.58-55.58,1.8-22,10.62-18.53,31.57-39.34,36.36-10.88,2.55-16.65-2.24-27.26,2.7C799,50.79,800.75,58.42,792.3,63.66c-20.95,13-59.35-16-68.61-6.44-3.36,3.59-1.88,11.07,2,14.52,3.89,3.29,9.53,2.39,17.19,1.79,11.14-.75,28.59-1.94,42.42,3.59,12.89,5.24,14,12.87,25.25,13.62,7.25.45,8.86-2.54,16.11-3.59,16.51-2.39,23.36,11.22,50.48,20.95,13.56,4.79,25.51,9.13,38.4,5.39,13.43-3.89,15.31-13,29.27-18.11,3.36-1.2,24.17-9.13,35.31,0,6.31,5.24,9.67,16,5.1,22.75-10.06,14.52-50.08-2.4-61.62,12.72-5.51,7.18-3.23,20.05,4,26.34,16.24,14.22,57.19-4.49,61.62,3.59,2.42,4.49-9,12.57-6,16.31,2,2.7,8.33-.15,19.2,0,6.31.15,20.41.3,27.26,8.23,7.11,8.08,5.77,23.5-2,27.24-7.52,3.74-19.47-4.19-24.17-7.33-6.44-4.19-8.45-7.49-13.15-11.83C984.83,188.62,975.84,182.18,961.07,177.39Z"/><path class="cls-4" d="M1288.05,324.5c23.09,12.47,34.67,11.48,41,8,2-1.09,5.32-3.61,11-5,5.44-1.33,16.6-3.16,19,1,3.46,6-10.78,25-23,24-4.42-.36-5.29-3.07-9-3-8.81.18-9.57,15.64-21,28-20,21.63-59.35,19.43-66.8,19h-.2c-19.13-.88-39.94,27.2-34,44,3,8.48,12.21,12.39,16,14,21.08,8.95,35.79-5.9,56,2,7.47,2.92,18.6,8.41,18,14-.52,4.9-9.82,7.67-11,8-14.82,4.22-22.6-6.56-40-9-13-1.82-23.16,2.18-43,10-21.71,8.57-28.75,16.73-42,14-7.62-1.57-16.45-6.58-16-11,.35-3.41,11.7-.92,17-8,2.16-2.88,3.58-7.6,2-11-4-8.55-28.34-11.62-42-1-11.86,9.22-6.63,21.76-20,30-7.28,4.5-12,2.74-21,9-8.43,5.89-7,9.66-13,14-15.35,11.13-37.26-3.15-43,5-2.85,4.06-.92,12.56,4,17,14.42,13,51.71-11.29,58-2,1,1.42.1,2-1,16-.74,9.53-1.09,14.33,0,16,4.37,6.68,23.86,4.23,40-3,25.8-11.55,25.06-27.26,55-53,17.83-15.31,32.66-28.06,54-29,22.28-1,44.25,11.24,51,15,13.5,7.51,13.19,10.75,24,15,5.16,2,29.42,11.56,50-1,14.54-8.87,26.63-28.37,21-40-2.17-4.5-7.11-8.05-36-13-25.4-4.35-35.46,1.95-52-6-6.75-3.24-15.61-7.5-17-15-2.62-14.2,22.65-34.23,48-42,27.47-8.42,39.51,2.31,57-10,2-1.36,19.31-14,19-34-.26-17.43-13.83-32.56-28-37-11.47-3.59-18.08,1.48-43,6A252.15,252.15,0,0,1,1288.05,324.5Z"/></g><g id="Layer_3" data-name="Layer 3"><path class="cls-5" d="M1413.38,449.9c-57.55-27.07-175.33,29.22-181.56,67.18-.5,3-1.2,11.56-8,19.15C1211.63,550,1184.28,555.4,1171,546c-15.71-11.13-3.11-37.15-12.94-41.37-15.53-6.66-42.44,60.28-102.28,74.8-41.6,10.1-62.19-14.09-85.76.54-36.18,22.45-4.26,89.78-34.89,111.68-27.88,19.93-70.32-48.86-141.58-40.57-33.18,3.86-74,23.8-101.87,50.83-19.82,19.2-20.84,30.08-38.67,36.91-27.46,10.54-41.65-8.91-94-12.93-21.16-1.62-61-1.68-96.17,18.81-5.05,2.94-30.28,17.66-27.36,29.45,2.18,8.81,19.07,12.06,24.92,13.18,831.11,159.89,974.15-80.23,974.15-80.23C1489.2,615.39,1475.44,479.08,1413.38,449.9Z"/><path class="cls-6" d="M1311.46,501.4c-44.68,24.63-42.57,47.41-77.78,54.57-13.14,2.67-43.66,5.73-78.39-.08l-1.92-.33c-79.93,57-126.34,60.31-154.26,51.84-7.89-2.4-22.79-8.3-30.23-1.53-14.51,13.22,23.32,52.86,12.29,88.29C966.6,741,869.54,771.69,822.34,739.35,792.61,719,798,684.13,775.23,679c-29.7-6.66-39.5,52.38-101.06,76.55-66.82,26.25-155.22-4.06-165.93-12.88a8.45,8.45,0,0,0-4.88-2.15c-9.46-.54-22.54,17-20.87,26.81C487,793.55,608.21,826.42,685,777.76c23.14-14.67,37.34-33.61,63.56-32.33,24.33,1.19,34.9,18.62,61.17,36.1,28.33,18.85,81,41.77,119,31.34,60.85-16.69,41-107,120.15-161.41,34.92-24,72.28-29.44,129.34-37.74,80.25-11.68,98.85,5.32,141.27-14.65,60.66-28.55,98.09-98.81,84.74-116.35C1393.18,468.2,1342.9,484.06,1311.46,501.4Z"/><path class="cls-7" d="M791.55,676.2c4.11,11.46,14.08,34.07,36.2,49.58,33,23.16,79.68,21.11,83.94,8.11,4.68-14.27-38.36-51.81-85.08-58.43A110.07,110.07,0,0,0,791.55,676.2Z"/><path class="cls-7" d="M1331.06,623.7C1326.58,605,1147,644.82,1097.78,658a104.4,104.4,0,0,0-30.57,13.54c-32.54,21.28-50.8,60-43.57,66.75,7.85,7.28,35.67-32.42,98.85-53.25,53.68-17.71,73.15-2.09,135.14-22.16C1286.79,653.39,1333.4,633.45,1331.06,623.7Z"/><path class="cls-7" d="M1328.64,643c-95,40.12-131.8,91.89-172.82,82.46-5.61-1.29-28.1-7.58-42.85,3.53-2,1.52-5.66,4.27-5.41,7.47.73,9,31.69,16.68,57.54,16.33,50.33-.67,59.28-31.55,108.65-33,26.92-.8,27.94,8.27,58.71,6.2,34.76-2.33,70.45-16.38,70-27.83-.56-13.13-48.28-13.36-50.63-30-2.87-20.26,65-43.72,63.25-48.35C1413.77,616.51,1377.25,622.44,1328.64,643Z"/><path class="cls-8" d="M-98.56,259.07c50.44,24.56,155.13-23.47,161.13-56.81.48-2.68,1.21-10.16,7.28-16.76,11-11.95,35.19-16.36,46.75-7.94,13.72,10,2.25,32.75,10.87,36.59,13.62,6.06,38.25-52.52,91.26-64.53,36.85-8.36,54.71,13.2,75.7.63,32.24-19.3,4.95-79,32.27-97.86C351.57,35.2,388.12,96.3,451.13,89.91c29.33-3,65.6-20,90.58-43.43,17.75-16.64,18.79-26.21,34.62-32,24.38-8.91,36.64,8.39,82.81,12.59,18.65,1.7,53.85,2.27,85.13-15.31,4.49-2.53,27-15.16,24.54-25.58C767-21.6,752.13-24.68,747-25.74,15.55-177.17-113.86,32.37-113.86,32.37-163.3,112.41-152.95,232.58-98.56,259.07Z"/><path class="cls-9" d="M-7.93,215c39.76-21.11,38.2-41.19,69.38-47,11.62-2.18,38.6-4.48,69.18,1.08l1.69.32c71.3-49.16,112.31-51.47,136.84-43.65,6.93,2.2,20,7.6,26.66,1.73,13-11.46-19.88-46.83-9.68-77.88,13.47-41,99.54-66.82,140.77-37.74,26,18.31,20.74,48.93,40.79,53.72C493.83,71.82,503.26,20,557.9-.51c59.33-22.25,137,5.57,146.29,13.47a7.45,7.45,0,0,0,4.27,1.95c8.35.6,20.13-14.69,18.78-23.32C723.62-31.54,617.06-62,548.61-20.18,528-7.57,515.21,8.93,492.09,7.46,470.63,6.1,461.54-9.38,438.57-25.11c-24.75-17-70.9-37.8-104.59-29.11C280.05-40.31,296.36,39.45,225.8,86.32c-31.14,20.68-64.18,25-114.65,31.56-71,9.25-87.18-6-124.89,11.08-53.91,24.35-87.87,85.72-76.32,101.33C-80.5,243.21-35.91,229.9-7.93,215Z"/><path class="cls-7" d="M453.25,67.85c-3.47-10.14-12-30.17-31.28-44.11-28.84-20.82-70.06-19.61-74-8.22-4.32,12.5,33.17,46.1,74.32,52.53A97.66,97.66,0,0,0,453.25,67.85Z"/><path class="cls-10" d="M-23.61,107.13C-19.9,123.65,139.13,90.9,182.74,80A92.61,92.61,0,0,0,209.9,68.45c29-18.31,45.63-52.19,39.33-58.2-6.83-6.51-31.91,28.08-87.95,45.61-47.61,14.89-64.58.9-119.56,17.77C15.86,81.56-25.55,98.52-23.61,107.13Z"/><path class="cls-7" d="M-21.22,90.2C63.19,56.1,96.32,11,132.4,19.83c4.93,1.21,24.7,7,37.87-2.56,1.8-1.31,5-3.68,4.87-6.5-.52-7.92-27.75-15.09-50.57-15.12-44.43-.06-52.74,27-96.34,27.68C4.47,23.69,3.68,15.7-23.5,17.12c-30.71,1.6-62.39,13.51-62.11,23.6.33,11.57,42.44,12.38,44.29,27,2.27,17.88-58,37.65-56.45,41.75C-96.7,112.4-64.4,107.64-21.22,90.2Z"/></g><g id="blomster"><path class="cls-11" d="M430.4,20.27c.16-.71-12.47-11.53-26.76-8.34-4.65,1-9,3.44-11.81.49-2.17-2.26-3-7.2-1.58-10.3,2.17-4.61,7.88-1.75,10.63-6.37,2.9-4.88-1.24-11.78,1.18-14.22,2.85-2.89,9.47,5.84,15,2.45,2.44-1.51,1.89-3.71,4.72-5.89,4.7-3.61,12.2-2.16,13.78,2,1.09,2.85-1.69,4.28-2,10.3-.32,6.93,3.16,9,2.75,16.68-.2,3.87-1.3,7.41-1.57,7.35-.48-.11-.34-12,4.33-23,1.9-4.5,3.69-8.61,7.08-9.8,3.92-1.39,5.71,2.62,12.21,4.9,9.77,3.43,17-1.69,18.5,2,1.31,3.18-3.62,8.42-2,11.28,1.28,2.22,4.95.28,5.9,2.45.89,2-1.41,5.68-2.75,7.36a14.69,14.69,0,0,1-5.51,4,19.83,19.83,0,0,1-2.37.94c-5.88,1.87-13.88-2.29-14.17-1.47-.19.55,3,3.67,7.88,5.4,5.2,1.84,7.56.4,11.41,1,9.83,1.47,18.13,14.45,16.53,19.12-1.2,3.53-8.06,2.36-9.05,6.87-.45,2,.71,3.42,0,4.41-1.44,2-6.39-3.37-10.23-1-2,1.23-1.41,3.12-3.55,4.9a8.21,8.21,0,0,1-11.41-1.47c-3.32-3.87-3.05-11.2-2.76-11.28S459.94,56,456,60.48c-2.86,3.24-9.27-.32-10.62,2.94-.61,1.48.56,2.54,0,4.42-1,3.32-6.31,5.32-10.24,3.43-3.35-1.62-2.83-4.7-6.29-6.87-4.55-2.85-7.88.94-10.24-1.47-4-4.1.84-20,.4-20.11s-1.78,11.36-6.3,12.76c-1.76.54-2.44-.91-6.3-1s-4.59,1.44-5.9.49c-2.94-2.09-.41-10-3.94-13.24-1.54-1.4-2.67-.48-3.54-2-1.75-3,2.19-7.78.79-10.79-1.66-3.55-9-.79-9.45-2.45-.39-1.49,4.93-6.12,11.81-8.83C413.75,10.9,430.22,21.05,430.4,20.27Z"/><path class="cls-12" d="M419,42.82s2.36-12.75,9.44-16.67"/><path class="cls-12" d="M454.8,40.86s-.78-5.39-8.66-10.3"/><path class="cls-12" d="M400.88-4.25s10.23,3.43,12.6,6.86"/><path class="cls-12" d="M474.88-.33s-3,2.94-6.61,2.94"/><path class="cls-12" d="M472.91,47.73s1.18-10.15-18.11-22.24"/><path class="cls-13" d="M428.43,53.26s7.87-2.59,3.94-24.17"/><path class="cls-12" d="M393,38.41s7.58-4.9,10.87-11.28S419,23,419,23"/><path class="cls-13" d="M435.8,24.68s7.2,8.83,8,8.34"/><path class="cls-13" d="M437.57,22.64s10.15-5.32,12.9,3.51"/><path class="cls-13" d="M450.47,15.32c-6.29-6.42-14.56,6.42-14.56,6.42s.57-17.17,4.81-19.13"/><path class="cls-13" d="M432.76,20.78s-4.45,1-3-15.72"/><path class="cls-13" d="M433.31,23s-11.57,2.13-12,6.54"/><path class="cls-13" d="M433.47,24s-2.5,17.82,4.69,18.8"/><path class="cls-13" d="M435,20.79s-4.29-.49-3.87-7.86"/><path class="cls-13" d="M434.73,25.82s2.15.65,2.25,6.13"/><path class="cls-13" d="M428.43,22.64S421.1,7.09,411.58,11.47"/><path class="cls-13" d="M438.44,25.17s6.55,11,.32,16.45"/><ellipse cx="452.25" cy="15.12" rx="1.57" ry="1.96"/><ellipse cx="450.73" cy="26.15" rx="1.51" ry="1.72"/><ellipse cx="440.95" cy="2.41" rx="1.51" ry="1.72"/><ellipse cx="431.11" cy="12.22" rx="1.51" ry="1.72"/><ellipse cx="429.54" cy="2.41" rx="1.51" ry="1.72"/><ellipse cx="437.02" cy="31.83" rx="1.51" ry="1.72"/><ellipse cx="438.59" cy="42.62" rx="1.51" ry="1.72"/><ellipse cx="427.96" cy="53.41" rx="1.51" ry="1.72"/><ellipse cx="420.09" cy="27.91" rx="1.51" ry="1.72"/><ellipse cx="411.43" cy="12.22" rx="1.51" ry="1.72"/><path class="cls-14" d="M445.23,31.32c1.74,1.66,3.66,3.11,5.29,4.89a12.68,12.68,0,0,1,2.26,3.19l.08.18c.08.18.14.36.2.54a5.77,5.77,0,0,1,.2.82c.06.28,0-.15,0,.22,0,.16,0,.32,0,.48l0,.41c0-.33-.07.23-.08.29-.47,1.87,2.42,2.67,2.89.8.81-3.23-1-6.22-3-8.57-1.73-2-3.82-3.56-5.72-5.37-1.4-1.33-3.53.79-2.12,2.12Z"/><path class="cls-14" d="M446.75,61.4a26.85,26.85,0,0,1-2-6.34,23.73,23.73,0,0,1-.54-6.77,1.51,1.51,0,0,0-1.5-1.5,1.53,1.53,0,0,0-1.5,1.5,26.44,26.44,0,0,0,.65,7.57,29.2,29.2,0,0,0,2.34,7,1.51,1.51,0,0,0,2,.54,1.53,1.53,0,0,0,.54-2.05Z"/><path class="cls-14" d="M456.91-13.1A52,52,0,0,0,445.27,2.46c-.89,1.71,1.7,3.23,2.59,1.51A49.91,49.91,0,0,1,459-11c1.46-1.26-.67-3.38-2.13-2.12Z"/><path class="cls-14" d="M473.6-1.39A24.83,24.83,0,0,1,466.29,3c-2.53,1.13-5.15,2.06-7.78,2.94-1.37.45-.78,2.63.6,2.17,2.81-.95,5.6-2,8.32-3.17A26.44,26.44,0,0,0,475.19.2c1-1-.55-2.6-1.59-1.59Z"/><path class="cls-14" d="M433.43,7.67a14.46,14.46,0,0,0-.57,2.61,1.5,1.5,0,0,0,.74,1.4,1.51,1.51,0,0,0,1.82-.24,1.4,1.4,0,0,0,.26-.34c.14-.25.21-.55.33-.81l-.16.36,0-.09a1.59,1.59,0,0,0,.15-1.15,1.14,1.14,0,0,0-.27-.51,1.12,1.12,0,0,0-.42-.39,1.5,1.5,0,0,0-2.05.54,3.28,3.28,0,0,0-.25.58c0,.1-.07.19-.11.28l.15-.36,0,.07.23-.31h0l.3-.23h0l.76-.21h0l.75.21h0l.54.53h0l.15.36h0l.05.4a.49.49,0,0,1,0-.12l-.05.4a13.56,13.56,0,0,1,.52-2.18,1.11,1.11,0,0,0,0-.6,1.16,1.16,0,0,0-.18-.56,1.18,1.18,0,0,0-.38-.42,1.13,1.13,0,0,0-.51-.26,1.51,1.51,0,0,0-1.16.15,1.62,1.62,0,0,0-.69.89Z"/><path class="cls-14" d="M434,5.94a17.77,17.77,0,0,0-.53,2.51c-.16,1-.29,2.05-.36,3.09a1.5,1.5,0,1,0,3,0c0-.68.11-1.35.2-2l-.05.4a21.3,21.3,0,0,1,.63-3.18,1.5,1.5,0,1,0-2.89-.8Z"/><path class="cls-14" d="M433.66,7c0,2.08-.25,4.16-.28,6.24a1.51,1.51,0,0,0,1.5,1.5,1.53,1.53,0,0,0,1.5-1.5c0-2.08.26-4.16.28-6.24a1.5,1.5,0,1,0-3,0Z"/><path class="cls-14" d="M433.71,10.79a31,31,0,0,0-.61,7.68,1.53,1.53,0,0,0,1.5,1.5,1.51,1.51,0,0,0,1.5-1.5,26,26,0,0,1,.07-3.64c0-.31.05-.62.08-.92l.06-.49s.06-.5,0-.27,0-.22,0-.27.05-.3.07-.44l.15-.85a1.5,1.5,0,0,0-2.89-.8Z"/><path class="cls-14" d="M438.27,26.47A34.7,34.7,0,0,0,443,29.91c.37.24.73.49,1.09.75l.32.23c.22.17-.06-.05.07.05l.52.43a14.22,14.22,0,0,1,1.05,1c.17.18.32.36.48.54,0,0,.28.36.13.16l.27.37A1.53,1.53,0,0,0,449,34a1.51,1.51,0,0,0,.54-2,17.59,17.59,0,0,0-4.67-4.39L442.54,26c-.4-.28-.8-.56-1.19-.86l-.07-.05L441,24.9l-.62-.56a1.5,1.5,0,0,0-2.12,2.13Z"/><path class="cls-15" d="M101.21,119.63c.2-.79-15-13-32.23-9.38-5.59,1.17-10.81,3.87-14.22.55-2.62-2.54-3.65-8.1-1.9-11.58,2.61-5.19,9.49-2,12.8-7.18,3.49-5.48-1.49-13.24,1.42-16,3.44-3.24,11.41,6.58,18,2.76,2.94-1.69,2.28-4.17,5.69-6.62,5.66-4.06,14.7-2.43,16.59,2.21,1.31,3.2-2,4.81-2.37,11.59-.38,7.79,3.81,10.12,3.32,18.75-.24,4.36-1.57,8.35-1.89,8.28-.58-.12-.41-13.5,5.21-25.93,2.29-5.07,4.45-9.69,8.53-11,4.72-1.55,6.88,3,14.7,5.52,11.76,3.86,20.46-1.89,22.28,2.21,1.58,3.58-4.36,9.47-2.37,12.69,1.54,2.49,6,.31,7.11,2.76,1.06,2.27-1.7,6.39-3.32,8.27a17.66,17.66,0,0,1-6.64,4.46,25.78,25.78,0,0,1-2.84,1.06c-7.09,2.1-16.73-2.58-17.07-1.66-.23.63,3.64,4.14,9.48,6.07,6.27,2.08,9.12.46,13.75,1.11,11.83,1.66,21.83,16.25,19.91,21.51-1.45,4-9.71,2.66-10.9,7.73-.55,2.3.85,3.84,0,5-1.74,2.27-7.69-3.79-12.33-1.1-2.38,1.39-1.69,3.51-4.26,5.52a10.38,10.38,0,0,1-13.75-1.66c-4-4.35-3.67-12.61-3.32-12.69.53-.12,6.18,17,1.42,22.07-3.45,3.65-11.17-.36-12.8,3.31-.73,1.66.69,2.85,0,5-1.21,3.74-7.6,6-12.32,3.86-4-1.82-3.41-5.28-7.58-7.72-5.48-3.22-9.48,1.05-12.33-1.66-4.85-4.61,1-22.45.47-22.62s-2.13,12.77-7.58,14.34c-2.11.61-2.94-1-7.58-1.1s-5.53,1.61-7.11.55c-3.54-2.36-.5-11.28-4.75-14.89-1.85-1.58-3.22-.55-4.26-2.21-2.1-3.34,2.64-8.76,1-12.14-2-4-10.86-.89-11.38-2.76-.47-1.68,5.94-6.89,14.22-9.93C81.16,109.09,101,120.51,101.21,119.63Z"/><path class="cls-12" d="M87.46,145s2.85-14.35,11.38-18.76"/><path class="cls-12" d="M130.6,142.8s-.95-6.07-10.43-11.58"/><path class="cls-12" d="M65.66,92S78,95.91,80.83,99.77"/><path class="cls-12" d="M136.17,82s-5.57,2.37-7,7.34"/><path class="cls-12" d="M154.78,96.46s-3.59,3.31-8,3.31"/><path class="cls-12" d="M152.41,150.53s1.42-11.43-21.81-25"/><path class="cls-13" d="M98.84,156.74s9.48-2.9,4.74-27.18"/><path class="cls-12" d="M56.18,140s9.13-5.51,13.1-12.69,18.18-4.61,18.18-4.61"/><path class="cls-13" d="M107.72,124.6s8.66,9.93,9.61,9.38"/><path class="cls-13" d="M109.85,122.3s12.22-6,15.54,4"/><path class="cls-13" d="M125.39,114.06c-7.59-7.22-17.54,7.23-17.54,7.23s.69-19.31,5.79-21.52"/><path class="cls-13" d="M104.06,120.2s-5.37,1.09-3.63-17.67"/><path class="cls-13" d="M104.72,122.75s-13.94,2.4-14.41,7.36"/><path class="cls-13" d="M104.91,123.85s-3,20.06,5.65,21.16"/><path class="cls-13" d="M106.8,120.21s-5.16-.55-4.67-8.84"/><path class="cls-13" d="M106.43,125.88s2.58.73,2.71,6.89"/><path class="cls-13" d="M98.84,122.3S90,104.8,78.54,109.73"/><path class="cls-13" d="M110.9,125.15s7.88,12.39.38,18.5"/><ellipse cx="127.52" cy="113.84" rx="1.9" ry="2.21"/><ellipse cx="125.7" cy="126.25" rx="1.82" ry="1.93"/><ellipse cx="113.92" cy="99.54" rx="1.82" ry="1.93"/><ellipse cx="102.07" cy="110.57" rx="1.82" ry="1.93"/><ellipse cx="100.17" cy="99.54" rx="1.82" ry="1.93"/><ellipse cx="109.18" cy="132.64" rx="1.82" ry="1.93"/><ellipse cx="111.08" cy="144.78" rx="1.82" ry="1.93"/><ellipse cx="98.28" cy="156.92" rx="1.82" ry="1.93"/><ellipse cx="88.8" cy="128.23" rx="1.82" ry="1.93"/><ellipse cx="78.37" cy="110.57" rx="1.82" ry="1.93"/><path class="cls-14" d="M84.09,81.22c-.42-.16-.16-.06,0,.07l.2.15s-.2-.18,0,0c.38.33.74.67,1.09,1s.84.92,1.24,1.4l.63.76.32.41.18.23c-.09-.13,0,0,0,0a38.27,38.27,0,0,1,4.41,7c.1.21-.08-.22,0,.13.05.12.1.24.14.37s.12.43.18.65,0-.3,0,0-.09.2,0,.07c.27-.3-.23.19,0-.14a2.18,2.18,0,0,1,.42-.48A1.55,1.55,0,0,0,92.58,95a1.5,1.5,0,0,0,2,.53c2.27-1.71.12-5.12-.95-6.93a46.77,46.77,0,0,0-5.78-7.84,8.63,8.63,0,0,0-3-2.4,1.5,1.5,0,1,0-.8,2.89Z"/><path class="cls-14" d="M119.28,131.93c2.11,1.87,4.41,3.49,6.39,5.51a14.75,14.75,0,0,1,2.78,3.67,5.87,5.87,0,0,1,.61,1.83c.06.32,0-.15,0,.2a4.47,4.47,0,0,1,0,.52,2.28,2.28,0,0,1-.14.86,1.5,1.5,0,0,0,2.9.79c1-3.6-1.22-6.94-3.57-9.47-2.09-2.25-4.59-4-6.87-6-1.44-1.28-3.57.84-2.13,2.12Z"/><path class="cls-14" d="M120.64,166a28.44,28.44,0,0,1-2.49-7.18,25.06,25.06,0,0,1-.66-7.67,1.5,1.5,0,0,0-3,0,27.76,27.76,0,0,0,.77,8.47,31.52,31.52,0,0,0,2.78,7.89c.91,1.71,3.5.2,2.6-1.51Z"/><path class="cls-14" d="M133.36,82.23c-5.87,4.76-10.32,10.9-14,17.46-1,1.69,1.64,3.21,2.59,1.52,3.54-6.37,7.81-12.25,13.5-16.86a1.51,1.51,0,0,0,0-2.12,1.54,1.54,0,0,0-2.12,0Z"/><path class="cls-14" d="M153.4,95.36c-2.49,2.26-5.76,3.71-8.83,5s-6.26,2.33-9.44,3.33c-1.38.43-.79,2.6.59,2.17,3.36-1.06,6.71-2.18,10-3.54A32,32,0,0,0,155,97c1.07-1-.52-2.57-1.59-1.6Z"/><path class="cls-14" d="M105.16,105.51a15.05,15.05,0,0,0-.63,2.46,4.18,4.18,0,0,0-.06.51,1.58,1.58,0,0,0,.21.79,1.52,1.52,0,0,0,2,.54,1.58,1.58,0,0,0,.56-.56c.14-.26.23-.55.35-.83l-.15.36a.48.48,0,0,1,.08-.16,1.57,1.57,0,0,0,.15-1.16,1.54,1.54,0,0,0-.69-.89,1.52,1.52,0,0,0-1.16-.16,1.62,1.62,0,0,0-.89.69,3.42,3.42,0,0,0-.26.59l-.12.3.15-.36a.67.67,0,0,1-.06.12l.24-.31h0l.3-.24h0L106,107h0l.76.21h0l.54.54h0l.15.36h0l.06.4a.25.25,0,0,1,0-.12l-.06.4a10.06,10.06,0,0,1,.27-1.21q.16-.63.36-1.26a1.52,1.52,0,0,0-.15-1.16,1.56,1.56,0,0,0-.9-.69,1.54,1.54,0,0,0-1.15.16,1.57,1.57,0,0,0-.69.89Z"/><path class="cls-14" d="M105.83,103.56a19.5,19.5,0,0,0-.64,2.82c-.19,1.14-.34,2.28-.42,3.43a1.5,1.5,0,0,0,1.5,1.5,1.53,1.53,0,0,0,1.5-1.5c0-.49.08-1,.14-1.46,0-.13,0-.25,0-.38s0,.32,0,.11l0-.19c0-.27.08-.53.13-.8a19.61,19.61,0,0,1,.62-2.73,1.52,1.52,0,0,0-1-1.85,1.54,1.54,0,0,0-1.84,1Z"/><path class="cls-14" d="M105.44,104.74c0,2.34-.29,4.68-.33,7a1.5,1.5,0,0,0,1.5,1.5,1.54,1.54,0,0,0,1.5-1.5c0-2.34.31-4.68.33-7a1.51,1.51,0,0,0-1.5-1.5,1.53,1.53,0,0,0-1.5,1.5Z"/><path class="cls-14" d="M105.49,109a32.63,32.63,0,0,0-.72,8.59,1.5,1.5,0,0,0,3,0,29.4,29.4,0,0,1,.08-4.09c0-.35.06-.7.1-1s0-.37.07-.55h0l0-.2c.09-.64.2-1.28.34-1.91a1.5,1.5,0,1,0-2.9-.8Z"/><path class="cls-14" d="M110.91,126.47a41,41,0,0,0,5.64,3.85,16.91,16.91,0,0,1,4.85,4,1.55,1.55,0,0,0,2,.54,1.51,1.51,0,0,0,.54-2.05,20.09,20.09,0,0,0-5.52-4.87,44,44,0,0,1-5.44-3.63,1.54,1.54,0,0,0-2.12,0,1.5,1.5,0,0,0,0,2.12Z"/><path class="cls-16" d="M1314,637.38c.2-.79-15-13-32.23-9.38-5.59,1.17-10.8,3.87-14.22.55-2.62-2.54-3.65-8.1-1.9-11.59,2.61-5.18,9.49-2,12.8-7.17,3.49-5.48-1.49-13.25,1.42-16,3.44-3.24,11.41,6.58,18,2.76,2.94-1.7,2.28-4.17,5.69-6.62,5.65-4.06,14.69-2.43,16.59,2.21,1.31,3.2-2,4.8-2.37,11.58-.39,7.8,3.8,10.13,3.31,18.76-.24,4.36-1.57,8.35-1.89,8.28-.58-.12-.41-13.5,5.21-25.93,2.29-5.07,4.45-9.69,8.54-11,4.71-1.55,6.87,3,14.69,5.52,11.77,3.86,20.46-1.9,22.28,2.21,1.59,3.58-4.36,9.47-2.37,12.69,1.54,2.49,6,.31,7.11,2.75,1.07,2.27-1.7,6.4-3.32,8.28a17.78,17.78,0,0,1-6.64,4.46,24.88,24.88,0,0,1-2.84,1.06c-7.09,2.1-16.72-2.58-17.06-1.66-.23.62,3.63,4.13,9.48,6.07,6.27,2.08,9.11.45,13.74,1.11,11.84,1.66,21.83,16.25,19.91,21.51-1.45,4-9.7,2.66-10.9,7.73-.54,2.29.86,3.84,0,5-1.73,2.27-7.69-3.79-12.32-1.1-2.39,1.38-1.7,3.5-4.27,5.52-3.43,2.67-9.65,2.8-13.75-1.66s-3.67-12.61-3.32-12.69c.53-.12,6.18,17,1.43,22.07-3.46,3.65-11.18-.36-12.8,3.31-.74,1.66.68,2.85,0,5-1.21,3.75-7.6,6-12.33,3.87-4-1.82-3.41-5.28-7.58-7.73-5.48-3.21-9.48,1.06-12.33-1.65-4.84-4.61,1-22.45.48-22.62s-2.14,12.77-7.59,14.34c-2.11.61-2.94-1-7.58-1.1s-5.53,1.61-7.11.55c-3.53-2.36-.5-11.28-4.74-14.9-1.86-1.58-3.22-.54-4.27-2.2-2.1-3.34,2.64-8.76,1-12.14-2-4-10.86-.89-11.38-2.76-.46-1.68,5.94-6.89,14.22-9.93C1294,626.84,1313.8,638.26,1314,637.38Z"/><path class="cls-12" d="M1300.28,662.76s2.84-14.35,11.37-18.76"/><path class="cls-12" d="M1343.41,660.55s-.94-6.07-10.42-11.59"/><path class="cls-12" d="M1278.47,609.79s12.33,3.86,15.17,7.73"/><path class="cls-12" d="M1349,599.7s-5.57,2.37-7,7.33"/><path class="cls-12" d="M1367.59,614.21s-3.59,3.31-8,3.31"/><path class="cls-12" d="M1365.22,668.27s1.42-11.42-21.81-25"/><path class="cls-13" d="M1311.65,674.49s9.48-2.91,4.74-27.18"/><path class="cls-12" d="M1269,657.79s9.13-5.52,13.1-12.69,18.19-4.61,18.19-4.61"/><path class="cls-13" d="M1320.53,642.34s8.66,9.93,9.61,9.38"/><path class="cls-13" d="M1322.66,640s12.22-6,15.54,4"/><path class="cls-13" d="M1338.2,631.81c-7.58-7.22-17.54,7.22-17.54,7.22s.69-19.31,5.8-21.51"/><path class="cls-13" d="M1316.87,638s-5.36,1.08-3.63-17.67"/><path class="cls-13" d="M1317.53,640.49s-13.93,2.41-14.41,7.37"/><path class="cls-13" d="M1317.72,641.6s-3,20,5.65,21.16"/><path class="cls-13" d="M1319.62,638s-5.17-.55-4.67-8.84"/><path class="cls-13" d="M1319.24,643.63s2.58.73,2.71,6.89"/><path class="cls-13" d="M1311.65,640s-8.83-17.49-20.29-12.56"/><path class="cls-13" d="M1323.71,642.89s7.89,12.4.39,18.51"/><ellipse cx="1340.33" cy="631.59" rx="1.9" ry="2.21"/><ellipse cx="1338.51" cy="644" rx="1.82" ry="1.93"/><ellipse cx="1326.73" cy="617.29" rx="1.82" ry="1.93"/><ellipse cx="1314.88" cy="628.32" rx="1.82" ry="1.93"/><ellipse cx="1312.99" cy="617.29" rx="1.82" ry="1.93"/><ellipse cx="1321.99" cy="650.39" rx="1.82" ry="1.93"/><ellipse cx="1323.89" cy="662.53" rx="1.82" ry="1.93"/><ellipse cx="1311.09" cy="674.67" rx="1.82" ry="1.93"/><ellipse cx="1301.61" cy="645.98" rx="1.82" ry="1.93"/><ellipse cx="1291.18" cy="628.32" rx="1.82" ry="1.93"/><path class="cls-14" d="M1296.9,599c-.42-.16-.15-.07,0,.07l.21.14c-.06,0-.2-.17,0,0s.73.67,1.08,1,.84.92,1.24,1.39l.63.77.32.4.19.24c-.1-.13,0,0,0,.05a38.22,38.22,0,0,1,4.4,7c.1.21-.07-.22.06.13,0,.12.09.24.13.37s.12.43.18.65,0-.3,0,0-.1.19,0,.07c.27-.3-.23.19,0-.14a2,2,0,0,1,.43-.48,1.55,1.55,0,0,0-.54,2.05,1.51,1.51,0,0,0,2,.54c2.27-1.71.12-5.12-1-6.94a47.19,47.19,0,0,0-5.78-7.84,8.63,8.63,0,0,0-3-2.39,1.51,1.51,0,0,0-1.85,1,1.53,1.53,0,0,0,1.05,1.84Z"/><path class="cls-14" d="M1332.1,649.68c2.1,1.87,4.4,3.49,6.38,5.51a14.4,14.4,0,0,1,2.78,3.67,5.87,5.87,0,0,1,.61,1.83c.06.32,0-.16,0,.19a4.56,4.56,0,0,1,0,.52,2.4,2.4,0,0,1-.13.86,1.5,1.5,0,0,0,2.89.8c1-3.6-1.22-6.94-3.56-9.47-2.09-2.25-4.59-4-6.88-6-1.44-1.28-3.57.84-2.12,2.12Z"/><path class="cls-14" d="M1333.45,683.75a28.44,28.44,0,0,1-2.49-7.18,25.08,25.08,0,0,1-.66-7.67,1.51,1.51,0,0,0-1.5-1.5,1.53,1.53,0,0,0-1.5,1.5,28.11,28.11,0,0,0,.77,8.47,31.55,31.55,0,0,0,2.79,7.89c.9,1.71,3.49.19,2.59-1.51Z"/><path class="cls-14" d="M1346.17,600c-5.87,4.75-10.32,10.9-14,17.46-.94,1.69,1.65,3.2,2.59,1.51,3.54-6.36,7.81-12.24,13.5-16.85a1.5,1.5,0,1,0-2.12-2.12Z"/><path class="cls-14" d="M1366.21,613.11c-2.49,2.25-5.76,3.71-8.83,5s-6.26,2.33-9.44,3.32c-1.38.43-.79,2.61.6,2.17,3.36-1.05,6.7-2.17,10-3.53a32.3,32.3,0,0,0,9.31-5.34c1.08-1-.52-2.56-1.59-1.59Z"/><path class="cls-14" d="M1318,623.26a17.4,17.4,0,0,0-.63,2.46c0,.16,0,.34-.06.51a1.51,1.51,0,0,0,2.27,1.32,1.45,1.45,0,0,0,.55-.55,6.65,6.65,0,0,0,.35-.83l-.15.36a.8.8,0,0,1,.08-.16,1.5,1.5,0,0,0-1.7-2.21,1.61,1.61,0,0,0-.89.69,3.91,3.91,0,0,0-.26.59l-.12.3.15-.36a.39.39,0,0,1-.06.11l.24-.3h0l.31-.24h0l.76-.2h0l.75.2h0l.54.54h0l.15.36h0l0,.39a.45.45,0,0,1,0-.11l-.06.4c.06-.41.17-.81.27-1.21s.23-.84.36-1.26a1.5,1.5,0,0,0-2.2-1.7,1.64,1.64,0,0,0-.69.9Z"/><path class="cls-14" d="M1318.64,621.31a20.92,20.92,0,0,0-.64,2.82c-.19,1.14-.34,2.28-.42,3.43a1.5,1.5,0,0,0,3,0c0-.49.08-1,.14-1.47,0-.12,0-.25,0-.37s0,.31,0,.11l0-.19c0-.27.08-.54.13-.8a18.3,18.3,0,0,1,.63-2.73,1.5,1.5,0,0,0-2.9-.8Z"/><path class="cls-14" d="M1318.25,622.49c0,2.34-.29,4.68-.33,7a1.52,1.52,0,0,0,1.5,1.5,1.54,1.54,0,0,0,1.5-1.5c0-2.34.32-4.68.33-7a1.5,1.5,0,0,0-1.5-1.5,1.53,1.53,0,0,0-1.5,1.5Z"/><path class="cls-14" d="M1318.31,626.77a32.22,32.22,0,0,0-.73,8.59,1.5,1.5,0,1,0,3,0,29.51,29.51,0,0,1,.08-4.1c0-.34.07-.69.11-1l.06-.54h0l0-.2c.09-.64.21-1.28.34-1.91a1.54,1.54,0,0,0-1-1.85,1.52,1.52,0,0,0-1.84,1Z"/><path class="cls-14" d="M1323.72,644.22a40.62,40.62,0,0,0,5.64,3.84,16.81,16.81,0,0,1,4.85,4.05,1.55,1.55,0,0,0,2,.54,1.52,1.52,0,0,0,.54-2.06,20.22,20.22,0,0,0-5.52-4.86,44,44,0,0,1-5.44-3.63,1.54,1.54,0,0,0-2.12,0,1.52,1.52,0,0,0,0,2.12Z"/><path class="cls-17" d="M1100.09,626c.11-.49-8.48-8-18.21-5.81-3.15.73-6.1,2.4-8,.35a7.4,7.4,0,0,1-1.07-7.17c1.47-3.21,5.36-1.22,7.23-4.44,2-3.39-.84-8.2.8-9.9,1.94-2,6.45,4.07,10.18,1.71,1.66-1.06,1.29-2.59,3.21-4.1,3.2-2.52,8.3-1.51,9.37,1.36.74,2-1.14,3-1.34,7.17-.21,4.82,2.15,6.27,1.88,11.61-.14,2.7-.89,5.16-1.07,5.12s-.23-8.35,2.94-16c1.3-3.14,2.52-6,4.82-6.83,2.67-1,3.89,1.83,8.3,3.41,6.65,2.39,11.56-1.17,12.59,1.37.9,2.21-2.46,5.86-1.34,7.85.87,1.54,3.37.2,4,1.71s-1,3.95-1.88,5.12a10.07,10.07,0,0,1-3.75,2.76,14.33,14.33,0,0,1-1.6.65c-4,1.3-9.45-1.59-9.64-1-.13.38,2,2.55,5.35,3.75,3.55,1.29,5.15.28,7.77.68,6.68,1,12.33,10.06,11.25,13.32-.82,2.46-5.49,1.64-6.16,4.78-.31,1.42.48,2.38,0,3.07-1,1.4-4.35-2.35-7-.68-1.34.85-1,2.17-2.41,3.41a5.5,5.5,0,0,1-7.76-1c-2.26-2.7-2.07-7.8-1.88-7.86s3.5,10.55.81,13.66c-2,2.26-6.32-.22-7.23,2-.42,1,.38,1.76,0,3.07-.69,2.32-4.3,3.71-7,2.39-2.29-1.13-1.93-3.27-4.29-4.78-3.09-2-5.35.65-7-1-2.74-2.86.57-13.9.27-14s-1.21,7.9-4.29,8.88c-1.19.37-1.66-.64-4.28-.69s-3.12,1-4,.34c-2-1.46-.28-7-2.68-9.21-1-1-1.82-.34-2.41-1.37-1.18-2.06,1.49-5.41.54-7.51-1.13-2.47-6.13-.55-6.43-1.7s3.35-4.27,8-6.15C1088.77,619.47,1100,626.53,1100.09,626Z"/><path class="cls-12" d="M1092.33,641.69s1.6-8.88,6.42-11.61"/><path class="cls-12" d="M1116.69,640.32s-.53-3.75-5.89-7.16"/><path class="cls-12" d="M1080,608.92s7,2.39,8.57,4.78"/><path class="cls-12" d="M1119.84,602.67a7.82,7.82,0,0,0-3.95,4.54"/><path class="cls-12" d="M1130.35,611.65a7.27,7.27,0,0,1-4.49,2.05"/><path class="cls-12" d="M1129,645.1s.81-7.06-12.32-15.48"/><path class="cls-13" d="M1098.75,649s5.36-1.8,2.68-16.82"/><path class="cls-12" d="M1074.65,638.62s5.16-3.42,7.4-7.85,10.28-2.86,10.28-2.86"/><path class="cls-13" d="M1103.77,629.06s4.89,6.14,5.43,5.8"/><path class="cls-13" d="M1105,627.64s6.9-3.7,8.78,2.44"/><path class="cls-13" d="M1113.75,622.54c-4.29-4.47-9.91,4.47-9.91,4.47s.39-12,3.27-13.31"/><path class="cls-13" d="M1101.7,626.34s-3,.67-2-10.94"/><path class="cls-13" d="M1102.07,627.92s-7.87,1.48-8.14,4.55"/><path class="cls-13" d="M1102.18,628.6s-1.7,12.41,3.19,13.09"/><path class="cls-13" d="M1103.25,626.35s-2.92-.34-2.64-5.47"/><path class="cls-13" d="M1103,629.85s1.46.45,1.53,4.27"/><path class="cls-13" d="M1098.75,627.64s-5-10.83-11.46-7.78"/><path class="cls-13" d="M1105.56,629.4s4.46,7.67.22,11.45"/><ellipse cx="1114.95" cy="622.4" rx="1.07" ry="1.37"/><ellipse cx="1113.92" cy="630.08" rx="1.03" ry="1.19"/><ellipse cx="1107.27" cy="613.56" rx="1.03" ry="1.19"/><ellipse cx="1100.58" cy="620.38" rx="1.03" ry="1.19"/><ellipse cx="1099.51" cy="613.56" rx="1.03" ry="1.19"/><ellipse cx="1104.59" cy="634.04" rx="1.03" ry="1.19"/><ellipse cx="1105.67" cy="641.55" rx="1.03" ry="1.19"/><ellipse cx="1098.44" cy="649.06" rx="1.03" ry="1.19"/><ellipse cx="1093.08" cy="631.31" rx="1.03" ry="1.19"/><ellipse cx="1087.19" cy="620.38" rx="1.03" ry="1.19"/><path class="cls-14" d="M1089.89,602.62c.07,0,.14.1.2.12s-.31-.28-.15-.12l.14.12a7.65,7.65,0,0,1,.62.65c.12.13.23.26.34.4l.15.19s.28.34.12.14,0,.08.09.12l.18.25.4.57c.51.72,1,1.47,1.44,2.23.21.37.42.75.61,1.13.09.17.17.34.25.51l.09.2c.08.17-.12-.32-.06-.15a1.12,1.12,0,0,0,0,.13c.11.29.18.59.27.89,0,0,0-.46,0-.18,0,.08,0,.29,0,0s-.09.15.06-.23c0-.06.33-.45.22-.35a1.5,1.5,0,0,0,0,2.12,1.55,1.55,0,0,0,2.12,0,2.37,2.37,0,0,0,.43-2.45,11.55,11.55,0,0,0-1.06-2.42,29.52,29.52,0,0,0-3.32-4.9,5,5,0,0,0-1.66-1.52,1.53,1.53,0,0,0-2.05.54,1.51,1.51,0,0,0,.54,2Z"/><path class="cls-14" d="M1109.84,634c1.19,1.16,2.49,2.17,3.6,3.4.16.19.32.37.47.56s.27.36,0,0c.07.11.15.21.23.32a10.23,10.23,0,0,1,.71,1.2c.18.35-.06-.21,0,.07,0,.1.07.19.1.29s.1.42.16.63,0,.06,0-.16a1.34,1.34,0,0,1,0,.2,2.81,2.81,0,0,1,0,.29,1.52,1.52,0,0,0,0,.29c0-.23,0-.27,0-.1a1.33,1.33,0,0,1,0,.19,1.5,1.5,0,1,0,2.9.8c.59-2.41-.66-4.62-2.17-6.41-1.18-1.38-2.6-2.48-3.9-3.74a1.5,1.5,0,0,0-2.12,2.12Z"/><path class="cls-14" d="M1111.63,654.39c-.07-.15-.14-.29-.2-.44-.17-.36.06.17,0-.05l-.09-.24c-.14-.37-.27-.74-.39-1.12a25.13,25.13,0,0,1-.63-2.45q-.12-.6-.21-1.2s-.06-.42,0-.25,0-.15,0-.18l-.06-.58a14.67,14.67,0,0,1,0-2.39,1.52,1.52,0,0,0-1.5-1.5,1.54,1.54,0,0,0-1.5,1.5,19.13,19.13,0,0,0,.46,5.39,21.08,21.08,0,0,0,1.64,5,1.51,1.51,0,0,0,2,.54,1.53,1.53,0,0,0,.54-2.05Z"/><path class="cls-14" d="M1117.79,602.44a36.34,36.34,0,0,0-8,10.92,1.53,1.53,0,0,0,.53,2,1.52,1.52,0,0,0,2.06-.53,33.71,33.71,0,0,1,7.52-10.32,1.51,1.51,0,0,0,0-2.12,1.53,1.53,0,0,0-2.12,0Z"/><path class="cls-14" d="M1129.23,610.67a16.67,16.67,0,0,1-4.9,3c-1.7.77-3.45,1.41-5.21,2-1.36.47-.78,2.64.6,2.17,1.94-.67,3.87-1.39,5.74-2.24a17.89,17.89,0,0,0,5.36-3.36,1.12,1.12,0,0,0-1.59-1.59Z"/><path class="cls-14" d="M1101.69,617.1a11.54,11.54,0,0,0-.41,1.94,1.49,1.49,0,0,0,.75,1.36,1.53,1.53,0,0,0,1.82-.23,1.56,1.56,0,0,0,.25-.34c.11-.22.18-.45.27-.68l-.15.36,0,0a1.11,1.11,0,0,0,.17-.56,1.08,1.08,0,0,0,0-.59,1.14,1.14,0,0,0-.27-.51,1.12,1.12,0,0,0-.42-.39l-.36-.15a1.55,1.55,0,0,0-.8,0l-.36.15a1.45,1.45,0,0,0-.53.54,2.21,2.21,0,0,0-.18.42.3.3,0,0,0,0,.1c0,.06,0,.13-.08.2l.15-.36s0,0,0,0l.24-.3h0l.3-.24h0l.75-.2h0l.76.2h0l.54.54h0l.15.36h0l0,.4a.28.28,0,0,1,0-.09l-.06.4a9.76,9.76,0,0,1,.36-1.51,1.73,1.73,0,0,0-.16-1.16,1.18,1.18,0,0,0-.38-.42,1.26,1.26,0,0,0-.51-.27l-.4,0a1.57,1.57,0,0,0-.76.2l-.3.24a1.39,1.39,0,0,0-.39.66Z"/><path class="cls-14" d="M1102.07,615.89a12.93,12.93,0,0,0-.36,1.75c-.12.75-.21,1.51-.26,2.27a1.5,1.5,0,0,0,.44,1.06,1.52,1.52,0,0,0,1.06.44,1.54,1.54,0,0,0,1.5-1.5c0-.49.08-1,.15-1.46l-.06.4a15.56,15.56,0,0,1,.42-2.16,1.51,1.51,0,0,0-1-1.85,1.54,1.54,0,0,0-1.85,1Z"/><path class="cls-14" d="M1101.83,616.77c0,1.45-.17,2.9-.19,4.35a1.5,1.5,0,1,0,3,0c0-1.45.18-2.9.19-4.35a1.5,1.5,0,0,0-3,0Z"/><path class="cls-14" d="M1101.88,619.27a22.8,22.8,0,0,0-.43,5.47,1.5,1.5,0,0,0,3,0,21.53,21.53,0,0,1,.19-3.93l-.05.4c.05-.38.11-.76.19-1.14a1.62,1.62,0,0,0-.16-1.16,1.5,1.5,0,0,0-.89-.69,1.53,1.53,0,0,0-1.85,1Z"/><path class="cls-14" d="M1105.11,630.63a26,26,0,0,0,3.32,2.47c.26.17.52.35.77.54,0,0,.25.2.06,0s0,0,.07.05l.38.33a7.67,7.67,0,0,1,.71.69l.32.37c.22.26-.19-.27,0,0l.18.25a1.54,1.54,0,0,0,2,.54,1.52,1.52,0,0,0,.54-2,12.52,12.52,0,0,0-3.35-3.22c-.53-.37-1.07-.71-1.59-1.07l-.37-.26-.22-.16c-.26-.2.27.22,0,0s-.52-.44-.77-.68a1.5,1.5,0,0,0-2.12,2.13Z"/><path class="cls-18" d="M888.94,741.5c.19-.71-14.19-11.7-30.44-8.46-5.28,1.05-10.21,3.5-13.43.5-2.47-2.29-3.45-7.31-1.79-10.45,2.46-4.68,9-1.78,12.08-6.47,3.3-5-1.4-12,1.35-14.43,3.24-2.93,10.77,5.93,17,2.49,2.77-1.54,2.15-3.77,5.37-6,5.34-3.66,13.88-2.19,15.67,2,1.24,2.9-1.92,4.34-2.24,10.46-.37,7,3.59,9.12,3.13,16.92-.23,3.92-1.48,7.52-1.79,7.46-.54-.11-.38-12.17,4.93-23.39,2.16-4.57,4.2-8.74,8.06-9.95,4.45-1.41,6.49,2.66,13.87,5,11.12,3.48,19.33-1.71,21,2,1.5,3.23-4.11,8.55-2.23,11.45,1.45,2.25,5.63.29,6.71,2.49,1,2-1.6,5.76-3.13,7.46a17,17,0,0,1-6.27,4,25.73,25.73,0,0,1-2.69.95c-6.69,1.9-15.79-2.33-16.11-1.49-.22.56,3.43,3.72,9,5.47,5.92,1.87,8.61.41,13,1,11.18,1.5,20.62,14.66,18.81,19.4-1.37,3.59-9.17,2.4-10.3,7-.51,2.07.81,3.47,0,4.48-1.64,2-7.27-3.42-11.64-1-2.25,1.25-1.6,3.16-4,5a10.13,10.13,0,0,1-13-1.49c-3.77-3.93-3.47-11.37-3.14-11.45.5-.11,5.84,15.37,1.35,19.91-3.26,3.29-10.56-.33-12.09,3-.69,1.5.65,2.58,0,4.48-1.14,3.38-7.18,5.41-11.64,3.49-3.81-1.64-3.22-4.77-7.16-7-5.18-2.9-8.95,1-11.64-1.49-4.58-4.16,1-20.26.45-20.41s-2,11.52-7.17,12.94c-2,.55-2.77-.92-7.16-1s-5.22,1.45-6.71.49c-3.34-2.12-.47-10.17-4.48-13.43-1.75-1.43-3-.49-4-2-2-3,2.49-7.9.9-10.95-1.89-3.61-10.26-.8-10.75-2.49-.44-1.51,5.61-6.21,13.43-9C870,732,888.73,742.3,888.94,741.5Z"/><path class="cls-12" d="M876,764.39s2.68-12.94,10.74-16.92"/><path class="cls-12" d="M916.69,762.4s-.89-5.47-9.84-10.45"/><path class="cls-12" d="M855.36,716.62s11.64,3.48,14.33,7"/><path class="cls-12" d="M922,707.51s-5.27,2.14-6.61,6.62"/><path class="cls-12" d="M939.53,720.6a12.86,12.86,0,0,1-7.52,3"/><path class="cls-12" d="M937.29,769.37s1.34-10.3-20.6-22.57"/><path class="cls-13" d="M886.7,775s8.95-2.62,4.48-24.52"/><path class="cls-12" d="M846.41,759.91s8.62-5,12.37-11.44S876,744.31,876,744.31"/><path class="cls-13" d="M895.08,746s8.18,9,9.08,8.46"/><path class="cls-13" d="M897.1,743.91s11.54-5.39,14.67,3.56"/><path class="cls-13" d="M911.77,736.48C904.61,730,895.21,743,895.21,743s.65-17.41,5.47-19.4"/><path class="cls-13" d="M891.62,742s-5.06,1-3.42-15.95"/><path class="cls-13" d="M892.25,744.31s-13.16,2.17-13.61,6.65"/><path class="cls-13" d="M892.43,745.31s-2.84,18.09,5.34,19.08"/><path class="cls-13" d="M894.22,742s-4.88-.5-4.41-8"/><path class="cls-13" d="M893.86,747.14s2.44.66,2.57,6.22"/><path class="cls-13" d="M886.7,743.91s-8.34-15.78-19.17-11.34"/><path class="cls-13" d="M898.09,746.48s7.44,11.18.36,16.69"/><ellipse cx="913.78" cy="736.28" rx="1.79" ry="1.99"/><ellipse cx="912.06" cy="747.47" rx="1.72" ry="1.74"/><ellipse cx="900.94" cy="723.38" rx="1.72" ry="1.74"/><ellipse cx="889.75" cy="733.33" rx="1.72" ry="1.74"/><ellipse cx="887.96" cy="723.38" rx="1.72" ry="1.74"/><ellipse cx="896.47" cy="753.24" rx="1.72" ry="1.74"/><ellipse cx="898.26" cy="764.19" rx="1.72" ry="1.74"/><ellipse cx="877.22" cy="749.26" rx="1.72" ry="1.74"/><ellipse cx="867.37" cy="733.33" rx="1.72" ry="1.74"/><path class="cls-14" d="M872.75,707c.18.07-.37-.22-.16-.06a1,1,0,0,0,.18.1l.21.15c.29.18-.15-.15,0,0,.33.31.68.6,1,.92a34.71,34.71,0,0,1,2.42,2.73c.11.14.23.28.34.43l.12.16c.15.19-.12-.16,0,0l.63.84c.4.55.79,1.1,1.17,1.67a23.93,23.93,0,0,1,1.75,3l.06.13c.15.29-.09-.22,0-.05a3,3,0,0,1,.12.32c.07.2.1.42.18.61s0-.41,0-.09a1.47,1.47,0,0,0,0,.21c-.1-.07.13-.48.13-.48l0,.06c.18-.28.14-.21.4-.4a1.54,1.54,0,0,0-.54,2.05,1.51,1.51,0,0,0,2,.54c2.21-1.59.18-4.76-.86-6.45a42.16,42.16,0,0,0-5.49-7.13,8.15,8.15,0,0,0-2.87-2.18,1.5,1.5,0,0,0-.79,2.89Z"/><path class="cls-14" d="M906,752.7c.45.39.93.75,1.4,1.11l.69.53.22.17.33.26a41.06,41.06,0,0,1,3.4,2.91A12.75,12.75,0,0,1,914.6,761a5.69,5.69,0,0,1,.55,1.55c0,.18,0,.17,0,0,0,.09,0,.17,0,.26s0,.26,0,.38-.08.61,0,.25c0,.18-.07.35-.12.52a1.5,1.5,0,0,0,2.89.8c.94-3.33-1.18-6.42-3.39-8.7a36.44,36.44,0,0,0-3.62-3.18c-.59-.47-1.19-.93-1.79-1.39l-.16-.12-.34-.27c-.2-.15-.39-.31-.58-.47a1.55,1.55,0,0,0-2.12,0,1.51,1.51,0,0,0,0,2.12Z"/><path class="cls-14" d="M907.35,783.25a24.88,24.88,0,0,1-2.33-6.43,21.6,21.6,0,0,1-.63-6.88,1.5,1.5,0,0,0-1.5-1.5,1.54,1.54,0,0,0-1.5,1.5,24.52,24.52,0,0,0,.73,7.67,28.53,28.53,0,0,0,2.64,7.16c.94,1.69,3.53.17,2.59-1.52Z"/><path class="cls-14" d="M919.24,707.66A54,54,0,0,0,906,723.44a1.5,1.5,0,0,0,2.59,1.52,51.75,51.75,0,0,1,12.74-15.18,1.51,1.51,0,0,0,0-2.12,1.54,1.54,0,0,0-2.12,0Z"/><path class="cls-14" d="M938.18,719.54a28.65,28.65,0,0,1-8.32,4.45c-2.92,1.14-5.91,2.1-8.91,3a1.13,1.13,0,0,0,.6,2.17c3.17-.95,6.33-2,9.4-3.2a30.44,30.44,0,0,0,8.82-4.83c1.1-1-.5-2.54-1.59-1.59Z"/><path class="cls-14" d="M892.59,728.73a14.77,14.77,0,0,0-.59,2.14,2.07,2.07,0,0,0,0,1,1.5,1.5,0,0,0,2.52.67,2.94,2.94,0,0,0,.54-1l-.15.36a1.63,1.63,0,0,1,.11-.23,1.12,1.12,0,0,0,.18-.56,1.08,1.08,0,0,0,0-.59,1,1,0,0,0-.27-.51,1,1,0,0,0-.42-.39,1.49,1.49,0,0,0-1.15-.15l-.36.15a1.47,1.47,0,0,0-.54.54l-.09.18-.24.58.15-.36a.61.61,0,0,1-.09.18l.24-.31h0l.3-.23h0l.76-.21h0l.75.21h0l.54.53h0l.15.36h0l0,.4a.28.28,0,0,1,0-.09l-.06.4a8.56,8.56,0,0,1,.25-1.09c.1-.39.22-.77.35-1.16a1.18,1.18,0,0,0,0-.59,1.12,1.12,0,0,0-.18-.56,1.06,1.06,0,0,0-.39-.42,1.14,1.14,0,0,0-.51-.27,1.49,1.49,0,0,0-1.15.15l-.31.24a1.45,1.45,0,0,0-.38.66Z"/><path class="cls-14" d="M893.22,727a17.07,17.07,0,0,0-.61,2.54,30.4,30.4,0,0,0-.39,3.13,1.5,1.5,0,0,0,1.5,1.5,1.53,1.53,0,0,0,1.5-1.5c0-.53.09-1.06.16-1.59l0,.4a19.91,19.91,0,0,1,.78-3.68,1.52,1.52,0,0,0-1-1.85,1.53,1.53,0,0,0-1.85,1.05Z"/><path class="cls-14" d="M892.85,728.07c0,2.12-.28,4.22-.32,6.33a1.5,1.5,0,0,0,3,0c0-2.11.3-4.21.32-6.33a1.51,1.51,0,0,0-1.5-1.5,1.53,1.53,0,0,0-1.5,1.5Z"/><path class="cls-14" d="M892.9,731.89a28,28,0,0,0-.68,7.79,1.5,1.5,0,1,0,3,0,23.91,23.91,0,0,1,.07-3.69c0-.32.06-.63.1-.94,0-.07.07-.62,0-.22,0-.14,0-.28.07-.42.08-.57.19-1.15.32-1.72a1.5,1.5,0,0,0-2.9-.8Z"/><path class="cls-14" d="M898,747.78a39.07,39.07,0,0,0,5.4,3.52,15.47,15.47,0,0,1,4.72,3.87,1.53,1.53,0,0,0,2.13,0,1.56,1.56,0,0,0,0-2.13,18.39,18.39,0,0,0-5.07-4.17c-.86-.51-1.74-1-2.59-1.52-.45-.26-.89-.54-1.32-.83a13.76,13.76,0,0,1-1.15-.86,1.54,1.54,0,0,0-2.12,0,1.5,1.5,0,0,0,0,2.12Z"/><path class="cls-19" d="M-24.41,639.7C136.9,602.35,206,626.1,238.1,658.94c29.42,30.09,23,62.83,60.76,83.37,59.09,32.12,126.48-19.86,167.37,11.76,23.27,18,31.46,55.76,21.78,81.24C448.29,939.74,51.5,988.21-38.17,837.44-46.82,822.89-81,758.74-24.41,639.7Z"/><path class="cls-20" d="M33.68,680.49C66.74,646.13,128.5,633.49,167,656c13.72,8,32.49,25.18,46,41,7.17,8.4,16.33,20.47,32,31,12,8.08,18,11,18,11,12.74,6.23,18.7,6.13,21,11,4,8.37-7.64,21.46-9,23-14.85,16.76-45.6,27.65-65,16-18.75-11.26-12-34.62-31-43-15.63-6.89-27.61,5.61-40-3-13-9-6.17-27.21-16-32-13.54-6.6-30.51,25.9-68.87,33.49-3.75.75-34,6.43-42.94-7C2.08,723.83,18.77,696,33.68,680.49Z"/><path class="cls-20" d="M44.33,773c58.33,8.59,86.93-13.5,106.67,5,20,18.71,26.17,31.28,26.17,31.28,1.34,2.71,2.41,5.31,5.21,7.63,9.9,8.21,27.74,1.69,37.62-1.91,60.72-22.11,75.53-26.35,89-29,35.22-6.94,46.88-.2,52,4,9.06,7.42,6.86,14.4,14,18,20.72,10.45,52.7-41.61,78-33,16.65,5.67,25.15,35.81,17,45-7.79,8.78-28.34-4.32-37,5-9.3,10,9.63,30.34,2.9,42-12.11,21-83.69-23.94-171.76-14-59.46,6.71-73.82,37.09-109.39,24-38.41-14.14-34.71-54.36-72.59-66C37.53,797.28-1,842.83-19,827-32,815.58-26,779.53-6.78,768,5.46,760.65,14.9,768.67,44.33,773Z"/></g></svg>
