<svg xmlns="http://www.w3.org/2000/svg" xmlns:xlink="http://www.w3.org/1999/xlink" viewBox="0 0 1366 768"><defs><style>.cls-1{fill:url(#linear-gradient);}.cls-2{fill:#aa0b22;}.cls-3{fill:#af0e2d;}.cls-4,.cls-7{opacity:0.83;}.cls-4{fill:url(#linear-gradient-2);}.cls-5{fill:#256329;}.cls-6{fill:#216d21;}.cls-7{fill:url(#linear-gradient-3);}.cls-8{fill:#f4aa4a;}.cls-8,.cls-9{opacity:0.88;}.cls-9{fill:#e58e38;}.cls-10,.cls-11,.cls-12,.cls-13{fill:#dd8cc8;}.cls-10{opacity:0.8;}.cls-11{opacity:0.89;}.cls-12{opacity:0.86;}.cls-13{opacity:0.72;}.cls-14{fill:#001300;}</style><linearGradient id="linear-gradient" x1="684.6" y1="715.24" x2="679.98" y2="-232.72" gradientUnits="userSpaceOnUse"><stop offset="0.07" stop-color="#e09c85"/><stop offset="0.19" stop-color="#a18b9e"/><stop offset="0.32" stop-color="#677bb5"/><stop offset="0.38" stop-color="#5075be"/><stop offset="0.47" stop-color="#4d74bd"/><stop offset="0.51" stop-color="#4973bb"/><stop offset="0.56" stop-color="#3b6fb4"/><stop offset="0.75" stop-color="#0c5f9d"/><stop offset="0.92" stop-color="#005b97"/></linearGradient><linearGradient id="linear-gradient-2" x1="461" y1="681.88" x2="1507.85" y2="681.88" gradientUnits="userSpaceOnUse"><stop offset="0" stop-color="#666"/><stop offset="0" stop-color="#77807f"/><stop offset="0.09" stop-color="#617c72"/><stop offset="0.27" stop-color="#3e755d"/><stop offset="0.44" stop-color="#236f4c"/><stop offset="0.62" stop-color="#106b40"/><stop offset="0.8" stop-color="#046939"/><stop offset="0.99" stop-color="#006837"/></linearGradient><linearGradient id="linear-gradient-3" x1="1046.89" y1="743.83" x2="2006.43" y2="743.83" gradientTransform="translate(1742.2 610.84) rotate(172.58)" xlink:href="#linear-gradient-2"/></defs><g id="baggrund"><rect class="cls-1" x="0.5" y="0.5" width="1365" height="772"/><path d="M1365,1V772H1V1H1365m1-1H0V773H1366V0Z"/></g><g id="Layer_2" data-name="Layer 2"><ellipse class="cls-2" cx="674" cy="325" rx="160" ry="156"/><ellipse class="cls-3" cx="661.61" cy="310.91" rx="132.13" ry="128.83"/></g><g id="Layer_3" data-name="Layer 3"><path class="cls-4" d="M1462.3,507.54c-55.13-31.7-177.13,14.73-186.46,52.05-.75,3-2.14,11.42-9.5,18.43-13.32,12.71-41,15.86-53.45,5.43-14.74-12.39-.05-37.29-9.5-42.3-14.93-7.91-47.24,56.59-108.07,66.15-42.29,6.65-60.83-19.14-85.52-6.5-37.9,19.41-11.62,89.13-43.94,108.44-29.42,17.57-66.07-54.47-137.77-52-33.38,1.12-75.68,17.64-105.7,42.29-21.33,17.51-23.24,28.27-41.57,33.61-28.23,8.25-40.78-12.3-92.64-20.6-20.95-3.35-60.69-6.69-97.39,10.85-5.27,2.52-31.63,15.11-29.69,27.11,1.45,8.95,18,13.58,23.76,15.18,815.18,227.57,977.44,0,977.44,0C1524.29,678.7,1521.75,541.72,1462.3,507.54Z"/><path class="cls-5" d="M1356.5,550.5c-46.55,20.88-46.32,43.76-82,48-13.31,1.58-44,2.12-78.11-6.52l-1.89-.48c-84.34,50.26-130.87,49.74-158,39-7.67-3-22-10.14-30-4-15.55,12,18.9,54.59,5,89-18.36,45.44-117.61,68.11-162,32-28-22.74-19.7-57-42-64-29-9.07-43.67,49-107,68C631.75,772.17,546.13,734.71,536.18,725a8.43,8.43,0,0,0-4.68-2.54c-9.39-1.32-23.87,15.11-23,25,2.32,26.49,120.44,69.2,201,27,24.27-12.71,40-30.43,66-27,24.15,3.18,33.25,21.42,58,41,26.69,21.11,77.26,48.27,116,41,62-11.64,49.67-103.28,133-151,36.78-21.06,74.45-23.41,132-27,80.94-5,98.08,13.42,142-3,62.79-23.48,105.87-90.43,94-109C1440.67,524.12,1389.26,535.8,1356.5,550.5Z"/><path class="cls-6" d="M824,682c3.15,11.76,11.23,35.11,32,52.39,31,25.79,77.68,27.57,83,15,5.83-13.84-34-54.79-80-65.22A110.39,110.39,0,0,0,824,682Z"/><path class="cls-6" d="M1366,674c-2.94-19-185.19,5.94-235.31,15a104.56,104.56,0,0,0-31.58,11c-34.17,18.53-55.56,55.66-48.9,62.94,7.22,7.91,38.21-29.38,102.89-45,55-13.23,73.07,3.93,136.5-11C1319.43,700,1367.53,683.9,1366,674Z"/><path class="cls-6" d="M1362,693c-98,32.19-138.9,80.76-179,68-5.49-1.75-27.38-9.86-43,0-2.14,1.35-6,3.79-6,7,0,9,30.21,19.22,56,21,50.22,3.46,61.67-26.58,111-24,26.89,1.41,27.17,10.53,58,11,34.83.53,71.55-10.55,72-22,.52-13.13-47-17.28-48-34-1.2-20.43,68.39-38.24,67-43C1449,673.62,1412.14,676.53,1362,693Z"/><path class="cls-7" d="M-284.16,265c53.39,18.54,159.49-32.64,164.12-63.26.37-2.46.77-9.29,6.73-15.71,10.8-11.63,35.66-17.41,48-10.62,14.68,8.05,3.89,29.49,13,32.33,14.39,4.49,37.1-50.36,91.41-65.13,37.75-10.27,57.26,7.94,78.4-5,32.45-19.84,1.37-71.89,28.76-91C171.21,29.29,212,81.93,276.87,71.53c30.22-4.84,67-22.92,91.71-46C386.16,9.18,386.79.44,402.9-6c24.81-9.86,38.33,4.9,86.32,5.33,19.4.17,55.86-1.9,87.41-20.11,4.53-2.62,27.19-15.71,24.19-25-2.24-6.91-17.78-8.61-23.16-9.19C-186.74-138.38-310.76,60.86-310.76,60.86-358.14,137-341.72,245-284.16,265Z"/><path class="cls-5" d="M-192.42,218.51c40.16-22,37.59-40.1,69.59-47.68,11.93-2.83,39.75-6.89,71.66-4.1l1.77.16c71.48-49.75,113.82-54.84,139.59-49.57,7.28,1.5,21.07,5.42,27.68-.38,12.9-11.33-22.8-40.95-13.72-69.82,12-38.12,99.88-67.8,144-44.5,27.75,14.68,23.78,42.79,44.77,45.66,27.34,3.73,34.64-43.9,90.25-66.47,60.35-24.49,142-5,152.08,1.47a8,8,0,0,0,4.51,1.46c8.67-.07,20.14-14.78,18.33-22.5-4.84-20.68-116.6-40.48-185.48,2.44-20.74,12.93-33.19,28.81-57.2,29.18-22.28.34-32.43-13-56.94-25.57C232-45.24,183.21-60.74,148.75-50.4,93.59-33.85,114.26,37.18,43.43,84.8c-31.25,21-65.25,27.34-117.19,37-73,13.58-90.53,1-128.76,19.19-54.65,26-86.9,84.08-74.2,97.36C-266.21,249.35-220.68,234-192.42,218.51Z"/><path class="cls-6" d="M278,51.39C274,42.47,264.2,25,243.54,13.74c-30.84-16.73-73.45-12.61-77-2C162.68,23.36,203.09,51,246,53.84A115.4,115.4,0,0,0,278,51.39Z"/><path class="cls-6" d="M-213.78,121.94c4.63,14.69,167.71-26.63,212.33-39.72A105.76,105.76,0,0,0,26.12,69.78c29.15-18.7,44.76-50.6,38-55.58C56.7,8.81,32.38,42-24.8,62c-48.58,17-66.82,5.55-122.94,24.86C-174.13,95.89-216.19,114.28-213.78,121.94Z"/></g><g id="blomster"><path class="cls-8" d="M1141.24,708.15c9.13.87,25.8-1.15,23.68,21.29-2.29,24.16-19.54,32.2-28.67,31.33S1122,734.52,1123,724.58,1132.1,707.28,1141.24,708.15Z"/><path class="cls-9" d="M1179.52,727.08c4.81,6,16.21,14.36-1.32,28.53-18.88,15.25-35,10.66-39.79,4.7s10.56-26.38,18.33-32.65S1174.7,721.12,1179.52,727.08Z"/><path class="cls-8" d="M1183,775.41c-2.21,6.65-3.18,19.52-22,13.28-20.21-6.71-24.28-21.26-22.07-27.91s24.65-5.18,33-2.41S1185.2,768.76,1183,775.41Z"/><path class="cls-8" d="M1124,799.35c-6-2.38-17.84-3.76-10.68-21.83,7.72-19.46,21.5-22.93,27.5-20.55s3,24.19-.21,32.19S1130,801.73,1124,799.35Z"/><path class="cls-9" d="M1094.47,752.91c1-6.77-.45-19.34,19.47-16.47,21.44,3.08,28.21,16.42,27.24,23.19s-23.68,9.12-32.5,7.85S1093.49,759.69,1094.47,752.91Z"/><path class="cls-10" d="M1113.2,766.94c-1.62-4.91,1.63-10.4,7.26-12.26s17.22-1.27,18.85,3.64-7.34,12.29-13,14.15S1114.83,771.85,1113.2,766.94Z"/><path class="cls-11" d="M1170.66,761.19c-.39,5.16-5.5,9-11.42,8.53s-16.38-5.46-16-10.62,11.5-8.52,17.41-8.07S1171.06,756,1170.66,761.19Z"/><path class="cls-12" d="M1145.84,783.66c-4.51.92-9-2.33-10-7.25s.82-14.63,5.33-15.55,10,7.32,11,12.24S1150.35,782.74,1145.84,783.66Z"/><path class="cls-12" d="M1125.67,737.7c3.73-2.69,9.14-1.56,12.06,2.52s5.24,13.69,1.51,16.37-12.11-2.58-15-6.65S1121.93,740.38,1125.67,737.7Z"/><path class="cls-13" d="M1149,733.06c4.38,1.4,6.7,6.41,5.17,11.19s-7.86,12.38-12.24,11-5.15-11.26-3.63-16S1144.61,731.67,1149,733.06Z"/><ellipse class="cls-14" cx="1141.9" cy="756" rx="10.1" ry="7"/><path class="cls-8" d="M851.84,635.8c9.14.87,25.81-1.14,23.68,21.3-2.29,24.15-19.53,32.19-28.67,31.33s-14.2-26.26-13.26-36.2S842.7,634.94,851.84,635.8Z"/><path class="cls-9" d="M890.13,654.74c4.81,6,16.2,14.36-1.33,28.52-18.87,15.26-35,10.66-39.78,4.7s10.56-26.37,18.33-32.65S885.31,648.78,890.13,654.74Z"/><path class="cls-8" d="M893.59,703.06c-2.21,6.65-3.18,19.53-22,13.29-20.2-6.72-24.27-21.27-22.06-27.92s24.65-5.17,33-2.41S895.8,696.41,893.59,703.06Z"/><path class="cls-8" d="M834.64,727c-6-2.38-17.85-3.76-10.68-21.84,7.72-19.45,21.5-22.93,27.49-20.55s3,24.19-.2,32.2S840.64,729.38,834.64,727Z"/><path class="cls-9" d="M805.07,680.57c1-6.78-.44-19.34,19.48-16.48,21.44,3.09,28.21,16.42,27.23,23.2s-23.67,9.12-32.5,7.85S804.1,687.34,805.07,680.57Z"/><path class="cls-10" d="M823.81,694.6c-1.62-4.92,1.63-10.41,7.26-12.27s17.22-1.27,18.84,3.65-7.33,12.29-13,14.15S825.43,699.51,823.81,694.6Z"/><path class="cls-11" d="M881.27,688.85c-.39,5.16-5.51,9-11.42,8.52s-16.38-5.46-16-10.62,11.51-8.51,17.42-8.06S881.67,683.69,881.27,688.85Z"/><path class="cls-12" d="M856.44,711.31c-4.5.92-9-2.32-10-7.24s.83-14.64,5.34-15.55,10,7.31,11,12.23S861,710.4,856.44,711.31Z"/><path class="cls-12" d="M836.28,665.35c3.73-2.68,9.13-1.55,12.06,2.53s5.24,13.69,1.5,16.37-12.1-2.58-15-6.66S832.54,668,836.28,665.35Z"/><path class="cls-13" d="M859.59,660.72c4.39,1.4,6.7,6.41,5.18,11.19s-7.86,12.37-12.25,11-5.15-11.25-3.62-16S855.21,659.32,859.59,660.72Z"/><ellipse class="cls-14" cx="852.51" cy="683.65" rx="10.1" ry="7"/><path class="cls-8" d="M1334.84,556.8c9.14.87,25.81-1.14,23.68,21.3-2.29,24.15-19.53,32.19-28.67,31.33s-14.2-26.26-13.26-36.2S1325.7,555.94,1334.84,556.8Z"/><path class="cls-9" d="M1373.13,575.74c4.81,6,16.2,14.36-1.33,28.52-18.87,15.26-35,10.66-39.78,4.7s10.56-26.37,18.33-32.65S1368.31,569.78,1373.13,575.74Z"/><path class="cls-8" d="M1376.59,624.06c-2.21,6.65-3.18,19.53-21.95,13.29-20.2-6.72-24.27-21.27-22.06-27.92s24.65-5.17,33-2.41S1378.8,617.41,1376.59,624.06Z"/><path class="cls-8" d="M1317.64,648c-6-2.38-17.85-3.76-10.68-21.84,7.72-19.45,21.5-22.93,27.49-20.55s3,24.19-.2,32.2S1323.64,650.38,1317.64,648Z"/><path class="cls-9" d="M1288.07,601.57c1-6.78-.44-19.34,19.48-16.48,21.44,3.09,28.21,16.42,27.23,23.2s-23.67,9.12-32.5,7.85S1287.1,608.34,1288.07,601.57Z"/><path class="cls-10" d="M1306.81,615.6c-1.62-4.92,1.63-10.41,7.26-12.27s17.22-1.27,18.84,3.65-7.33,12.29-13,14.15S1308.43,620.51,1306.81,615.6Z"/><path class="cls-11" d="M1364.27,609.85c-.39,5.16-5.51,9-11.42,8.52s-16.38-5.46-16-10.62,11.51-8.51,17.42-8.06S1364.67,604.69,1364.27,609.85Z"/><path class="cls-12" d="M1339.44,632.31c-4.5.92-9-2.32-10-7.24s.83-14.64,5.34-15.55,10,7.31,11,12.23S1344,631.4,1339.44,632.31Z"/><path class="cls-12" d="M1319.28,586.35c3.73-2.68,9.13-1.55,12.06,2.53s5.24,13.69,1.5,16.37-12.1-2.58-15-6.66S1315.54,589,1319.28,586.35Z"/><path class="cls-13" d="M1342.59,581.72c4.39,1.4,6.7,6.41,5.18,11.19s-7.86,12.37-12.25,11-5.15-11.25-3.62-16S1338.21,580.32,1342.59,581.72Z"/><ellipse class="cls-14" cx="1335.51" cy="604.65" rx="10.1" ry="7"/><path class="cls-8" d="M64.53,87.44c9.14.87,25.81-1.15,23.68,21.29-2.29,24.16-19.53,32.2-28.67,31.33s-14.21-26.25-13.26-36.19S55.39,86.58,64.53,87.44Z"/><path class="cls-9" d="M102.81,106.37c4.82,6,16.21,14.36-1.32,28.53-18.87,15.25-35,10.66-39.79,4.7S72.27,113.22,80,107,98,100.41,102.81,106.37Z"/><path class="cls-8" d="M106.28,154.7c-2.21,6.65-3.18,19.53-22,13.29-20.2-6.72-24.27-21.27-22.06-27.92s24.65-5.18,33-2.41S108.49,148.05,106.28,154.7Z"/><path class="cls-8" d="M47.33,178.64c-6-2.38-17.85-3.76-10.68-21.83,7.72-19.46,21.5-22.93,27.49-20.55s3,24.19-.2,32.19S53.33,181,47.33,178.64Z"/><path class="cls-9" d="M17.76,132.21c1-6.78-.44-19.35,19.48-16.48,21.44,3.08,28.21,16.42,27.23,23.2S40.79,148,32,146.77,16.79,139,17.76,132.21Z"/><path class="cls-10" d="M36.5,146.23c-1.62-4.91,1.63-10.4,7.26-12.26S61,132.7,62.6,137.61s-7.34,12.29-13,14.15S38.12,151.15,36.5,146.23Z"/><path class="cls-11" d="M94,140.49c-.39,5.16-5.51,9-11.42,8.52s-16.38-5.46-16-10.62,11.5-8.52,17.42-8.06S94.35,135.33,94,140.49Z"/><path class="cls-12" d="M69.13,163c-4.5.92-9-2.33-10-7.24s.83-14.64,5.34-15.55,10,7.31,11,12.23S73.64,162,69.13,163Z"/><path class="cls-12" d="M49,117c3.74-2.68,9.14-1.55,12.07,2.52s5.24,13.69,1.5,16.38-12.1-2.58-15-6.66S45.23,119.67,49,117Z"/><path class="cls-13" d="M72.28,112.36c4.39,1.39,6.7,6.4,5.18,11.19s-7.86,12.37-12.25,11-5.15-11.26-3.62-16S67.9,111,72.28,112.36Z"/><ellipse class="cls-14" cx="65.2" cy="135.29" rx="10.1" ry="7"/><path class="cls-8" d="M394.84,6.52c-2.21,6.65-3.18,19.53-21.95,13.29-20.21-6.72-24.28-21.27-22.07-27.92s24.65-5.18,33-2.41S397.05-.13,394.84,6.52Z"/><path class="cls-8" d="M335.89,30.46c-6-2.38-17.85-3.76-10.68-21.83,7.71-19.46,21.49-22.93,27.49-20.55s3,24.19-.21,32.19S341.88,32.84,335.89,30.46Z"/><path class="cls-10" d="M325.06-1.95c-1.63-4.91,1.62-10.4,7.25-12.26s17.23-1.27,18.85,3.64-7.34,12.29-13,14.15S326.68,3,325.06-1.95Z"/><path class="cls-11" d="M382.52-7.69c-.4,5.16-5.51,9-11.43,8.52s-16.38-5.46-16-10.62,11.5-8.52,17.41-8.06S382.91-12.85,382.52-7.69Z"/><path class="cls-12" d="M357.69,14.77c-4.51.92-9-2.33-10-7.24S348.55-7.11,353.05-8,363-.71,364,4.21,362.2,13.86,357.69,14.77Z"/></g></svg>
