<svg xmlns="http://www.w3.org/2000/svg" xmlns:xlink="http://www.w3.org/1999/xlink" viewBox="0 0 1366 773"><defs><style>.cls-1{fill:url(#linear-gradient);}.cls-2{fill:#aa0b22;}.cls-3{fill:#af0e2d;}.cls-4{fill:#7aa5b6;opacity:0.57;isolation:isolate;}.cls-5{fill:#526682;}.cls-6,.cls-9{opacity:0.83;}.cls-6{fill:url(#linear-gradient-2);}.cls-7{fill:#256329;}.cls-8{fill:#216d21;}.cls-9{fill:url(#linear-gradient-3);}.cls-10{fill:#f4aa4a;}.cls-10,.cls-11{opacity:0.88;}.cls-11{fill:#e58e38;}.cls-12,.cls-13,.cls-14,.cls-15{fill:#dd8cc8;}.cls-12{opacity:0.8;}.cls-13{opacity:0.89;}.cls-14{opacity:0.86;}.cls-15{opacity:0.72;}.cls-16{fill:#001300;}</style><linearGradient id="linear-gradient" x1="684.6" y1="715.24" x2="679.98" y2="-232.72" gradientUnits="userSpaceOnUse"><stop offset="0.07" stop-color="#e09c85"/><stop offset="0.19" stop-color="#a18b9e"/><stop offset="0.32" stop-color="#677bb5"/><stop offset="0.38" stop-color="#5075be"/><stop offset="0.47" stop-color="#4d74bd"/><stop offset="0.51" stop-color="#4973bb"/><stop offset="0.56" stop-color="#3b6fb4"/><stop offset="0.75" stop-color="#0c5f9d"/><stop offset="0.92" stop-color="#005b97"/></linearGradient><linearGradient id="linear-gradient-2" x1="461" y1="681.88" x2="1507.85" y2="681.88" gradientUnits="userSpaceOnUse"><stop offset="0" stop-color="#666"/><stop offset="0" stop-color="#77807f"/><stop offset="0.09" stop-color="#617c72"/><stop offset="0.27" stop-color="#3e755d"/><stop offset="0.44" stop-color="#236f4c"/><stop offset="0.62" stop-color="#106b40"/><stop offset="0.8" stop-color="#046939"/><stop offset="0.99" stop-color="#006837"/></linearGradient><linearGradient id="linear-gradient-3" x1="1031.66" y1="713.61" x2="1991.21" y2="713.61" gradientTransform="translate(1742.2 610.84) rotate(172.58)" xlink:href="#linear-gradient-2"/></defs><g id="baggrund"><rect class="cls-1" x="0.5" y="0.5" width="1365" height="772"/><path d="M1365,1V772H1V1H1365m1-1H0V773H1366V0Z"/></g><g id="Layer_2" data-name="Layer 2"><ellipse class="cls-2" cx="674" cy="325" rx="160" ry="156"/><ellipse class="cls-3" cx="661.61" cy="310.91" rx="132.13" ry="128.83"/><path class="cls-4" d="M213.75,458.84a53.46,53.46,0,0,1-16.91-16.76c-3.09-4.79-5.91-9.42-4.3-14.21,1.75-4.64,6.58-4.79,7.12-8.23,1.2-8.68-21.76-20.51-27.26-16.32-3.76,2.85,1.75,12.28-1.07,13.62-3.63,1.8-11.69-15-27.26-17.21-6.44-.9-14.23.45-19.2,4.49C112.52,414.4,117.75,441,134,455.1c11.41,9.88,30.48,6.14,31.28,11.83.68,4-8.45,6.58-8.05,10.92.54,6.88,28.06,7.18,28.33,10.93.13,4.19-36.12,4.19-39.34,15.41-2.69,9.13,19.33,14.67,24.17,35.47C173.07,551,168,554.92,171.46,566c.94,3,5.91,17.21,21.21,24.54A41.92,41.92,0,0,0,208,594.43c14.5,1.2,30.08-4.19,39.21-13.92,3.49-3.89,2.82-4.79,6-7.33,8.59-6.58,25.11-8.53,32.36-.9,2.68,2.7,5.37,8.23,3.08,11.82-3.76,5.84-15.84.3-29.27,7.34-7.38,3.74-6.71,7-13.15,10.92-12.63,7.78-28.33,3.44-37.33,2.7C167,601.61,124.2,664.17,126.08,666c.8.75,10.47-10.47,34.37-23.64,17.05-9.43,33.7-18.41,54.51-17.21,11.41.6,10.47,3.44,27.26,6.43,17.18,3,38.26,6.59,55.58-1.79,22-10.63,18.53-31.58,39.34-36.37,10.88-2.54,16.65,2.25,27.26-2.69,11.41-5.24,9.67-12.87,18.13-18.11,20.94-13,59.34,16,68.6,6.44,3.36-3.6,1.88-11.08-2-14.52-3.89-3.29-9.53-2.39-17.19-1.8-11.14.75-28.59,1.95-42.42-3.59-12.89-5.24-14-12.87-25.25-13.62-7.25-.44-8.86,2.55-16.11,3.6-16.51,2.39-23.36-11.23-50.48-21-13.56-4.78-25.51-9.12-38.4-5.38-13.43,3.89-15.31,13-29.27,18.1-3.36,1.2-24.17,9.13-35.31,0-6.31-5.23-9.67-16-5.1-22.74,10.07-14.52,50.08,2.39,61.62-12.72,5.51-7.19,3.23-20.06-4-26.34-16.25-14.22-57.2,4.49-61.63-3.59-2.42-4.49,9-12.57,6-16.32-2-2.69-8.32.15-19.2,0-6.31-.15-20.41-.3-27.26-8.23-7.11-8.08-5.77-23.49,2-27.23,7.52-3.74,19.47,4.19,24.17,7.33,6.44,4.19,8.45,7.48,13.15,11.82C190,447.62,199,454.06,213.75,458.84Z"/><path class="cls-4" d="M970.07,187.39A53.56,53.56,0,0,1,987,204.15c3.09,4.79,5.91,9.43,4.3,14.22-1.74,4.64-6.58,4.79-7.11,8.23-1.21,8.68,21.75,20.5,27.25,16.31,3.76-2.84-1.74-12.27,1.08-13.62,3.62-1.79,11.68,15,27.25,17.21,6.45.9,14.23-.44,19.2-4.49,12.35-10.17,7.12-36.81-9.13-50.88-11.41-9.87-30.48-6.13-31.28-11.82-.67-4,8.46-6.58,8-10.92-.53-6.89-28.06-7.19-28.33-10.93-.13-4.19,36.12-4.19,39.34-15.41,2.69-9.13-19.33-14.67-24.17-35.47-2.68-11.37,2.42-15.27-1.07-26.34-.94-3-5.91-17.21-21.21-24.54a41.71,41.71,0,0,0-15.31-3.89c-14.5-1.2-30.07,4.19-39.2,13.91-3.5,3.89-2.82,4.79-6,7.34-8.59,6.58-25.1,8.53-32.35.89-2.69-2.69-5.38-8.23-3.09-11.82,3.76-5.83,15.84-.3,29.27-7.33,7.38-3.74,6.71-7,13.15-10.93,12.63-7.78,28.33-3.44,37.33-2.69,41.89,3.44,84.72-59.11,82.84-60.91-.8-.75-10.47,10.48-34.37,23.65-17,9.43-33.7,18.4-54.51,17.21-11.41-.6-10.47-3.44-27.26-6.44-17.18-3-38.26-6.58-55.58,1.8-22,10.62-18.53,31.57-39.34,36.36-10.88,2.55-16.65-2.24-27.26,2.7C808,60.79,809.75,68.42,801.3,73.66c-20.95,13-59.35-16-68.61-6.44-3.36,3.59-1.88,11.07,2,14.52,3.89,3.29,9.53,2.39,17.19,1.79,11.14-.75,28.59-1.94,42.42,3.59,12.89,5.24,14,12.87,25.25,13.62,7.25.45,8.86-2.54,16.11-3.59,16.51-2.39,23.36,11.22,50.48,20.95,13.56,4.79,25.51,9.13,38.4,5.39,13.43-3.89,15.31-13,29.27-18.11,3.36-1.2,24.17-9.13,35.31,0,6.31,5.24,9.67,16,5.1,22.75-10.06,14.52-50.08-2.4-61.62,12.72-5.51,7.18-3.23,20.05,4,26.34,16.24,14.22,57.19-4.49,61.62,3.59,2.42,4.49-9,12.57-6,16.31,2,2.7,8.33-.15,19.2,0,6.31.15,20.41.3,27.26,8.23,7.11,8.08,5.77,23.5-2,27.24-7.52,3.74-19.47-4.19-24.17-7.33-6.44-4.19-8.45-7.49-13.15-11.83C993.83,198.62,984.84,192.18,970.07,187.39Z"/><path class="cls-5" d="M1262.05,363.5c23.09,12.47,34.67,11.48,41,8,2-1.09,5.32-3.61,11-5,5.44-1.33,16.6-3.16,19,1,3.46,6-10.78,25-23,24-4.42-.36-5.29-3.07-9-3-8.81.18-9.57,15.64-21,28-20,21.63-59.35,19.43-66.8,19h-.2c-19.13-.88-39.94,27.2-34,44,3,8.48,12.21,12.39,16,14,21.08,8.95,35.79-5.9,56,2,7.47,2.92,18.6,8.41,18,14-.52,4.9-9.82,7.67-11,8-14.82,4.22-22.6-6.56-40-9-13-1.82-23.16,2.18-43,10-21.71,8.57-28.75,16.73-42,14-7.62-1.57-16.45-6.58-16-11,.35-3.41,11.7-.92,17-8,2.16-2.88,3.58-7.6,2-11-4-8.55-28.34-11.62-42-1-11.86,9.22-6.63,21.76-20,30-7.28,4.5-12,2.74-21,9-8.43,5.89-7,9.66-13,14-15.35,11.13-37.26-3.15-43,5-2.85,4.06-.92,12.56,4,17,14.42,13,51.71-11.29,58-2,1,1.42.1,2-1,16-.74,9.53-1.09,14.33,0,16,4.37,6.68,23.86,4.23,40-3,25.8-11.55,25.06-27.26,55-53,17.83-15.31,32.66-28.06,54-29,22.28-1,44.25,11.24,51,15,13.5,7.51,13.19,10.75,24,15,5.16,2,29.42,11.56,50-1,14.54-8.87,26.63-28.37,21-40-2.17-4.5-7.11-8.05-36-13-25.4-4.35-35.46,1.95-52-6-6.75-3.24-15.61-7.5-17-15-2.62-14.2,22.65-34.23,48-42,27.47-8.42,39.51,2.31,57-10,2-1.36,19.31-14,19-34-.26-17.43-13.83-32.56-28-37-11.47-3.59-18.08,1.48-43,6A252.15,252.15,0,0,1,1262.05,363.5Z"/></g><g id="Layer_3" data-name="Layer 3"><path class="cls-6" d="M1462.3,507.54c-55.13-31.7-177.13,14.73-186.46,52.05-.75,3-2.14,11.42-9.5,18.43-13.32,12.71-41,15.86-53.45,5.43-14.74-12.39-.05-37.29-9.5-42.3-14.93-7.91-47.24,56.59-108.07,66.15-42.29,6.65-60.83-19.14-85.52-6.5-37.9,19.41-11.62,89.13-43.94,108.44-29.42,17.57-66.07-54.47-137.77-52-33.38,1.12-75.68,17.64-105.7,42.29-21.33,17.51-23.24,28.27-41.57,33.61-28.23,8.25-40.78-12.3-92.64-20.6-20.95-3.35-60.69-6.69-97.39,10.85-5.27,2.52-31.63,15.11-29.69,27.11,1.45,8.95,18,13.58,23.76,15.18,815.18,227.57,977.44,0,977.44,0C1524.29,678.7,1521.75,541.72,1462.3,507.54Z"/><path class="cls-7" d="M1356.5,550.5c-46.55,20.88-46.32,43.76-82,48-13.31,1.58-44,2.12-78.11-6.52l-1.89-.48c-84.34,50.26-130.87,49.74-158,39-7.67-3-22-10.14-30-4-15.55,12,18.9,54.59,5,89-18.36,45.44-117.61,68.11-162,32-28-22.74-19.7-57-42-64-29-9.07-43.67,49-107,68C631.75,772.17,546.13,734.71,536.18,725a8.43,8.43,0,0,0-4.68-2.54c-9.39-1.32-23.87,15.11-23,25,2.32,26.49,120.44,69.2,201,27,24.27-12.71,40-30.43,66-27,24.15,3.18,33.25,21.42,58,41,26.69,21.11,77.26,48.27,116,41,62-11.64,49.67-103.28,133-151,36.78-21.06,74.45-23.41,132-27,80.94-5,98.08,13.42,142-3,62.79-23.48,105.87-90.43,94-109C1440.67,524.12,1389.26,535.8,1356.5,550.5Z"/><path class="cls-8" d="M824,682c3.15,11.76,11.23,35.11,32,52.39,31,25.79,77.68,27.57,83,15,5.83-13.84-34-54.79-80-65.22A110.39,110.39,0,0,0,824,682Z"/><path class="cls-8" d="M1366,674c-2.94-19-185.19,5.94-235.31,15a104.56,104.56,0,0,0-31.58,11c-34.17,18.53-55.56,55.66-48.9,62.94,7.22,7.91,38.21-29.38,102.89-45,55-13.23,73.07,3.93,136.5-11C1319.43,700,1367.53,683.9,1366,674Z"/><path class="cls-8" d="M1362,693c-98,32.19-138.9,80.76-179,68-5.49-1.75-27.38-9.86-43,0-2.14,1.35-6,3.79-6,7,0,9,30.21,19.22,56,21,50.22,3.46,61.67-26.58,111-24,26.89,1.41,27.17,10.53,58,11,34.83.53,71.55-10.55,72-22,.52-13.13-47-17.28-48-34-1.2-20.43,68.39-38.24,67-43C1449,673.62,1412.14,676.53,1362,693Z"/><path class="cls-9" d="M-265.16,293c53.39,18.54,159.49-32.64,164.12-63.26.37-2.46.77-9.29,6.73-15.71,10.8-11.63,35.66-17.41,48-10.62,14.68,8.05,3.89,29.49,13,32.33,14.39,4.49,37.1-50.36,91.41-65.13,37.75-10.27,57.26,7.94,78.4-5,32.45-19.84,1.37-71.89,28.76-91C190.21,57.29,231,109.93,295.87,99.53c30.22-4.84,67-22.92,91.71-46C405.16,37.18,405.79,28.44,421.9,22c24.81-9.86,38.33,4.9,86.32,5.33,19.4.17,55.86-1.9,87.41-20.11,4.53-2.62,27.19-15.71,24.19-25-2.24-6.91-17.78-8.61-23.16-9.19C-167.74-110.38-291.76,88.86-291.76,88.86-339.14,165-322.72,273-265.16,293Z"/><path class="cls-7" d="M-173.42,246.51c40.16-22,37.59-40.1,69.59-47.68,11.93-2.83,39.75-6.89,71.66-4.1l1.77.16c71.48-49.75,113.82-54.84,139.59-49.57,7.28,1.5,21.07,5.42,27.68-.38,12.9-11.33-22.8-40.95-13.72-69.82,12-38.12,99.88-67.8,144-44.5,27.75,14.68,23.78,42.79,44.77,45.66,27.34,3.73,34.64-43.9,90.25-66.47,60.35-24.49,142-5,152.08,1.47a8,8,0,0,0,4.51,1.46C567.38,12.67,578.85-2,577-9.76c-4.84-20.68-116.6-40.48-185.48,2.44-20.74,12.93-33.19,28.81-57.2,29.18-22.28.34-32.43-13-56.94-25.57C251-17.24,202.21-32.74,167.75-22.4,112.59-5.85,133.26,65.18,62.43,112.8c-31.25,21-65.25,27.34-117.19,37-73.05,13.58-90.53,1-128.76,19.19-54.65,26-86.9,84.08-74.2,97.36C-247.21,277.35-201.68,262-173.42,246.51Z"/><path class="cls-8" d="M297,79.39C293,70.47,283.2,53,262.54,41.74c-30.84-16.73-73.45-12.61-77-2C181.68,51.36,222.09,79,265,81.84A115.4,115.4,0,0,0,297,79.39Z"/><path class="cls-8" d="M-194.78,149.94c4.63,14.69,167.71-26.63,212.33-39.72A105.76,105.76,0,0,0,45.12,97.78c29.15-18.7,44.76-50.6,38-55.58C75.7,36.81,51.38,70-5.8,90c-48.58,17-66.82,5.55-122.94,24.86C-155.13,123.89-197.19,142.28-194.78,149.94Z"/><path class="cls-8" d="M-193.11,134.43c85.77-37.07,117.93-80.33,155.69-75,5.17.73,25.91,4.56,39.09-5.09C3.47,53,6.72,50.64,6.4,48.1,5.49,41-23,36.47-46.67,38.12c-46,3.21-53.31,28.33-98.41,32.13-24.59,2.07-25.78-5.11-53.85-1.83-31.72,3.71-63.95,16.82-63.18,25.93.89,10.45,44.52,8.1,47.13,21.21,3.2,16-58.21,38.35-56.46,41.95C-270.2,160.07-237,153.4-193.11,134.43Z"/></g><g id="blomster"><path class="cls-10" d="M1141.24,708.15c9.13.87,25.8-1.15,23.68,21.29-2.29,24.16-19.54,32.2-28.67,31.33S1122,734.52,1123,724.58,1132.1,707.28,1141.24,708.15Z"/><path class="cls-11" d="M1179.52,727.08c4.81,6,16.21,14.36-1.32,28.53-18.88,15.25-35,10.66-39.79,4.7s10.56-26.38,18.33-32.65S1174.7,721.12,1179.52,727.08Z"/><path class="cls-10" d="M1183,775.41c-2.21,6.65-3.18,19.52-22,13.28-20.21-6.71-24.28-21.26-22.07-27.91s24.65-5.18,33-2.41S1185.2,768.76,1183,775.41Z"/><path class="cls-10" d="M1124,799.35c-6-2.38-17.84-3.76-10.68-21.83,7.72-19.46,21.5-22.93,27.5-20.55s3,24.19-.21,32.19S1130,801.73,1124,799.35Z"/><path class="cls-11" d="M1094.47,752.91c1-6.77-.45-19.34,19.47-16.47,21.44,3.08,28.21,16.42,27.24,23.19s-23.68,9.12-32.5,7.85S1093.49,759.69,1094.47,752.91Z"/><path class="cls-12" d="M1113.2,766.94c-1.62-4.91,1.63-10.4,7.26-12.26s17.22-1.27,18.85,3.64-7.34,12.29-13,14.15S1114.83,771.85,1113.2,766.94Z"/><path class="cls-13" d="M1170.66,761.19c-.39,5.16-5.5,9-11.42,8.53s-16.38-5.46-16-10.62,11.5-8.52,17.41-8.07S1171.06,756,1170.66,761.19Z"/><path class="cls-14" d="M1145.84,783.66c-4.51.92-9-2.33-10-7.25s.82-14.63,5.33-15.55,10,7.32,11,12.24S1150.35,782.74,1145.84,783.66Z"/><path class="cls-14" d="M1125.67,737.7c3.73-2.69,9.14-1.56,12.06,2.52s5.24,13.69,1.51,16.37-12.11-2.58-15-6.65S1121.93,740.38,1125.67,737.7Z"/><path class="cls-15" d="M1149,733.06c4.38,1.4,6.7,6.41,5.17,11.19s-7.86,12.38-12.24,11-5.15-11.26-3.63-16S1144.61,731.67,1149,733.06Z"/><ellipse class="cls-16" cx="1141.9" cy="756" rx="10.1" ry="7"/><path class="cls-10" d="M851.84,635.8c9.14.87,25.81-1.14,23.68,21.3-2.29,24.15-19.53,32.19-28.67,31.33s-14.2-26.26-13.26-36.2S842.7,634.94,851.84,635.8Z"/><path class="cls-11" d="M890.13,654.74c4.81,6,16.2,14.36-1.33,28.52-18.87,15.26-35,10.66-39.78,4.7s10.56-26.37,18.33-32.65S885.31,648.78,890.13,654.74Z"/><path class="cls-10" d="M893.59,703.06c-2.21,6.65-3.18,19.53-22,13.29-20.2-6.72-24.27-21.27-22.06-27.92s24.65-5.17,33-2.41S895.8,696.41,893.59,703.06Z"/><path class="cls-10" d="M834.64,727c-6-2.38-17.85-3.76-10.68-21.84,7.72-19.45,21.5-22.93,27.49-20.55s3,24.19-.2,32.2S840.64,729.38,834.64,727Z"/><path class="cls-11" d="M805.07,680.57c1-6.78-.44-19.34,19.48-16.48,21.44,3.09,28.21,16.42,27.23,23.2s-23.67,9.12-32.5,7.85S804.1,687.34,805.07,680.57Z"/><path class="cls-12" d="M823.81,694.6c-1.62-4.92,1.63-10.41,7.26-12.27s17.22-1.27,18.84,3.65-7.33,12.29-13,14.15S825.43,699.51,823.81,694.6Z"/><path class="cls-13" d="M881.27,688.85c-.39,5.16-5.51,9-11.42,8.52s-16.38-5.46-16-10.62,11.51-8.51,17.42-8.06S881.67,683.69,881.27,688.85Z"/><path class="cls-14" d="M856.44,711.31c-4.5.92-9-2.32-10-7.24s.83-14.64,5.34-15.55,10,7.31,11,12.23S861,710.4,856.44,711.31Z"/><path class="cls-14" d="M836.28,665.35c3.73-2.68,9.13-1.55,12.06,2.53s5.24,13.69,1.5,16.37-12.1-2.58-15-6.66S832.54,668,836.28,665.35Z"/><path class="cls-15" d="M859.59,660.72c4.39,1.4,6.7,6.41,5.18,11.19s-7.86,12.37-12.25,11-5.15-11.25-3.62-16S855.21,659.32,859.59,660.72Z"/><ellipse class="cls-16" cx="852.51" cy="683.65" rx="10.1" ry="7"/><path class="cls-10" d="M1334.84,556.8c9.14.87,25.81-1.14,23.68,21.3-2.29,24.15-19.53,32.19-28.67,31.33s-14.2-26.26-13.26-36.2S1325.7,555.94,1334.84,556.8Z"/><path class="cls-11" d="M1373.13,575.74c4.81,6,16.2,14.36-1.33,28.52-18.87,15.26-35,10.66-39.78,4.7s10.56-26.37,18.33-32.65S1368.31,569.78,1373.13,575.74Z"/><path class="cls-10" d="M1376.59,624.06c-2.21,6.65-3.18,19.53-21.95,13.29-20.2-6.72-24.27-21.27-22.06-27.92s24.65-5.17,33-2.41S1378.8,617.41,1376.59,624.06Z"/><path class="cls-10" d="M1317.64,648c-6-2.38-17.85-3.76-10.68-21.84,7.72-19.45,21.5-22.93,27.49-20.55s3,24.19-.2,32.2S1323.64,650.38,1317.64,648Z"/><path class="cls-11" d="M1288.07,601.57c1-6.78-.44-19.34,19.48-16.48,21.44,3.09,28.21,16.42,27.23,23.2s-23.67,9.12-32.5,7.85S1287.1,608.34,1288.07,601.57Z"/><path class="cls-12" d="M1306.81,615.6c-1.62-4.92,1.63-10.41,7.26-12.27s17.22-1.27,18.84,3.65-7.33,12.29-13,14.15S1308.43,620.51,1306.81,615.6Z"/><path class="cls-13" d="M1364.27,609.85c-.39,5.16-5.51,9-11.42,8.52s-16.38-5.46-16-10.62,11.51-8.51,17.42-8.06S1364.67,604.69,1364.27,609.85Z"/><path class="cls-14" d="M1339.44,632.31c-4.5.92-9-2.32-10-7.24s.83-14.64,5.34-15.55,10,7.31,11,12.23S1344,631.4,1339.44,632.31Z"/><path class="cls-14" d="M1319.28,586.35c3.73-2.68,9.13-1.55,12.06,2.53s5.24,13.69,1.5,16.37-12.1-2.58-15-6.66S1315.54,589,1319.28,586.35Z"/><path class="cls-15" d="M1342.59,581.72c4.39,1.4,6.7,6.41,5.18,11.19s-7.86,12.37-12.25,11-5.15-11.25-3.62-16S1338.21,580.32,1342.59,581.72Z"/><ellipse class="cls-16" cx="1335.51" cy="604.65" rx="10.1" ry="7"/><path class="cls-10" d="M64.53,87.44c9.14.87,25.81-1.15,23.68,21.29-2.29,24.16-19.53,32.2-28.67,31.33s-14.21-26.25-13.26-36.19S55.39,86.58,64.53,87.44Z"/><path class="cls-11" d="M102.81,106.37c4.82,6,16.21,14.36-1.32,28.53-18.87,15.25-35,10.66-39.79,4.7S72.27,113.22,80,107,98,100.41,102.81,106.37Z"/><path class="cls-10" d="M106.28,154.7c-2.21,6.65-3.18,19.53-22,13.29-20.2-6.72-24.27-21.27-22.06-27.92s24.65-5.18,33-2.41S108.49,148.05,106.28,154.7Z"/><path class="cls-10" d="M47.33,178.64c-6-2.38-17.85-3.76-10.68-21.83,7.72-19.46,21.5-22.93,27.49-20.55s3,24.19-.2,32.19S53.33,181,47.33,178.64Z"/><path class="cls-11" d="M17.76,132.21c1-6.78-.44-19.35,19.48-16.48,21.44,3.08,28.21,16.42,27.23,23.2S40.79,148,32,146.77,16.79,139,17.76,132.21Z"/><path class="cls-12" d="M36.5,146.23c-1.62-4.91,1.63-10.4,7.26-12.26S61,132.7,62.6,137.61s-7.34,12.29-13,14.15S38.12,151.15,36.5,146.23Z"/><path class="cls-13" d="M94,140.49c-.39,5.16-5.51,9-11.42,8.52s-16.38-5.46-16-10.62,11.5-8.52,17.42-8.06S94.35,135.33,94,140.49Z"/><path class="cls-14" d="M69.13,163c-4.5.92-9-2.33-10-7.24s.83-14.64,5.34-15.55,10,7.31,11,12.23S73.64,162,69.13,163Z"/><path class="cls-14" d="M49,117c3.74-2.68,9.14-1.55,12.07,2.52s5.24,13.69,1.5,16.38-12.1-2.58-15-6.66S45.23,119.67,49,117Z"/><path class="cls-15" d="M72.28,112.36c4.39,1.39,6.7,6.4,5.18,11.19s-7.86,12.37-12.25,11-5.15-11.26-3.62-16S67.9,111,72.28,112.36Z"/><ellipse class="cls-16" cx="65.2" cy="135.29" rx="10.1" ry="7"/><path class="cls-10" d="M357.09-39.74c9.14.87,25.81-1.15,23.68,21.29-2.29,24.16-19.54,32.2-28.67,31.33s-14.21-26.25-13.27-36.19S348-40.6,357.09-39.74Z"/><path class="cls-11" d="M395.37-20.81c4.82,6,16.21,14.36-1.32,28.53-18.87,15.25-35,10.66-39.79,4.7S364.83-14,372.59-20.23,390.55-26.77,395.37-20.81Z"/><path class="cls-10" d="M398.84,27.52c-2.21,6.65-3.18,19.53-21.95,13.29-20.21-6.72-24.28-21.27-22.07-27.92s24.65-5.18,33-2.41S401.05,20.87,398.84,27.52Z"/><path class="cls-10" d="M339.89,51.46c-6-2.38-17.85-3.76-10.68-21.83C336.92,10.17,350.7,6.7,356.7,9.08s3,24.19-.21,32.19S345.88,53.84,339.89,51.46Z"/><path class="cls-11" d="M310.32,5c1-6.78-.45-19.35,19.47-16.48C351.23-8.37,358,5,357,11.75s-23.68,9.11-32.5,7.84S309.34,11.8,310.32,5Z"/><path class="cls-12" d="M329.06,19.05c-1.63-4.91,1.62-10.4,7.25-12.26s17.23-1.27,18.85,3.64-7.34,12.29-13,14.15S330.68,24,329.06,19.05Z"/><path class="cls-13" d="M386.52,13.31c-.4,5.16-5.51,9-11.43,8.52s-16.38-5.46-16-10.62,11.5-8.52,17.41-8.06S386.91,8.15,386.52,13.31Z"/><path class="cls-14" d="M361.69,35.77c-4.51.92-9-2.33-10-7.24s.83-14.64,5.33-15.55,10,7.31,11,12.23S366.2,34.86,361.69,35.77Z"/><path class="cls-14" d="M341.52-10.19c3.74-2.68,9.14-1.55,12.07,2.52S358.83,6,355.09,8.71s-12.11-2.58-15-6.66S337.78-7.51,341.52-10.19Z"/><path class="cls-15" d="M364.84-14.82c4.38,1.39,6.7,6.4,5.17,11.19s-7.86,12.37-12.24,11-5.15-11.26-3.63-16S360.46-16.22,364.84-14.82Z"/><ellipse class="cls-16" cx="357.76" cy="8.11" rx="10.1" ry="7"/></g></svg>
