<svg xmlns="http://www.w3.org/2000/svg" xmlns:xlink="http://www.w3.org/1999/xlink" viewBox="0 0 1366 768"><defs><style>.cls-1{fill:url(#linear-gradient);}.cls-2{fill:#526682;}.cls-3{fill:#7aa5b6;}</style><linearGradient id="linear-gradient" x1="678.33" y1="1198.31" x2="686.15" y2="-165.89" gradientUnits="userSpaceOnUse"><stop offset="0.32" stop-color="#f7f5c9"/><stop offset="0.37" stop-color="#f3eec1"/><stop offset="0.43" stop-color="#e9daac"/><stop offset="0.49" stop-color="#dbc091"/><stop offset="0.54" stop-color="#dbbe91"/><stop offset="0.56" stop-color="#ddb88f"/><stop offset="0.82" stop-color="#ee6a7d"/></linearGradient></defs><g id="Layer_1" data-name="Layer 1"><rect class="cls-1" x="0.5" y="0.5" width="1365" height="767"/><path d="M1365,1V767H1V1H1365m1-1H0V768H1366V0Z"/></g><g id="Layer_2" data-name="Layer 2"><path class="cls-2" d="M1073.36,224.79c2.27,2.73,4.49,6.33,3.5,9.5-1.45,4.61-9,5.91-27.4,8.69-21.57,3.26-29.6,4.31-29.6,4.31-31,4.06-33.5,5.06-39,3-12.22-4.58-15.4-13.08-24-12-8.42,1.06-10.81,9.88-22,21-11.61,11.53-22.39,8.19-27,18-.73,1.54-4.24,9-1,14,5.76,8.89,25-2.23,45,9,3.56,2,8.87,5,12,11,6.49,12.48.5,32-11,42-20.42,17.78-48.39-2.91-64,13-13.46,13.71.84,35.67-11,49-18.56,20.89-73.53,9.9-76-4-2.11-11.85,33.78-27.75,32-31s-36.32,20.48-58,8c-9.9-5.7-7.6-13.48-19-19-9.88-4.79-14-.09-41,0-18.66.06-22.74-2.16-29,2-10.23,6.78-11.16,20.49-15,20-3.13-.4-2-9.39-6-16-12.08-19.89-62.93-5.28-64-10-.94-4.16,36.36-24.34,58-11,6.51,4,8.55,9.18,16,10,9.26,1,13.07-6.21,28-8,7.67-.92,6.87,1,14,0,15-2,18.09-10.33,28-10,9.66.32,9.77,8.3,19,10,16.93,3.11,24.91-22.23,47-24,10.83-.87,10.81,5.07,32,11,14.84,4.15,38.72,10.84,53-1,8.94-7.41,13.63-21.69,9-30-3-5.37-8.72-6.21-22-10-27.07-7.73-43.06-12.3-44-19-1.11-7.88,18.61-18.37,34-23,22.52-6.78,30,.75,46-8,11.32-6.21,9-10.79,25-21,9.37-6,23.13-14.78,33-10,8.31,4,5.12,13.42,13,17,10,4.55,18.87-9.08,41-9,6,0,5.89,1,13,1A79.54,79.54,0,0,0,1073.36,224.79Z"/><path class="cls-3" d="M245.93,636.79c23.7,7.08,38.25-1.5,43,6,2.94,4.62-.73,10.83-10,29-23.33,45.75-22.46,50.19-21,52,2.87,3.54,11-1.6,43-12,0,0,9.24-3,24.5-7.5,21.22-6.25,65.8-17.66,68-12,1.22,3.11-11.68,8.1-30,24-13.79,12-39,37.38-34,46,3.94,6.74,27.12,4.44,46-5,49.55-24.78,50.05-89,82-91,9-.56,19.05,3.9,20,9,1.41,7.45-17,14.24-33,26-29.67,21.76-28.11,43.54-48,68-36,44.26-108.25,55.53-120,39-11-15.5,29.87-57.15,21-66-10.3-10.29-62.62,48.89-102,34-26.83-10.15-43.24-53-31-74,13.94-23.85,62.57-15.18,64-26,1.77-13.3-72.16-23.22-74-47-1.88-24.37,72.83-51.42,76-46,3,5-53.2,43.26-50,48,1.68,2.48,15.93-9.67,36-7C229.49,626,230,632,245.93,636.79Z"/><path class="cls-3" d="M663.5,576.29c105.81-27.79,116.35-25.56,125-21,22.19,11.69,16.4,30.49,41,42,22.15,10.36,56.73,9.09,75-9,32.83-32.51-15.23-91.4,17-133,22.14-28.58,71.86-35.69,107-21,7,2.92,34.82,14.56,43,40,7.9,24.56-10.58,36.95-5,65,5.26,26.45,29.29,53.6,47,51,26.56-3.9,16.6-71.47,57-92,29.45-15,73.27,1.36,99,23,45,37.88,29.37,87.52,72,107,14.26,6.51,30.84,6.34,64,6,27.57-.29,44.88-.7,53-12,11.44-15.93-4.64-40.59,3-45,6.06-3.5,23.7,7.63,28,23,7.76,27.73-31.14,57.84-34,60-33.17,25.09-51.87,8.83-73,29-29.61,28.26-5.37,72.08-37,96-12.61,9.53-30.9,13.49-46,8-24.17-8.79-31-38.47-32-43-5.9-27.51,10.37-35.75,14-76,1.63-18,5-55.15-17-71-11.66-8.41-28.39-9.36-41-4-24.9,10.57-30.16,44.19-32,56-8,51.49,23,74.63,8,98-11.71,18.28-43.16,23.58-64,15-11.53-4.75-15.4-11.94-39-52-46.9-79.6-46.56-76.58-51-88-12.15-31.26-14.62-53.8-26-55-9.48-1-12.78,14.1-32,20-17.18,5.27-23-4.2-34,1-20.64,9.76-8.9,47.37-31,61-15.32,9.45-36.58,1-39,0-21.23-8.77-23-27.66-34-27-15.49.92-15.72,38.44-41,47-8.52,2.88-19.38,2.31-27-3-9.3-6.48-10.45-17.69-14-43-7.58-54-10.1-58.32-14-61-13.47-9.27-38.28,4.74-60,17-40.37,22.79-42.72,39.47-74,50-25.54,8.59-57,8.6-61-1-2.14-5.19,3.24-14.5,10-17,8.29-3.07,15.48,5.28,20,2,5.51-4-3.24-17.87,3-26,4.45-5.8,13.5-4.77,23-5C621.54,588.11,621.07,587.43,663.5,576.29Z"/><path class="cls-3" d="M138.58,51.84A65.61,65.61,0,0,1,120.31,31c-3.26-5.91-6.42-11.81-4.58-17.65s7.11-6,7.61-10.18C124.64-7.62,99.9-22.33,94-17.15c-4.07,3.55,1.92,15.31-1.09,17C89,2,80.32-18.71,63.5-21.67c-6.88-1.21-15.28.52-20.67,5.66C29.48-3.3,35.11,29.78,52.62,47.31,65,59.65,85.42,55,86.35,62c.67,5.05-9.09,8.23-8.71,13.57.62,8.56,30.29,9,30.47,13.57.21,5.3-38.87,5.26-42.43,19.23-2.88,11.27,20.79,18.2,26.11,44.1,2.89,14.07-2.66,19,1.09,32.8,1,3.79,6.3,21.49,22.85,30.53a42,42,0,0,0,16.5,4.91c15.64,1.54,32.47-5.13,42.25-17.35,3.82-4.77,3-6,6.53-9.05,9.28-8.16,27-10.61,34.82-1.13,2.82,3.44,5.76,10.16,3.26,14.7-4,7.23-17.08.46-31.55,9.05-7.92,4.7-7.27,8.66-14.15,13.57-13.65,9.75-30.5,4.32-40.26,3.39-45.2-4.29-91.31,73.64-89.22,75.77.93.94,11.26-13,37-29.4,18.44-11.76,36.33-22.84,58.75-21.49,12.35.74,11.31,4.37,29.38,7.92,18.51,3.63,41.28,8.1,59.84-2.26,23.79-13.29,20-39.36,42.44-45.24,11.77-3.08,17.95,2.73,29.37-3.39,12.26-6.56,10.43-16.07,19.59-22.62,22.58-16.15,63.9,20,74,7.92,3.68-4.41,2-13.86-2.18-18.1s-10.32-2.9-18.5-2.26c-11.95.94-30.85,2.41-45.69-4.52-13.92-6.5-15-16-27.21-17-7.86-.6-9.57,3.2-17.4,4.52-17.84,3-25.19-13.91-54.41-26-14.61-6.05-27.54-11.4-41.34-6.78-14.48,4.84-16.45,16.15-31.56,22.61-3.59,1.54-26.09,11.37-38.08,0-6.81-6.45-10.46-20-5.44-28.27,10.91-18,54,3,66.37-15.83,5.89-9,3.54-24.89-4.35-32.8-17.57-17.61-61.65,5.68-66.37-4.52-2.62-5.66,9.71-15.6,6.53-20.35-2.21-3.3-9,.21-20.67,0-6.87-.13-22-.41-29.38-10.18-7.7-10.13-6.18-29.19,2.17-33.93,8.08-4.58,20.94,5.14,26.12,9.05C99.77,22,102,26,107,31.48,113,37.89,122.68,45.91,138.58,51.84Z"/><path class="cls-2" d="M549.62,144c-14.46-28.3-26.72-35-35.45-35.64-2.73-.2-7.81.19-14.45-2.17-6.35-2.25-18.78-7.81-18.3-13.72C482.1,84,509.47,73.79,521,83c4.17,3.32,3.16,6.71,6.92,9.11,8.93,5.7,20.37-9.79,40.33-15,34.93-9,72.75,19.53,79.9,24.93l.19.14c18.52,13.68,58.71-1.46,64.38-22.82,2.86-10.77-3.64-21-6.32-25.16-14.87-23.32-39.84-17.78-54.59-39.45-5.45-8-12.77-21.11-8.31-26.49,3.9-4.72,15.11-1.38,16.52-.94,17.72,5.54,18,21.88,33.76,36,11.75,10.58,24.65,13.22,49.88,18.36,27.63,5.64,40.3,1.89,51.65,13.56,6.54,6.72,11.9,17.79,8.39,22-2.7,3.3-12.33-6.85-22.51-3.07-4.15,1.54-8.83,5.48-9.6,10-1.93,11.5,20.3,30.93,41.29,29.07,18.23-1.62,21.66-18.08,40.71-17.69,10.39.22,13.91,5.2,27.21,4.71,12.5-.46,13.68-5.31,22.66-5.8,23-1.26,35.06,28.13,46.43,23.53,5.66-2.29,9.6-12.38,7.75-20.26C952.21,74.79,898.15,75,898.28,61.23c0-2.11,1.28-2.13,12.05-15.89,7.33-9.35,11-14.08,11-16.55.25-9.81-20.91-20.3-42-23.59-33.76-5.27-43.87,11.48-91.58,18.11-28.4,3.94-52,7.23-74-6C690.8,3.4,677.29-23.9,673.13-32.3c-8.3-16.77-5.75-19.92-13.62-31.54-3.76-5.54-21.41-31.59-50.67-32.34-20.65-.53-46.2,11.58-48.62,27.36-.93,6.11,1.54,13.08,27,37.48C609.61-9.88,624-9.68,635.05,9.58c4.51,7.86,10.42,18.18,6.63,26.86-7.19,16.45-46.29,20.29-77,11.4-33.27-9.62-37.9-28.76-63.88-27.7-2.89.12-29,1.59-42.48,22.49-11.78,18.21-8.67,42.92,2.42,57,9,11.37,19.1,10.55,47.13,22.5A295.08,295.08,0,0,1,549.62,144Z"/></g></svg>
