<svg xmlns="http://www.w3.org/2000/svg" viewBox="0 0 357.08 176.42"><defs><style>.cls-1{fill:#fff;stroke:#000;stroke-miterlimit:10;}</style></defs><g id="Layer_4" data-name="Layer 4"><path class="cls-1" d="M54.17,140.81c-24.9,8-48.8-6.34-53-25-4.44-19.72,14-40.64,30-43,13.62-2,23.85,9.64,32,4,5.74-4,1.8-10.52,8-19,7.63-10.43,24.24-15.07,37-12,9.39,2.26,14.54-3.74,15-13,.66-13.14,13.15-29.53,31-32,21.32-2.94,39,15.53,41,30,1.3,9.22-3.65,17.52-1,19s7.24-7,18-12c2.48-1.15,17.26-8,29-1,0,0,4.3,3,12,30A21.48,21.48,0,0,1,268.6,91.89c-.47,2.73-2.05,3.82-1.43,4.92,1.48,2.6,9.18-2.43,15,0,7.62,3.19,4.09,15.85,12,30,1.16,2.08,8.53,15.26,21,19,19.16,5.75,38-14.47,41-11,2.44,2.87-6.15,21.57-21,25-21.75,5-40.46-26.51-57-19-1.2.55-1.12.72-11,12-19.13,21.84-20.79,22.71-23,23-11.9,1.58-29.06-15-31.82-24.74-.21-.72-.74-2.84-2.18-3.26-3.07-.89-5.27,7.38-12,11-7.18,3.87-11.84-1.69-23,0-9,1.38-8.63,5.44-19,9-12.13,4.17-30.07,4.57-36-4-4.11-5.94-.71-13.68-4-15-2.94-1.18-5.83,4.95-13,9-10,5.64-23.77,4.71-34-1A37.39,37.39,0,0,1,54.17,140.81Z"/><path class="cls-1" d="M116.26,46.07s25.79,8.56,4.91,25.38c0,0-27.14,4.66-11.8-7.71"/><path class="cls-1" d="M194.17,49.81s-20,38-36.5,0c0,0,6.69-35.12,19.1-9.56"/><path class="cls-1" d="M253.17,66.81s-20.7,38.44-36.35,8.72c0,0-2.19-17.41,8.58-18.06,0,0,10.9-11.53,11.34,6.41"/><line class="cls-1" x1="267.17" y1="96.81" x2="255.79" y2="106.35"/><path class="cls-1" d="M116.17,148.81s-8-21,21-21c0,0,25,3.84,8,22.42l-12,.88"/><line class="cls-1" x1="54.17" y1="140.81" x2="51.38" y2="128.22"/></g></svg>
