<svg id="Layer_2" data-name="Layer 2" xmlns="http://www.w3.org/2000/svg" viewBox="0 0 262.89 147.2"><defs><style>.cls-1{fill:#fff;stroke:#000;stroke-miterlimit:10;}</style></defs><path class="cls-1" d="M113.94,47.31c4.33-2.22,35.61-17.84,53-5,4.9,3.62,13,12.7,12,14-.47.6-3-.23-3-1-.05-1.33,7.46-3.47,14-3s11.06,3.48,15,6c18.15,11.64,27.23,17.46,35,19,12.46,2.48,22.82-1.9,23-1,.14.71-6.39,2.63-18,6-26.15,7.59-31.05,8.91-36,14s-2.4,6-9,16c-6.38,9.68-12.77,19.36-24,23-11.85,3.85-26.18,0-35-7-5.78-4.59-11.17-12.13-13-11-.65.41-.49,1.67-.44,2.55.3,6-4,11.21-7.56,15.45-7.15,8.59-23.17,14.1-38,10-1.12-.31-19.73-5.7-23-19-1.87-7.6,1.75-15.79,1-16-.59-.16-1.37,5.38-5,9-6.88,6.86-20.52,3.31-22,3-20.35-4.16-37.78-29.27-30-45,6.59-13.34,28.37-14,30-14-9.16-19.68-3-43,14-55,18.24-12.89,43-8.62,55,4,7.76,8.16,11.34,20.83,11.94,28.43a31.1,31.1,0,0,1,0,4.51,35.27,35.27,0,0,1-.49,3.88c-.39,2.06-2.54,10.36-7.5,15.18-7.48,7.29-23.94,9.19-30,1-4.27-5.76-4-17.43,3-21,4.55-2.32,11.1-.76,16,4"/><path class="cls-1" d="M179,56.31s-1.08,9-5.54,10a67.16,67.16,0,0,1-9.81,1.25"/><path class="cls-1" d="M200,112.31s1.16-20.75-10.92-20.87-18.66-.13-20.37,7.37,7.7,6.32,7.7,6.32l4.14-2.36"/><path class="cls-1" d="M59.91,110.31s-4.21-25.9-23.11-9"/><path class="cls-1" d="M127.94,117.31c1-2-2.41-9.11-2.41-9.11"/></svg>
