<svg id="Layer_2" data-name="Layer 2" xmlns="http://www.w3.org/2000/svg" viewBox="0 0 261.42 151.75"><defs><style>.cls-1{fill:#fff;stroke:#000;stroke-miterlimit:10;}</style></defs><path class="cls-1" d="M142.94,54.06c-4.63-1.5-38-11.87-53.13,3.6C85.55,62,79,72.29,80.22,73.42c.56.5,2.89-.72,2.8-1.47-.17-1.33-7.92-2.23-14.31-.71s-10.36,5.21-13.84,8.34C38.83,94,30.81,101.19,23.37,104,11.47,108.42.54,105.77.5,106.69c0,.73,6.72,1.57,18.74,3,27,3.28,32.08,3.79,37.8,8s3.32,5.51,11.46,14.34c7.86,8.52,15.73,17,27.41,18.83,12.31,1.89,25.84-4.18,33.42-12.55,5-5.47,9.07-13.78,11.07-12.95.71.29.75,1.57.85,2.44.67,6,5.78,10.42,9.95,14,8.44,7.33,25.13,10.19,39.13,3.75,1-.49,18.55-8.81,19.64-22.46.63-7.8-4.27-15.31-3.56-15.63.56-.25,2.22,5.09,6.39,8.08,7.89,5.65,20.78,0,22.2-.59,19.41-7.38,32.58-35,22.37-49.25-8.65-12.1-30.25-9.22-31.87-9,5.87-20.9-4-42.9-22.69-52C182.73-5,159,3.18,149.15,17.58c-6.34,9.3-7.84,22.38-7.2,30a30.82,30.82,0,0,0,.67,4.45,34.29,34.29,0,0,0,1.11,3.76c.72,2,4.18,9.81,9.85,13.78,8.56,6,25.11,5.2,29.78-3.85,3.29-6.38,1.11-17.85-6.34-20.25-4.87-1.56-11.08,1-15.16,6.53"/><path class="cls-1" d="M80.22,73.42s2.52,8.7,7.08,9A66.65,66.65,0,0,0,97.18,82"/><path class="cls-1" d="M68.5,132.07S64,111.77,75.92,109.7s18.39-3.12,21.29,4-6.58,7.48-6.58,7.48l-4.47-1.66"/><path class="cls-1" d="M206.41,107.53s0-26.24,21.37-12.56"/><path class="cls-1" d="M140.4,125.4c-1.31-1.81.91-9.39.91-9.39"/></svg>
