<svg id="Layer_1" data-name="Layer 1" xmlns="http://www.w3.org/2000/svg" xmlns:xlink="http://www.w3.org/1999/xlink" viewBox="0 0 330 740"><defs><style>.cls-1{fill:url(#linear-gradient);}.cls-2,.cls-5{opacity:0.83;}.cls-10,.cls-11,.cls-14,.cls-15,.cls-2,.cls-5,.cls-6,.cls-7,.cls-8,.cls-9{isolation:isolate;}.cls-2{fill:url(#linear-gradient-2);}.cls-3{fill:#256329;}.cls-4{fill:#216d21;}.cls-5{fill:url(#linear-gradient-3);}.cls-6{fill:#f4aa4a;}.cls-6,.cls-7{opacity:0.88;}.cls-7{fill:#e58e38;}.cls-10,.cls-11,.cls-8,.cls-9{fill:#dd8cc8;}.cls-8{opacity:0.8;}.cls-9{opacity:0.89;}.cls-10{opacity:0.86;}.cls-11{opacity:0.72;}.cls-12{fill:#001300;}.cls-13{fill:#aa1b18;}.cls-14,.cls-15{fill:#7aa5b6;}.cls-14{opacity:0.57;}.cls-15{opacity:0.59;}</style><linearGradient id="linear-gradient" x1="164.78" y1="50.15" x2="165.12" y2="542.51" gradientTransform="matrix(1, 0, 0, -1, 0, 740)" gradientUnits="userSpaceOnUse"><stop offset="0.13" stop-color="#e09c85"/><stop offset="0.24" stop-color="#d09888"/><stop offset="0.46" stop-color="#a78e8e"/><stop offset="0.75" stop-color="#657d99"/><stop offset="0.8" stop-color="#597a9b"/><stop offset="0.83" stop-color="#4f769c"/><stop offset="0.94" stop-color="#2868a0"/><stop offset="1" stop-color="#1963a2"/><stop offset="1"/></linearGradient><linearGradient id="linear-gradient-2" x1="-272.38" y1="43.91" x2="565.98" y2="43.91" gradientTransform="matrix(1, 0, 0, -1, 0, 740)" gradientUnits="userSpaceOnUse"><stop offset="0" stop-color="#666"/><stop offset="0" stop-color="#77807f"/><stop offset="0.09" stop-color="#617c72"/><stop offset="0.27" stop-color="#3e755d"/><stop offset="0.44" stop-color="#236f4c"/><stop offset="0.62" stop-color="#106b40"/><stop offset="0.8" stop-color="#046939"/><stop offset="0.99" stop-color="#006837"/></linearGradient><linearGradient id="linear-gradient-3" x1="-468.42" y1="-97.63" x2="491.3" y2="-97.63" gradientTransform="matrix(-0.55, 0.07, 0.08, 0.63, 201.33, 96.49)" xlink:href="#linear-gradient-2"/></defs><g id="Layer_1-2" data-name="Layer 1"><rect class="cls-1" width="330" height="740"/></g><g id="Layer_2" data-name="Layer 2"><path class="cls-2" d="M529.5,538.5c-44.2-28.7-141.8,13.3-149.3,47.1-.6,2.7-1.7,10.3-7.6,16.7-10.7,11.5-32.9,14.3-42.8,4.9-11.8-11.2,0-33.7-7.6-38.2-12-7.2-37.8,51.2-86.5,59.8-33.9,6-48.7-17.3-68.5-5.9-30.4,17.5-9.3,80.6-35.2,98-23.6,15.9-52.9-49.2-110.3-47.1C-5.1,674.8-39,689.7-63,712c-17.1,15.8-18.6,25.6-33.3,30.4-22.6,7.4-32.7-11.1-74.2-18.6-16.8-3-48.6-6-78,9.8-4.2,2.3-25.3,13.7-23.8,24.5,1.2,8.1,14.4,12.3,19,13.7,652.8,205.7,782.7,0,782.7,0C579.2,693.2,577.1,569.4,529.5,538.5Z"/><path class="cls-3" d="M444.8,577.4c-37.3,18.9-37.1,39.6-65.7,43.4-10.7,1.4-35.2,1.9-62.6-5.9a11,11,0,0,0-1.5-.4c-67.5,45.4-104.8,45-126.5,35.3-6.1-2.7-17.6-9.2-24-3.6-12.5,10.8,15.1,49.3,4,80.5-14.7,41.1-94.2,61.6-129.7,28.9-22.4-20.7-15.8-51.7-33.6-58-23.3-8.2-35,44.3-85.7,61.5-55.1,18.7-123.6-15.2-131.6-23.9a6.65,6.65,0,0,0-3.7-2.3c-7.5-1.2-19.1,13.7-18.4,22.6,1.9,23.9,96.5,62.6,161,24.4,19.4-11.5,32-27.5,52.9-24.4,19.3,2.9,26.6,19.4,46.4,37.1C47.5,811.7,88,836.2,119,829.7c49.7-10.5,39.8-93.4,106.5-136.5,29.4-19,59.6-21.2,105.7-24.4,64.8-4.6,78.5,12.1,113.7-2.7,50.3-21.2,84.8-81.7,75.3-98.5C512.2,553.5,471,564.1,444.8,577.4Z"/><path class="cls-4" d="M18.4,696.3c2.5,10.6,9,31.7,25.6,47.4,24.8,23.3,62.2,24.9,66.5,13.5,4.7-12.5-27.2-49.5-64.1-58.9A76.45,76.45,0,0,0,18.4,696.3Z"/><path class="cls-4" d="M452.4,689c-2.4-17.2-148.3,5.4-188.4,13.5a77.14,77.14,0,0,0-25.3,9.9c-27.4,16.8-44.5,50.3-39.2,56.9,5.8,7.1,30.6-26.6,82.4-40.6,44-12,58.5,3.5,109.3-9.9C415.1,712.5,453.6,698,452.4,689Z"/><path class="cls-4" d="M449.2,706.2c-78.5,29.1-111.2,73-143.3,61.5-4.4-1.6-21.9-8.9-34.4,0-1.7,1.2-4.8,3.4-4.8,6.3,0,8.1,24.2,17.4,44.8,19,40.2,3.1,49.4-24,88.9-21.7,21.5,1.3,21.8,9.5,46.4,9.9,27.9.5,57.3-9.5,57.7-19.9.4-11.9-37.7-15.6-38.4-30.7-1-18.5,54.8-34.6,53.7-38.9C518.9,688.7,489.4,691.3,449.2,706.2Z"/><path class="cls-5" d="M-40.9,154.7c29.7,12.4,87.8-19,90-38.4a17.56,17.56,0,0,1,3.5-9.9c5.8-7.3,19.5-10.7,26.4-6.2,8.2,5.3,2.5,18.8,7.5,20.7,8,3,19.9-31.7,49.8-40.4,20.7-6.1,31.7,5.7,43.3-2.3,17.7-12.3,0-45.8,14.9-57.6,13.6-10.8,36.7,23.2,72.4,17.3,16.6-2.7,36.7-13.8,50.2-28.2C326.6-.5,326.9-6.1,335.7-10c13.6-6,21.2,3.5,47.8,4.4,10.7.3,30.8-.6,48.1-11.8,2.5-1.6,14.8-9.7,13.1-15.6-1.3-4.4-9.9-5.7-12.9-6.1C8.4-101.1-57.9,24.4-57.9,24.4-83.2,72.3-72.9,141.3-40.9,154.7Z"/><path class="cls-3" d="M9.3,126.1C31.2,112.5,29.6,101,47.2,96.5c6.6-1.7,21.9-3.9,39.6-1.8a6.73,6.73,0,0,0,1,.1c38.9-30.9,62.3-33.7,76.6-30,4,1,11.7,3.7,15.3.1,7-7.1-13.1-26.3-8.4-44.6,6.2-24.1,54.4-42.1,79-26.7,15.5,9.7,13.6,27.5,25.2,29.6,15.1,2.7,18.7-27.6,49.1-41.3,33.1-14.9,78.4-1.6,84,2.6a4.21,4.21,0,0,0,2.5,1c4.8.1,11-9.2,9.9-14.1-2.9-13.2-64.9-27.1-102.4-.5-11.3,8-18,18-31.3,17.9-12.3,0-18.1-8.6-31.7-16.9-14.8-8.9-41.9-19.3-60.8-13.1-30.3,9.9-18.1,55.4-56.7,84.9-17,13-35.7,16.7-64.3,22.2-40.2,7.8-50-.4-70.9,10.8C-27,92.7-44.2,129.3-37,137.9-31.1,144.9-6.2,135.7,9.3,126.1Z"/><path class="cls-4" d="M267.3,25c-2.4-5.7-7.9-17-19.5-24.4-17.2-11-40.7-8.9-42.6-2.1-2,7.4,20.6,25.4,44.4,27.7A58.88,58.88,0,0,0,267.3,25Z"/><path class="cls-4" d="M-3.6,64.4c2.7,9.4,92.4-15.1,116.9-22.9a54.53,54.53,0,0,0,15.1-7.6c15.9-11.6,24.2-31.7,20.3-35-4.1-3.5-17.2,17.3-48.6,29.4C73.4,38.6,63.2,31.1,32.5,42.8,18,48.2-5,59.5-3.6,64.4Z"/><path class="cls-4" d="M-2.8,54.5c47-22.6,64.3-49.8,85.2-46,2.9.5,14.4,3.2,21.5-2.8,1-.8,2.8-2.3,2.5-3.9C105.8-2.8,90-5.9,77-5.2,51.6-3.6,47.8,12.3,23,14.2c-13.6,1-14.3-3.5-29.8-1.8-17.5,2-35.1,10-34.6,15.8.6,6.7,24.7,5.7,26.3,14C-13.2,52.4-46.8,66-45.8,68.3-45.2,70-26.9,66.1-2.8,54.5Z"/><path class="cls-6" d="M170.9,627c7.5.7,21.2-.9,19.5,16.2-1.9,18.4-16.1,24.6-23.6,23.9s-11.7-20-10.9-27.6A13.8,13.8,0,0,1,170.9,627Z"/><path class="cls-7" d="M202.3,641.4c4,4.5,13.3,11-1.1,21.8-15.5,11.6-28.8,8.1-32.7,3.6s8.7-20.1,15.1-24.9S198.4,636.9,202.3,641.4Z"/><path class="cls-6" d="M205.2,678.3c-1.8,5.1-2.6,14.9-18,10.1-16.6-5.1-20-16.2-18.1-21.3s20.3-3.9,27.1-1.8S207,673.2,205.2,678.3Z"/><path class="cls-6" d="M156.7,696.5c-4.9-1.8-14.7-2.9-8.8-16.7,6.3-14.8,17.7-17.5,22.6-15.7s2.4,18.4-.2,24.6S161.6,698.3,156.7,696.5Z"/><path class="cls-7" d="M132.4,661.1c.8-5.2-.4-14.8,16-12.6,17.6,2.4,23.2,12.5,22.4,17.7s-19.5,7-26.7,6S131.6,666.3,132.4,661.1Z"/><path class="cls-8" d="M147.8,671.8c-1.3-3.7,1.3-7.9,6-9.4s14.2-1,15.5,2.8-6,9.4-10.7,10.8S149.1,675.6,147.8,671.8Z"/><path class="cls-9" d="M195.1,667.4c-.3,3.9-4.5,6.8-9.4,6.5s-13.5-4.2-13.1-8.1,9.5-6.5,14.3-6.1S195.4,663.5,195.1,667.4Z"/><path class="cls-10" d="M174.6,684.6a7.15,7.15,0,0,1-8.2-5.5c-.8-3.8.7-11.2,4.4-11.9s8.2,5.6,9,9.3A6.58,6.58,0,0,1,174.6,684.6Z"/><path class="cls-10" d="M158.1,649.5a7.55,7.55,0,0,1,9.9,1.9c2.4,3.1,4.3,10.4,1.2,12.5s-10-2-12.4-5.1S155,651.5,158.1,649.5Z"/><path class="cls-11" d="M177.2,646a6.6,6.6,0,0,1,4.3,8.5c-1.3,3.6-6.5,9.4-10.1,8.4s-4.2-8.6-3-12.2A7.23,7.23,0,0,1,177.2,646Z"/><ellipse class="cls-12" cx="171.4" cy="663.5" rx="8.3" ry="5.3"/><path class="cls-6" d="M301.2,681c9.1.9,25.8-1.1,23.7,21.3-2.3,24.2-19.5,32.2-28.7,31.3s-14.2-26.3-13.3-36.2S292.1,680.1,301.2,681Z"/><path class="cls-7" d="M339.5,699.9c4.8,6,16.2,14.4-1.3,28.5-18.9,15.3-35,10.7-39.8,4.7s10.6-26.4,18.3-32.7S334.7,694,339.5,699.9Z"/><path class="cls-6" d="M342.9,748.2c-2.2,6.6-3.2,19.5-22,13.3-20.2-6.7-24.3-21.3-22.1-27.9s24.7-5.2,33-2.4S345.2,741.6,342.9,748.2Z"/><path class="cls-6" d="M284,772.2c-6-2.4-17.8-3.8-10.7-21.8,7.7-19.5,21.5-22.9,27.5-20.6s3,24.2-.2,32.2S290,774.6,284,772.2Z"/><path class="cls-7" d="M254.4,725.7c1-6.8-.4-19.3,19.5-16.5,21.4,3.1,28.2,16.4,27.2,23.2s-23.7,9.1-32.5,7.8S253.5,732.5,254.4,725.7Z"/><path class="cls-8" d="M273.2,739.8c-1.6-4.9,1.6-10.4,7.3-12.3s17.2-1.3,18.8,3.6-7.3,12.3-13,14.1C280.7,747.2,274.8,744.7,273.2,739.8Z"/><path class="cls-9" d="M330.6,734c-.4,5.2-5.5,9-11.4,8.5s-16.4-5.5-16-10.6,11.5-8.5,17.4-8.1S331,728.9,330.6,734Z"/><path class="cls-10" d="M305.8,756.5c-4.5.9-9-2.3-10-7.2s.8-14.6,5.3-15.6,10,7.3,11,12.2S310.3,755.6,305.8,756.5Z"/><path class="cls-10" d="M285.6,710.5c3.7-2.7,9.1-1.6,12.1,2.5s5.2,13.7,1.5,16.4-12.1-2.6-15-6.7S281.9,713.2,285.6,710.5Z"/><path class="cls-11" d="M308.9,705.9c4.4,1.4,6.7,6.4,5.2,11.2s-7.9,12.4-12.2,11-5.2-11.3-3.6-16C299.8,707.2,304.6,704.5,308.9,705.9Z"/><ellipse class="cls-12" cx="301.9" cy="728.8" rx="10.1" ry="7"/><path class="cls-6" d="M13.9,17.3c7.3.6,20.7-.8,19,15.5C31,50.3,17.2,56.2,9.9,55.5S-1.5,36.5-.8,29.2A13.45,13.45,0,0,1,13.9,17.3Z"/><path class="cls-7" d="M44.5,31.1c3.9,4.3,13,10.4-1.1,20.7-15.1,11.1-28,7.7-31.9,3.4S20.1,36,26.3,31.5,40.7,26.7,44.5,31.1Z"/><path class="cls-6" d="M47.3,66.2c-1.8,4.8-2.5,14.2-17.6,9.6C13.5,70.9,10.3,60.4,12,55.5s19.7-3.8,26.4-1.8S49.1,61.3,47.3,66.2Z"/><path class="cls-6" d="M.1,83.5c-4.8-1.7-14.3-2.7-8.6-15.9,6.2-14.1,17.2-16.7,22-14.9s2.4,17.6-.2,23.4S4.9,85.3.1,83.5Z"/><path class="cls-7" d="M-23.6,49.8c.8-4.9-.4-14,15.6-12C9.2,40,14.6,49.7,13.8,54.6s-19,6.6-26,5.7S-24.4,54.7-23.6,49.8Z"/><path class="cls-8" d="M-8.6,60c-1.3-3.6,1.3-7.6,5.8-8.9s13.8-.9,15.1,2.6S6.4,62.6,1.9,64-7.3,63.6-8.6,60Z"/><path class="cls-9" d="M37.4,55.8c-.3,3.7-4.4,6.5-9.1,6.2s-13.1-4-12.8-7.7,9.2-6.2,13.9-5.9S37.7,52.1,37.4,55.8Z"/><path class="cls-10" d="M17.5,72.1a6.94,6.94,0,0,1-8-5.3c-.8-3.6.7-10.6,4.3-11.3s8,5.3,8.8,8.9A6.27,6.27,0,0,1,17.5,72.1Z"/><path class="cls-10" d="M1.4,38.8a7.62,7.62,0,0,1,9.7,1.8c2.4,2.9,4.2,9.9,1.2,11.9S2.6,50.6.3,47.7-1.6,40.7,1.4,38.8Z"/><path class="cls-11" d="M20.1,35.4a6.13,6.13,0,0,1,4.1,8.1c-1.3,3.4-6.3,9-9.8,8s-4.1-8.2-2.9-11.6A7.26,7.26,0,0,1,20.1,35.4Z"/><ellipse class="cls-12" cx="14.4" cy="52.1" rx="8.1" ry="5.1"/><path class="cls-6" d="M153.5-37.9c7.5.7,21.2-1,19.5,17.9C171.1.3,157,7,149.5,6.3s-11.7-22-10.9-30.4S146-38.7,153.5-37.9Z"/><path class="cls-7" d="M184.9-22c4,5,13.3,12.1-1.1,23.9-15.5,12.8-28.7,8.9-32.7,3.9s8.7-22.1,15.1-27.4S181-27.1,184.9-22Z"/><path class="cls-6" d="M187.8,18.5c-1.8,5.6-2.6,16.4-18,11.2-16.6-5.6-19.9-17.9-18.1-23.4s20.2-4.3,27.1-2C185.5,6.5,189.6,12.9,187.8,18.5Z"/><path class="cls-6" d="M139.4,38.6c-4.9-2-14.7-3.2-8.8-18.3C136.9,4,148.3,1,153.2,3s2.4,20.3-.2,27S144.3,40.6,139.4,38.6Z"/><path class="cls-7" d="M115.1-.4c.8-5.7-.4-16.2,16-13.8,17.6,2.6,23.2,13.8,22.4,19.5s-19.4,7.7-26.7,6.6S114.3,5.3,115.1-.4Z"/><path class="cls-8" d="M130.5,11.4c-1.3-4.1,1.3-8.7,6-10.3S150.6,0,152,4.2s-6,10.3-10.7,11.9S131.8,15.5,130.5,11.4Z"/><path class="cls-9" d="M177.7,6.6c-.3,4.3-4.5,7.5-9.4,7.2s-13.5-4.6-13.1-8.9,9.4-7.1,14.3-6.8S178,2.3,177.7,6.6Z"/><path class="cls-10" d="M157.3,25.5c-3.7.8-7.4-2-8.2-6.1s.7-12.3,4.4-13.1,8.2,6.1,9,10.3S161,24.7,157.3,25.5Z"/><path class="cls-10" d="M140.7-13.1c3.1-2.3,7.5-1.3,9.9,2.1S154.9.5,151.8,2.7,141.9.5,139.5-2.9,137.6-10.9,140.7-13.1Z"/><path class="cls-11" d="M159.9-17c3.6,1.2,5.5,5.4,4.2,9.4S157.6,2.8,154,1.6s-4.2-9.4-3-13.5S156.3-18.2,159.9-17Z"/><ellipse class="cls-12" cx="154" cy="2.2" rx="8.3" ry="5.9"/><path class="cls-6" d="M103.3,63.3c4.7.4,13.2-.5,12.1,9.4-1.2,10.7-10,14.3-14.7,13.9s-7.3-11.6-6.8-16A8.61,8.61,0,0,1,103.3,63.3Z"/><path class="cls-7" d="M122.9,71.7c2.5,2.6,8.3,6.4-.7,12.6-9.6,6.8-17.9,4.7-20.3,2.1s5.4-11.7,9.4-14.5S120.4,69,122.9,71.7Z"/><path class="cls-6" d="M124.6,93.1c-1.1,2.9-1.6,8.7-11.2,5.9-10.3-3-12.4-9.4-11.3-12.4s12.6-2.3,16.8-1.1S125.8,90.2,124.6,93.1Z"/><path class="cls-6" d="M94.5,103.7c-3.1-1.1-9.1-1.7-5.5-9.7,3.9-8.6,11-10.2,14.1-9.1s1.5,10.7-.1,14.3S97.6,104.8,94.5,103.7Z"/><path class="cls-7" d="M79.4,83.1c.5-3-.2-8.6,10-7.3,11,1.4,14.4,7.3,13.9,10.3s-12.1,4-16.6,3.5S78.9,86.1,79.4,83.1Z"/><path class="cls-8" d="M89,89.4c-.8-2.2.8-4.6,3.7-5.4s8.8-.6,9.6,1.6-3.7,5.4-6.6,6.3C92.8,92.6,89.8,91.5,89,89.4Z"/><path class="cls-9" d="M118.3,86.8c-.2,2.3-2.8,4-5.8,3.8s-8.4-2.4-8.2-4.7,5.9-3.8,8.9-3.6S118.5,84.5,118.3,86.8Z"/><path class="cls-10" d="M105.6,96.8a4.42,4.42,0,0,1-5.1-3.2c-.5-2.2.4-6.5,2.7-6.9s5.1,3.2,5.6,5.4A3.86,3.86,0,0,1,105.6,96.8Z"/><path class="cls-10" d="M95.3,76.4a4.94,4.94,0,0,1,6.2,1.1c1.5,1.8,2.7,6.1.8,7.3s-6.2-1.1-7.7-3A3.51,3.51,0,0,1,95.3,76.4Z"/><path class="cls-11" d="M107.3,74.3a3.75,3.75,0,0,1,2.6,5c-.8,2.1-4,5.5-6.3,4.9s-2.6-5-1.9-7.1A4.76,4.76,0,0,1,107.3,74.3Z"/><ellipse class="cls-12" cx="103.6" cy="84.5" rx="5.2" ry="3.1"/><circle class="cls-13" cx="171" cy="353" r="100"/><path class="cls-14" d="M238.3,34.7a38,38,0,0,1-12.6-11.2c-2.3-3.2-4.4-6.3-3.2-9.5s4.9-3.2,5.3-5.5c.9-5.8-16.2-13.7-20.3-10.9-2.8,1.9,1.3,8.2-.8,9.1C204,7.9,198-3.3,186.4-4.8c-4.8-.6-10.6.3-14.3,3-9.2,6.8-5.3,24.6,6.8,34,8.5,6.6,22.7,4.1,23.3,7.9.5,2.7-6.3,4.4-6,7.3.4,4.6,20.9,4.8,21.1,7.3.1,2.8-26.9,2.8-29.3,10.3-2,6.1,14.4,9.8,18,23.7,2,7.6-1.8,10.2.8,17.6a28.67,28.67,0,0,0,15.8,16.4,34.13,34.13,0,0,0,11.4,2.6c10.8.8,22.4-2.8,29.2-9.3,2.6-2.6,2.1-3.2,4.5-4.9,6.4-4.4,18.7-5.7,24.1-.6,2,1.8,4,5.5,2.3,7.9-2.8,3.9-11.8.2-21.8,4.9-5.5,2.5-5,4.7-9.8,7.3-9.4,5.2-21.1,2.3-27.8,1.8-31.2-2.3-63.1,39.5-61.7,40.7.6.5,7.8-7,25.6-15.8,12.7-6.3,25.1-12.3,40.6-11.5,8.5.4,7.8,2.3,20.3,4.3,12.8,2,28.5,4.4,41.4-1.2,16.4-7.1,13.8-21.1,29.3-24.3,8.1-1.7,12.4,1.5,20.3-1.8,8.5-3.5,7.2-8.6,13.5-12.1,15.6-8.7,44.2,10.7,51.1,4.3,2.5-2.4,1.4-7.4-1.5-9.7s-7.1-1.6-12.8-1.2c-8.3.5-21.3,1.3-31.6-2.4-9.6-3.5-10.4-8.6-18.8-9.1-5.4-.3-6.6,1.7-12,2.4-12.3,1.6-17.4-7.5-37.6-14-10.1-3.2-19-6.1-28.6-3.6-10,2.6-11.4,8.7-21.8,12.1-2.5.8-18,6.1-26.3,0-4.7-3.5-7.2-10.7-3.8-15.2,7.5-9.7,37.3,1.6,45.9-8.5,4.1-4.8,2.4-13.4-3-17.6-12.1-9.5-42.6,3-45.9-2.4-1.8-3,6.7-8.4,4.5-10.9-1.5-1.8-6.2.1-14.3,0-4.7-.1-15.2-.2-20.3-5.5-5.3-5.4-4.3-15.7,1.5-18.2,5.6-2.5,14.5,2.8,18,4.9,4.8,2.8,6.3,5,9.8,7.9C220.6,27.2,227.3,31.5,238.3,34.7Z"/><path class="cls-15" d="M43.4,518.3a40.7,40.7,0,0,1-10.5-13c-1.9-3.7-3.7-7.4-2.6-11.1s4.1-3.7,4.4-6.4c.7-6.8-13.5-16-16.9-12.8-2.3,2.2,1.1,9.6-.6,10.6C14.9,486.9,10,474,.3,472.1a13.3,13.3,0,0,0-11.9,3.5c-7.7,8-4.5,28.7,5.6,39.7,7.1,7.7,18.9,4.8,19.4,9.2.4,3.2-5.2,5.2-5,8.5.4,5.4,17.5,5.6,17.6,8.5C26,545,3.5,545,1.4,553.8c-1.7,7.1,12,11.4,15.1,27.7,1.7,8.8-1.5,11.9.6,20.6.6,2.4,3.6,13.5,13.2,19.1a23,23,0,0,0,9.5,3.1,27.36,27.36,0,0,0,24.4-10.9c2.2-3,1.7-3.7,3.8-5.7,5.4-5.1,15.6-6.7,20.1-.7,1.6,2.2,3.3,6.4,1.9,9.2-2.3,4.5-9.8.3-18.2,5.7-4.6,2.9-4.2,5.4-8.2,8.5-7.9,6.1-17.6,2.7-23.2,2.1C14.3,629.8-12.2,678.7-11,680c.5.6,6.5-8.2,21.3-18.4,10.6-7.4,20.9-14.3,33.9-13.5,7.1.5,6.5,2.7,16.9,5,10.7,2.3,23.8,5.1,34.5-1.4,13.7-8.3,11.5-24.7,24.5-28.4,6.8-1.9,10.3,1.7,16.9-2.1,7.1-4.1,6-10.1,11.3-14.2,13-10.1,36.8,12.5,42.6,5,2.1-2.8,1.2-8.7-1.3-11.3s-5.9-1.8-10.7-1.4c-6.9.6-17.8,1.5-26.3-2.8-8-4.1-8.6-10.1-15.7-10.6-4.5-.4-5.5,2-10,2.8-10.3,1.9-14.5-8.7-31.4-16.3-8.4-3.8-15.9-7.2-23.8-4.3-8.3,3-9.5,10.1-18.2,14.2-2.1,1-15,7.1-21.9,0-3.9-4-6-12.5-3.1-17.7,6.3-11.3,31.1,1.9,38.3-9.9,3.4-5.6,2-15.6-2.5-20.6-10.1-11-35.5,3.6-38.3-2.8-1.5-3.6,5.6-9.8,3.8-12.8-1.3-2.1-5.2.1-11.9,0-4-.1-12.7-.3-16.9-6.4-4.4-6.4-3.6-18.3,1.3-21.3,4.7-2.9,12.1,3.2,15.1,5.7,4,3.3,5.2,5.8,8.2,9.2C28.7,509.6,34.3,514.6,43.4,518.3Z"/></g></svg>
