<svg xmlns="http://www.w3.org/2000/svg" viewBox="0 0 377.5 123.82"><defs><style>.cls-1{fill:#fff;}.cls-1,.cls-2{stroke:#000;stroke-miterlimit:10;}.cls-2{fill:none;}</style></defs><g id="Layer_4" data-name="Layer 4"><path class="cls-1" d="M.64,61.31c12.53,18.79,29.36,28.92,41,25,4.14-1.39,8.78-4.94,12-9,7.27-9.14,3.88-16.5,11-22a17.42,17.42,0,0,1,15-3,16.19,16.19,0,0,1,7.18,4.54c4.1,4.55,3.24,9.17,4.82,9.46,3.14.59,3.6-18.34,16-28,9.24-7.19,17.28-3.15,25-12,4.91-5.63,2.68-8.44,7-14,8.51-10.94,29.39-15.77,41-8,10.66,7.14,9,21.91,17,23,5.32.74,6.74-5.75,16-8,7.05-1.7,17-.54,23,6a26.69,26.69,0,0,1,6.12,16.52c0,.4,0,.74,0,.74,0,1.25-.18,1.57-.12,1.74.35,1,7.69-2.36,12-1,8.53,2.71,6,24.39,13,26,3.25.75,4.12-3.85,11-5h0s9-1.2,15,2,4.66,8.63,9,10c6.83,2.16,12.24-10.56,22-10,6.3.37,7,5.83,14,9,16,7.3,36.07-10.75,38-8,1.6,2.29-9.67,18.55-26,21-9.21,1.39-12.87-2.7-22,0-9.66,2.86-9.12,8.48-18,13,0,0-8.46,4.32-48-3h0c-10.3,16.82-14,18-14,18s-3.4,1.09-20-5h0s-7.88,5.74-13,7c-12.35,3.07-18.94-17.29-36-18-9.38-.38-9.76,5.68-22,6-14,.38-17.42-7.42-26-5-12.29,3.48-12.43,21.52-21,22s-10.72-17.2-23-20c-11.54-2.62-18.38,11-30,13C46.22,118.27,28.46,109.24.64,61.31Z"/><path class="cls-2" d="M242.64,44.31s-5,12-12,6c0,0-9.48-6.91-1.74-16"/><path class="cls-1" d="M195.88,26.88s-.27,23-19.75,18.73c0,0-10.49-.3-9.49-14.3s12-7,12-7"/><path class="cls-1" d="M91.64,66.31S89.81,80.52,79.72,80.42,66.5,75.64,69.57,70,80,70,80,70"/><path class="cls-2" d="M228.64,111.31s-10.18-12.24-3.09-17.12,17.09-3,17.09-3,7,6.63,0,9.86"/></g></svg>
