<?xml version="1.0" encoding="utf-8"?>
<!-- Generator: Adobe Illustrator 25.0.1, SVG Export Plug-In . SVG Version: 6.00 Build 0)  -->
<svg version="1.1" id="Layer_1" xmlns="http://www.w3.org/2000/svg" xmlns:xlink="http://www.w3.org/1999/xlink" x="0px" y="0px"
	 viewBox="0 0 330 740" style="enable-background:new 0 0 330 740;" xml:space="preserve">
<style type="text/css">
	.st0{fill:url(#SVGID_1_);}
	.st1{opacity:0.83;fill:url(#SVGID_2_);enable-background:new    ;}
	.st2{fill:#256329;}
	.st3{fill:#216D21;}
	.st4{opacity:0.83;fill:url(#SVGID_3_);enable-background:new    ;}
	.st5{opacity:0.88;fill:#F4AA4A;enable-background:new    ;}
	.st6{opacity:0.88;fill:#E58E38;enable-background:new    ;}
	.st7{opacity:0.8;fill:#DD8CC8;enable-background:new    ;}
	.st8{opacity:0.89;fill:#DD8CC8;enable-background:new    ;}
	.st9{opacity:0.86;fill:#DD8CC8;enable-background:new    ;}
	.st10{opacity:0.72;fill:#DD8CC8;enable-background:new    ;}
	.st11{fill:#001300;}
	.st12{fill:#AA1B18;}
	.st13{opacity:0.57;fill:#7AA5B6;enable-background:new    ;}
	.st14{opacity:0.59;fill:#7AA5B6;enable-background:new    ;}
	.st15{fill:#FFFFFF;stroke:#000000;stroke-miterlimit:10;}
	.st16{fill:#FFFFFF;}
</style>
<g id="Layer_1_1_">
	<g>

			<linearGradient id="SVGID_1_" gradientUnits="userSpaceOnUse" x1="164.7788" y1="50.147" x2="165.1193" y2="542.5069" gradientTransform="matrix(1 0 0 -1 0 740)">
			<stop  offset="0.1318" style="stop-color:#E09C85"/>
			<stop  offset="0.2421" style="stop-color:#D09888"/>
			<stop  offset="0.4571" style="stop-color:#A78E8E"/>
			<stop  offset="0.7533" style="stop-color:#657D99"/>
			<stop  offset="0.8022" style="stop-color:#597A9B"/>
			<stop  offset="0.8289" style="stop-color:#4F769C"/>
			<stop  offset="0.9413" style="stop-color:#2868A0"/>
			<stop  offset="1" style="stop-color:#1963A2"/>
			<stop  offset="1" style="stop-color:#000000"/>
		</linearGradient>
		<rect class="st0" width="330" height="740"/>
	</g>
</g>
<g id="Layer_2_1_">
	<g>

			<linearGradient id="SVGID_2_" gradientUnits="userSpaceOnUse" x1="-272.3762" y1="43.9112" x2="565.9788" y2="43.9112" gradientTransform="matrix(1 0 0 -1 0 740)">
			<stop  offset="0" style="stop-color:#666666"/>
			<stop  offset="0" style="stop-color:#77807F"/>
			<stop  offset="9.242158e-02" style="stop-color:#617C72"/>
			<stop  offset="0.2666" style="stop-color:#3E755D"/>
			<stop  offset="0.4435" style="stop-color:#236F4C"/>
			<stop  offset="0.6218" style="stop-color:#106B40"/>
			<stop  offset="0.8024" style="stop-color:#046939"/>
			<stop  offset="0.9889" style="stop-color:#006837"/>
		</linearGradient>
		<path class="st1" d="M529.5,538.5c-44.2-28.7-141.8,13.3-149.3,47.1c-0.6,2.7-1.7,10.3-7.6,16.7c-10.7,11.5-32.9,14.3-42.8,4.9
			c-11.8-11.2,0-33.7-7.6-38.2c-12-7.2-37.8,51.2-86.5,59.8c-33.9,6-48.7-17.3-68.5-5.9c-30.4,17.5-9.3,80.6-35.2,98
			c-23.6,15.9-52.9-49.2-110.3-47.1C-5.1,674.8-39,689.7-63,712c-17.1,15.8-18.6,25.6-33.3,30.4c-22.6,7.4-32.7-11.1-74.2-18.6
			c-16.8-3-48.6-6-78,9.8c-4.2,2.3-25.3,13.7-23.8,24.5c1.2,8.1,14.4,12.3,19,13.7c652.8,205.7,782.7,0,782.7,0
			C579.2,693.2,577.1,569.4,529.5,538.5z"/>
		<path class="st2" d="M444.8,577.4c-37.3,18.9-37.1,39.6-65.7,43.4c-10.7,1.4-35.2,1.9-62.6-5.9c-0.9-0.3-1.5-0.4-1.5-0.4
			c-67.5,45.4-104.8,45-126.5,35.3c-6.1-2.7-17.6-9.2-24-3.6c-12.5,10.8,15.1,49.3,4,80.5c-14.7,41.1-94.2,61.6-129.7,28.9
			c-22.4-20.7-15.8-51.7-33.6-58c-23.3-8.2-35,44.3-85.7,61.5c-55.1,18.7-123.6-15.2-131.6-23.9c-0.4-0.4-1.7-2-3.7-2.3
			c-7.5-1.2-19.1,13.7-18.4,22.6c1.9,23.9,96.5,62.6,161,24.4c19.4-11.5,32-27.5,52.9-24.4c19.3,2.9,26.6,19.4,46.4,37.1
			c21.4,19.1,61.9,43.6,92.9,37.1c49.7-10.5,39.8-93.4,106.5-136.5c29.4-19,59.6-21.2,105.7-24.4c64.8-4.6,78.5,12.1,113.7-2.7
			c50.3-21.2,84.8-81.7,75.3-98.5C512.2,553.5,471,564.1,444.8,577.4z"/>
		<path class="st3" d="M18.4,696.3c2.5,10.6,9,31.7,25.6,47.4c24.8,23.3,62.2,24.9,66.5,13.5c4.7-12.5-27.2-49.5-64.1-58.9
			C35.4,695.4,25.7,695.5,18.4,696.3z"/>
		<path class="st3" d="M452.4,689c-2.4-17.2-148.3,5.4-188.4,13.5c-3.6,0.7-13.8,2.9-25.3,9.9c-27.4,16.8-44.5,50.3-39.2,56.9
			c5.8,7.1,30.6-26.6,82.4-40.6c44-12,58.5,3.5,109.3-9.9C415.1,712.5,453.6,698,452.4,689z"/>
		<path class="st3" d="M449.2,706.2c-78.5,29.1-111.2,73-143.3,61.5c-4.4-1.6-21.9-8.9-34.4,0c-1.7,1.2-4.8,3.4-4.8,6.3
			c0,8.1,24.2,17.4,44.8,19c40.2,3.1,49.4-24,88.9-21.7c21.5,1.3,21.8,9.5,46.4,9.9c27.9,0.5,57.3-9.5,57.7-19.9
			c0.4-11.9-37.7-15.6-38.4-30.7c-1-18.5,54.8-34.6,53.7-38.9C518.9,688.7,489.4,691.3,449.2,706.2z"/>
	</g>
	<g>

			<linearGradient id="SVGID_3_" gradientUnits="userSpaceOnUse" x1="-468.4179" y1="-97.632" x2="491.296" y2="-97.632" gradientTransform="matrix(-0.5464 7.120122e-02 8.246149e-02 0.6328 201.3308 96.4897)">
			<stop  offset="0" style="stop-color:#666666"/>
			<stop  offset="0" style="stop-color:#77807F"/>
			<stop  offset="9.242158e-02" style="stop-color:#617C72"/>
			<stop  offset="0.2666" style="stop-color:#3E755D"/>
			<stop  offset="0.4435" style="stop-color:#236F4C"/>
			<stop  offset="0.6218" style="stop-color:#106B40"/>
			<stop  offset="0.8024" style="stop-color:#046939"/>
			<stop  offset="0.9889" style="stop-color:#006837"/>
		</linearGradient>
		<path class="st4" d="M-40.9,154.7c29.7,12.4,87.8-19,90-38.4c0.2-1.6,0.3-5.9,3.5-9.9c5.8-7.3,19.5-10.7,26.4-6.2
			c8.2,5.3,2.5,18.8,7.5,20.7c8,3,19.9-31.7,49.8-40.4c20.7-6.1,31.7,5.7,43.3-2.3c17.7-12.3,0-45.8,14.9-57.6
			c13.6-10.8,36.7,23.2,72.4,17.3c16.6-2.7,36.7-13.8,50.2-28.2c9.5-10.2,9.8-15.8,18.6-19.7c13.6-6,21.2,3.5,47.8,4.4
			c10.7,0.3,30.8-0.6,48.1-11.8c2.5-1.6,14.8-9.7,13.1-15.6c-1.3-4.4-9.9-5.7-12.9-6.1C8.4-101.1-57.9,24.4-57.9,24.4
			C-83.2,72.3-72.9,141.3-40.9,154.7z"/>
		<path class="st2" d="M9.3,126.1c21.9-13.6,20.3-25.1,37.9-29.6c6.6-1.7,21.9-3.9,39.6-1.8c0.6,0.1,1,0.1,1,0.1
			c38.9-30.9,62.3-33.7,76.6-30c4,1,11.7,3.7,15.3,0.1c7-7.1-13.1-26.3-8.4-44.6c6.2-24.1,54.4-42.1,79-26.7
			c15.5,9.7,13.6,27.5,25.2,29.6c15.1,2.7,18.7-27.6,49.1-41.3c33.1-14.9,78.4-1.6,84,2.6c0.3,0.2,1.2,1,2.5,1
			c4.8,0.1,11-9.2,9.9-14.1c-2.9-13.2-64.9-27.1-102.4-0.5c-11.3,8-18,18-31.3,17.9c-12.3,0-18.1-8.6-31.7-16.9
			c-14.8-8.9-41.9-19.3-60.8-13.1c-30.3,9.9-18.1,55.4-56.7,84.9c-17,13-35.7,16.7-64.3,22.2c-40.2,7.8-50-0.4-70.9,10.8
			c-29.9,16-47.1,52.6-39.9,61.2C-31.1,144.9-6.2,135.7,9.3,126.1z"/>
		<path class="st3" d="M267.3,25c-2.4-5.7-7.9-17-19.5-24.4c-17.2-11-40.7-8.9-42.6-2.1c-2,7.4,20.6,25.4,44.4,27.7
			C256.7,26.8,262.8,26,267.3,25z"/>
		<path class="st3" d="M-3.6,64.4c2.7,9.4,92.4-15.1,116.9-22.9c2.2-0.7,8.4-2.8,15.1-7.6c15.9-11.6,24.2-31.7,20.3-35
			c-4.1-3.5-17.2,17.3-48.6,29.4c-26.7,10.3-36.9,2.8-67.6,14.5C18,48.2-5,59.5-3.6,64.4z"/>
		<path class="st3" d="M-2.8,54.5c47-22.6,64.3-49.8,85.2-46c2.9,0.5,14.4,3.2,21.5-2.8c1-0.8,2.8-2.3,2.5-3.9
			C105.8-2.8,90-5.9,77-5.2C51.6-3.6,47.8,12.3,23,14.2c-13.6,1-14.3-3.5-29.8-1.8c-17.5,2-35.1,10-34.6,15.8
			c0.6,6.7,24.7,5.7,26.3,14c1.9,10.2-31.7,23.8-30.7,26.1C-45.2,70-26.9,66.1-2.8,54.5z"/>
	</g>
	<g>
		<path class="st5" d="M170.9,627c7.5,0.7,21.2-0.9,19.5,16.2c-1.9,18.4-16.1,24.6-23.6,23.9c-7.5-0.7-11.7-20-10.9-27.6
			C156.6,631.9,163.3,626.3,170.9,627z"/>
		<path class="st6" d="M202.3,641.4c4,4.5,13.3,11-1.1,21.8c-15.5,11.6-28.8,8.1-32.7,3.6c-4-4.5,8.7-20.1,15.1-24.9
			C190,637.1,198.4,636.9,202.3,641.4z"/>
		<path class="st5" d="M205.2,678.3c-1.8,5.1-2.6,14.9-18,10.1c-16.6-5.1-20-16.2-18.1-21.3c1.8-5.1,20.3-3.9,27.1-1.8
			S207,673.2,205.2,678.3z"/>
		<path class="st5" d="M156.7,696.5c-4.9-1.8-14.7-2.9-8.8-16.7c6.3-14.8,17.7-17.5,22.6-15.7c4.9,1.8,2.4,18.4-0.2,24.6
			S161.6,698.3,156.7,696.5z"/>
		<path class="st6" d="M132.4,661.1c0.8-5.2-0.4-14.8,16-12.6c17.6,2.4,23.2,12.5,22.4,17.7s-19.5,7-26.7,6
			C136.8,671.2,131.6,666.3,132.4,661.1z"/>
		<path class="st7" d="M147.8,671.8c-1.3-3.7,1.3-7.9,6-9.4c4.6-1.4,14.2-1,15.5,2.8s-6,9.4-10.7,10.8
			C154,677.4,149.1,675.6,147.8,671.8z"/>
		<path class="st8" d="M195.1,667.4c-0.3,3.9-4.5,6.8-9.4,6.5s-13.5-4.2-13.1-8.1c0.3-3.9,9.5-6.5,14.3-6.1
			C191.7,660,195.4,663.5,195.1,667.4z"/>
		<path class="st9" d="M174.6,684.6c-3.7,0.7-7.4-1.8-8.2-5.5c-0.8-3.8,0.7-11.2,4.4-11.9s8.2,5.6,9,9.3
			C180.7,680.2,178.4,683.9,174.6,684.6z"/>
		<path class="st9" d="M158.1,649.5c3.1-2,7.5-1.2,9.9,1.9c2.4,3.1,4.3,10.4,1.2,12.5c-3.1,2-10-2-12.4-5.1
			C154.5,655.7,155,651.5,158.1,649.5z"/>
		<path class="st10" d="M177.2,646c3.6,1.1,5.5,4.9,4.3,8.5c-1.3,3.6-6.5,9.4-10.1,8.4c-3.6-1.1-4.2-8.6-3-12.2
			C169.7,647,173.6,644.9,177.2,646z"/>
		<ellipse class="st11" cx="171.4" cy="663.5" rx="8.3" ry="5.3"/>
	</g>
	<g>
		<path class="st5" d="M301.2,681c9.1,0.9,25.8-1.1,23.7,21.3c-2.3,24.2-19.5,32.2-28.7,31.3c-9.1-0.9-14.2-26.3-13.3-36.2
			C283.9,687.5,292.1,680.1,301.2,681z"/>
		<path class="st6" d="M339.5,699.9c4.8,6,16.2,14.4-1.3,28.5c-18.9,15.3-35,10.7-39.8,4.7s10.6-26.4,18.3-32.7
			S334.7,694,339.5,699.9z"/>
		<path class="st5" d="M342.9,748.2c-2.2,6.6-3.2,19.5-22,13.3c-20.2-6.7-24.3-21.3-22.1-27.9c2.2-6.6,24.7-5.2,33-2.4
			C340.2,734,345.2,741.6,342.9,748.2z"/>
		<path class="st5" d="M284,772.2c-6-2.4-17.8-3.8-10.7-21.8c7.7-19.5,21.5-22.9,27.5-20.6c6,2.4,3,24.2-0.2,32.2
			C297.4,770,290,774.6,284,772.2z"/>
		<path class="st6" d="M254.4,725.7c1-6.8-0.4-19.3,19.5-16.5c21.4,3.1,28.2,16.4,27.2,23.2s-23.7,9.1-32.5,7.8
			C259.8,739,253.5,732.5,254.4,725.7z"/>
		<path class="st7" d="M273.2,739.8c-1.6-4.9,1.6-10.4,7.3-12.3c5.6-1.9,17.2-1.3,18.8,3.6c1.6,4.9-7.3,12.3-13,14.1
			C280.7,747.2,274.8,744.7,273.2,739.8z"/>
		<path class="st8" d="M330.6,734c-0.4,5.2-5.5,9-11.4,8.5s-16.4-5.5-16-10.6s11.5-8.5,17.4-8.1C326.5,724.3,331,728.9,330.6,734z"
			/>
		<path class="st9" d="M305.8,756.5c-4.5,0.9-9-2.3-10-7.2s0.8-14.6,5.3-15.6c4.5-0.9,10,7.3,11,12.2
			C313.1,750.8,310.3,755.6,305.8,756.5z"/>
		<path class="st9" d="M285.6,710.5c3.7-2.7,9.1-1.6,12.1,2.5c2.9,4.1,5.2,13.7,1.5,16.4s-12.1-2.6-15-6.7
			C281.2,718.7,281.9,713.2,285.6,710.5z"/>
		<path class="st10" d="M308.9,705.9c4.4,1.4,6.7,6.4,5.2,11.2s-7.9,12.4-12.2,11c-4.4-1.4-5.2-11.3-3.6-16
			C299.8,707.2,304.6,704.5,308.9,705.9z"/>
		<ellipse class="st11" cx="301.9" cy="728.8" rx="10.1" ry="7"/>
	</g>
	<g>
		<path class="st5" d="M13.9,17.3c7.3,0.6,20.7-0.8,19,15.5C31,50.3,17.2,56.2,9.9,55.5s-11.4-19-10.7-26.3S6.5,16.7,13.9,17.3z"/>
		<path class="st6" d="M44.5,31.1c3.9,4.3,13,10.4-1.1,20.7c-15.1,11.1-28,7.7-31.9,3.4S20.1,36,26.3,31.5S40.7,26.7,44.5,31.1z"/>
		<path class="st5" d="M47.3,66.2c-1.8,4.8-2.5,14.2-17.6,9.6C13.5,70.9,10.3,60.4,12,55.5s19.7-3.8,26.4-1.8
			C45.1,55.8,49.1,61.3,47.3,66.2z"/>
		<path class="st5" d="M0.1,83.5c-4.8-1.7-14.3-2.7-8.6-15.9c6.2-14.1,17.2-16.7,22-14.9s2.4,17.6-0.2,23.4
			C10.8,82,4.9,85.3,0.1,83.5z"/>
		<path class="st6" d="M-23.6,49.8c0.8-4.9-0.4-14,15.6-12C9.2,40,14.6,49.7,13.8,54.6s-19,6.6-26,5.7
			C-19.3,59.5-24.4,54.7-23.6,49.8z"/>
		<path class="st7" d="M-8.6,60c-1.3-3.6,1.3-7.6,5.8-8.9c4.5-1.4,13.8-0.9,15.1,2.6c1.3,3.6-5.9,8.9-10.4,10.3S-7.3,63.6-8.6,60z"
			/>
		<path class="st8" d="M37.4,55.8c-0.3,3.7-4.4,6.5-9.1,6.2s-13.1-4-12.8-7.7s9.2-6.2,13.9-5.9C34.2,48.8,37.7,52.1,37.4,55.8z"/>
		<path class="st9" d="M17.5,72.1c-3.6,0.7-7.2-1.7-8-5.3c-0.8-3.6,0.7-10.6,4.3-11.3s8,5.3,8.8,8.9S21.2,71.5,17.5,72.1z"/>
		<path class="st9" d="M1.4,38.8c3-1.9,7.3-1.1,9.7,1.8s4.2,9.9,1.2,11.9s-9.7-1.9-12-4.8S-1.6,40.7,1.4,38.8z"/>
		<path class="st10" d="M20.1,35.4c3.5,1,5.4,4.7,4.1,8.1s-6.3,9-9.8,8s-4.1-8.2-2.9-11.6S16.6,34.4,20.1,35.4z"/>
		<ellipse class="st11" cx="14.4" cy="52.1" rx="8.1" ry="5.1"/>
	</g>
	<g>
		<path class="st5" d="M153.5-37.9c7.5,0.7,21.2-1,19.5,17.9c-1.9,20.3-16,27-23.5,26.3s-11.7-22-10.9-30.4
			C139.3-32.5,146-38.7,153.5-37.9z"/>
		<path class="st6" d="M184.9-22c4,5,13.3,12.1-1.1,23.9c-15.5,12.8-28.7,8.9-32.7,3.9s8.7-22.1,15.1-27.4S181-27.1,184.9-22z"/>
		<path class="st5" d="M187.8,18.5c-1.8,5.6-2.6,16.4-18,11.2c-16.6-5.6-19.9-17.9-18.1-23.4s20.2-4.3,27.1-2
			C185.5,6.5,189.6,12.9,187.8,18.5z"/>
		<path class="st5" d="M139.4,38.6c-4.9-2-14.7-3.2-8.8-18.3C136.9,4,148.3,1,153.2,3s2.4,20.3-0.2,27S144.3,40.6,139.4,38.6z"/>
		<path class="st6" d="M115.1-0.4c0.8-5.7-0.4-16.2,16-13.8c17.6,2.6,23.2,13.8,22.4,19.5s-19.4,7.7-26.7,6.6S114.3,5.3,115.1-0.4z"
			/>
		<path class="st7" d="M130.5,11.4c-1.3-4.1,1.3-8.7,6-10.3c4.6-1.6,14.1-1.1,15.5,3.1s-6,10.3-10.7,11.9
			C136.6,17.6,131.8,15.5,130.5,11.4z"/>
		<path class="st8" d="M177.7,6.6c-0.3,4.3-4.5,7.5-9.4,7.2c-4.9-0.4-13.5-4.6-13.1-8.9c0.3-4.3,9.4-7.1,14.3-6.8
			C174.3-1.6,178,2.3,177.7,6.6z"/>
		<path class="st9" d="M157.3,25.5c-3.7,0.8-7.4-2-8.2-6.1s0.7-12.3,4.4-13.1s8.2,6.1,9,10.3S161,24.7,157.3,25.5z"/>
		<path class="st9" d="M140.7-13.1c3.1-2.3,7.5-1.3,9.9,2.1s4.3,11.5,1.2,13.7c-3.1,2.3-9.9-2.2-12.3-5.6S137.6-10.9,140.7-13.1z"/>
		<path class="st10" d="M159.9-17c3.6,1.2,5.5,5.4,4.2,9.4S157.6,2.8,154,1.6s-4.2-9.4-3-13.5C152.3-15.9,156.3-18.2,159.9-17z"/>
		<ellipse class="st11" cx="154" cy="2.2" rx="8.3" ry="5.9"/>
	</g>
	<g>
		<path class="st5" d="M103.3,63.3c4.7,0.4,13.2-0.5,12.1,9.4c-1.2,10.7-10,14.3-14.7,13.9s-7.3-11.6-6.8-16S98.6,62.9,103.3,63.3z"
			/>
		<path class="st6" d="M122.9,71.7c2.5,2.6,8.3,6.4-0.7,12.6c-9.6,6.8-17.9,4.7-20.3,2.1c-2.5-2.6,5.4-11.7,9.4-14.5
			C115.2,69.1,120.4,69,122.9,71.7z"/>
		<path class="st5" d="M124.6,93.1c-1.1,2.9-1.6,8.7-11.2,5.9c-10.3-3-12.4-9.4-11.3-12.4c1.1-2.9,12.6-2.3,16.8-1.1
			C123.2,86.8,125.8,90.2,124.6,93.1z"/>
		<path class="st5" d="M94.5,103.7c-3.1-1.1-9.1-1.7-5.5-9.7c3.9-8.6,11-10.2,14.1-9.1s1.5,10.7-0.1,14.3
			C101.4,102.8,97.6,104.8,94.5,103.7z"/>
		<path class="st6" d="M79.4,83.1c0.5-3-0.2-8.6,10-7.3c11,1.4,14.4,7.3,13.9,10.3s-12.1,4-16.6,3.5C82.1,89,78.9,86.1,79.4,83.1z"
			/>
		<path class="st7" d="M89,89.4c-0.8-2.2,0.8-4.6,3.7-5.4c2.9-0.8,8.8-0.6,9.6,1.6s-3.7,5.4-6.6,6.3C92.8,92.6,89.8,91.5,89,89.4z"
			/>
		<path class="st8" d="M118.3,86.8c-0.2,2.3-2.8,4-5.8,3.8s-8.4-2.4-8.2-4.7c0.2-2.3,5.9-3.8,8.9-3.6
			C116.2,82.5,118.5,84.5,118.3,86.8z"/>
		<path class="st9" d="M105.6,96.8c-2.3,0.4-4.6-1-5.1-3.2s0.4-6.5,2.7-6.9c2.3-0.4,5.1,3.2,5.6,5.4S107.9,96.4,105.6,96.8z"/>
		<path class="st9" d="M95.3,76.4c1.9-1.2,4.7-0.7,6.2,1.1c1.5,1.8,2.7,6.1,0.8,7.3c-1.9,1.2-6.2-1.1-7.7-3
			C93.1,80,93.4,77.6,95.3,76.4z"/>
		<path class="st10" d="M107.3,74.3c2.2,0.6,3.4,2.8,2.6,5c-0.8,2.1-4,5.5-6.3,4.9c-2.2-0.6-2.6-5-1.9-7.1
			C102.6,74.9,105,73.7,107.3,74.3z"/>
		<ellipse class="st11" cx="103.6" cy="84.5" rx="5.2" ry="3.1"/>
	</g>
	<circle class="st12" cx="171" cy="353" r="100"/>
	<path class="st13" d="M238.3,34.7c-6.9-4-10.7-8.4-12.6-11.2c-2.3-3.2-4.4-6.3-3.2-9.5c1.3-3.1,4.9-3.2,5.3-5.5
		c0.9-5.8-16.2-13.7-20.3-10.9c-2.8,1.9,1.3,8.2-0.8,9.1c-2.7,1.2-8.7-10-20.3-11.5c-4.8-0.6-10.6,0.3-14.3,3
		c-9.2,6.8-5.3,24.6,6.8,34c8.5,6.6,22.7,4.1,23.3,7.9c0.5,2.7-6.3,4.4-6,7.3c0.4,4.6,20.9,4.8,21.1,7.3c0.1,2.8-26.9,2.8-29.3,10.3
		c-2,6.1,14.4,9.8,18,23.7c2,7.6-1.8,10.2,0.8,17.6c0.7,2,4.4,11.5,15.8,16.4c5,2.1,9.4,2.5,11.4,2.6c10.8,0.8,22.4-2.8,29.2-9.3
		c2.6-2.6,2.1-3.2,4.5-4.9c6.4-4.4,18.7-5.7,24.1-0.6c2,1.8,4,5.5,2.3,7.9c-2.8,3.9-11.8,0.2-21.8,4.9c-5.5,2.5-5,4.7-9.8,7.3
		c-9.4,5.2-21.1,2.3-27.8,1.8c-31.2-2.3-63.1,39.5-61.7,40.7c0.6,0.5,7.8-7,25.6-15.8c12.7-6.3,25.1-12.3,40.6-11.5
		c8.5,0.4,7.8,2.3,20.3,4.3c12.8,2,28.5,4.4,41.4-1.2c16.4-7.1,13.8-21.1,29.3-24.3c8.1-1.7,12.4,1.5,20.3-1.8
		c8.5-3.5,7.2-8.6,13.5-12.1c15.6-8.7,44.2,10.7,51.1,4.3c2.5-2.4,1.4-7.4-1.5-9.7c-2.9-2.2-7.1-1.6-12.8-1.2
		c-8.3,0.5-21.3,1.3-31.6-2.4c-9.6-3.5-10.4-8.6-18.8-9.1c-5.4-0.3-6.6,1.7-12,2.4c-12.3,1.6-17.4-7.5-37.6-14
		c-10.1-3.2-19-6.1-28.6-3.6c-10,2.6-11.4,8.7-21.8,12.1c-2.5,0.8-18,6.1-26.3,0c-4.7-3.5-7.2-10.7-3.8-15.2
		c7.5-9.7,37.3,1.6,45.9-8.5c4.1-4.8,2.4-13.4-3-17.6c-12.1-9.5-42.6,3-45.9-2.4c-1.8-3,6.7-8.4,4.5-10.9c-1.5-1.8-6.2,0.1-14.3,0
		c-4.7-0.1-15.2-0.2-20.3-5.5c-5.3-5.4-4.3-15.7,1.5-18.2c5.6-2.5,14.5,2.8,18,4.9c4.8,2.8,6.3,5,9.8,7.9
		C220.6,27.2,227.3,31.5,238.3,34.7z"/>
	<path class="st14" d="M43.4,518.3c-5.7-4.7-8.9-9.8-10.5-13c-1.9-3.7-3.7-7.4-2.6-11.1s4.1-3.7,4.4-6.4c0.7-6.8-13.5-16-16.9-12.8
		c-2.3,2.2,1.1,9.6-0.6,10.6c-2.3,1.3-7.2-11.6-16.9-13.5c-4-0.8-8.8,0.3-11.9,3.5c-7.7,8-4.5,28.7,5.6,39.7
		c7.1,7.7,18.9,4.8,19.4,9.2c0.4,3.2-5.2,5.2-5,8.5c0.4,5.4,17.5,5.6,17.6,8.5c0,3.5-22.5,3.5-24.6,12.3c-1.7,7.1,12,11.4,15.1,27.7
		c1.7,8.8-1.5,11.9,0.6,20.6c0.6,2.4,3.6,13.5,13.2,19.1c4.2,2.5,7.9,2.9,9.5,3.1c9,1,18.7-3.2,24.4-10.9c2.2-3,1.7-3.7,3.8-5.7
		c5.4-5.1,15.6-6.7,20.1-0.7c1.6,2.2,3.3,6.4,1.9,9.2c-2.3,4.5-9.8,0.3-18.2,5.7c-4.6,2.9-4.2,5.4-8.2,8.5
		c-7.9,6.1-17.6,2.7-23.2,2.1C14.3,629.8-12.2,678.7-11,680c0.5,0.6,6.5-8.2,21.3-18.4c10.6-7.4,20.9-14.3,33.9-13.5
		c7.1,0.5,6.5,2.7,16.9,5c10.7,2.3,23.8,5.1,34.5-1.4c13.7-8.3,11.5-24.7,24.5-28.4c6.8-1.9,10.3,1.7,16.9-2.1
		c7.1-4.1,6-10.1,11.3-14.2c13-10.1,36.8,12.5,42.6,5c2.1-2.8,1.2-8.7-1.3-11.3c-2.4-2.6-5.9-1.8-10.7-1.4
		c-6.9,0.6-17.8,1.5-26.3-2.8c-8-4.1-8.6-10.1-15.7-10.6c-4.5-0.4-5.5,2-10,2.8c-10.3,1.9-14.5-8.7-31.4-16.3
		c-8.4-3.8-15.9-7.2-23.8-4.3c-8.3,3-9.5,10.1-18.2,14.2c-2.1,1-15,7.1-21.9,0c-3.9-4-6-12.5-3.1-17.7c6.3-11.3,31.1,1.9,38.3-9.9
		c3.4-5.6,2-15.6-2.5-20.6c-10.1-11-35.5,3.6-38.3-2.8c-1.5-3.6,5.6-9.8,3.8-12.8c-1.3-2.1-5.2,0.1-11.9,0c-4-0.1-12.7-0.3-16.9-6.4
		c-4.4-6.4-3.6-18.3,1.3-21.3c4.7-2.9,12.1,3.2,15.1,5.7c4,3.3,5.2,5.8,8.2,9.2C28.7,509.6,34.3,514.6,43.4,518.3z"/>
	<g>
		<path class="st15" d="M-444.1,377.8c0.3-0.7,16.4,4,22.8-1.3c2.4-2,1.3-3.6,3-7.8c3.2-7.9,13.4-16.9,22.6-16.4
			c5.6,0.3,6.6,6.2,10.5,5.6c3.5-0.6,3.1-5.1,8.8-7.7c4.6-2.1,9.9-1.3,11.4-1.1c2,0.3,5.4,0.8,7.3,3c2.1,2.3,1,4.9,1.8,5
			c1.8,0.2,3.5-14.3,15.2-19.8c6.3-3,13.3-2.2,15.3-2c1.7,0.2,11.7,1.3,14.1,6.4c2.1,4.5-2.9,10.3-2.7,10.3c0.2,0.1,2-7.6,8.9-10.7
			c5.1-2.3,11.4-1.4,14.2-1c2.9,0.4,5.1,0.7,6.6,2.2c2.8,2.7,0.7,6.8,2.1,7.1c1.2,0.3,2.5-3,6.8-5.2c3.5-1.8,9.1-3.1,11.3-1.5
			c3.2,2.3-2.8,8.9,0.3,10.8c2.3,1.4,6.2-1.6,10.9-0.1c3,1,5.4,3.5,4.7,5.5c-0.7,2.1-4.4,2.2-4.7,3.7c-0.5,2.5,9.1,6.9,16.7,4.8
			c2.4-0.7,4.8-2.5,9.6-6c5.2-3.9,6.3-5.4,6.8-5.2c1.1,0.5-2.6,11.8-12.4,15.1c-2.1,0.7-6.1,0.9-14.2,1.4c-6.9,0.4-7.8-0.4-10.3,0.5
			c-5.4,2-5.1,6.5-9.6,9.9c-5.3,4.1-14.5,4.9-20.8,3.6c-5.3-1.1-5.8-4.4-9.2-4c-4.5,0.5-4.2,5.8-9.8,8.2c-6.2,2.7-10.9-2-22.5-1
			c-7.8,0.7-7,2.9-13.9,3.6c-14.4,1.3-18.9-8.4-31.9-6.3c-5.1,0.8-6.9,2.8-12.3,2.5c-4.9-0.2-7-2-12-3.6c-6-2-9-1.5-18.1-2.4
			C-433.1,382.2-444.3,378.4-444.1,377.8z"/>
		<g>
			<path class="st16" d="M-356.8,357.1c0.5,6.7-7.9,14-16.3,8.5c-3.3-2.2-5.2-5.9-0.4-8.5c4.2-2.3,9.5-0.1,6.6,3.7"/>
			<g>
				<path d="M-357.6,357.1c0.3,5.5-5,10.2-10.4,9.6c-2.7-0.3-5.9-1.9-7.3-4.4c-1.4-2.7,1.6-4.7,3.9-5.3c1.2-0.3,2.8-0.3,3.9,0.5
					s0.6,2,0,2.9c-0.6,0.8,0.7,1.5,1.3,0.8c0.8-1.1,1.3-2.7,0.5-3.9c-0.7-1.2-2.1-1.7-3.5-1.8c-3-0.3-7.5,1.5-7.9,5
					c-0.4,3.3,3.2,5.9,5.8,7c3.4,1.4,7.3,1.1,10.3-1s5.1-5.6,4.9-9.3C-356.1,356.1-357.6,356.1-357.6,357.1L-357.6,357.1z"/>
			</g>
		</g>
		<g>
			<path class="st16" d="M-311.8,346.4c0.3,10.3-19.7,15-23.3,4.2c-1.4-4.2,2.8-10.9,10.1-8.8c9.7,2.8-2.9,12.5-4.4,6.9"/>
			<g>
				<path d="M-312.6,346.4c0.2,8.2-12.1,11.7-18.2,8.3c-1.7-0.9-3-2.5-3.6-4.3c-0.6-2,0.1-4.3,1.4-5.9c1.8-2.1,4.6-2.8,7.2-2.1
					c1.5,0.4,3.8,1.2,3.5,3.1c-0.3,2.1-5.6,6.3-6.5,3c-0.3-0.9-1.7-0.5-1.4,0.4c1.3,4.4,6.9,1.4,8.6-1.1c1.1-1.5,1.3-3.5,0-4.9
					c-1.9-2.1-5.6-2.6-8.2-2c-2.7,0.7-4.9,2.8-5.9,5.4c-0.9,2.4-0.4,5,1.1,7c2.9,4.1,8.5,4.8,13.1,3.7c5.1-1.2,10.5-4.9,10.4-10.7
					C-311.1,345.5-312.6,345.5-312.6,346.4L-312.6,346.4z"/>
			</g>
		</g>
		<g>
			<path class="st16" d="M-284.8,343.3c0.7,4.3,3.7,6.8-1.5,10.8c-5.7,4.4-14,0.5-10.5-5.2c0.7-0.1,1.3,0.1,1.7,0.6"/>
			<g>
				<path d="M-285.5,343.5c0.3,1.7,1.1,3.3,1.4,5c0.3,1.8-0.6,3.2-1.9,4.4c-1.6,1.4-3.5,2.3-5.6,2.3c-1.5,0-3.2-0.4-4.3-1.5
					c-1.3-1.3-1.1-3-0.2-4.5c-0.2,0.1-0.4,0.2-0.6,0.4c0.5,0,0.8,0,1.2,0.3c0.7,0.7,1.8-0.4,1.1-1.1c-0.5-0.5-1.2-0.8-1.9-0.8
					c-0.9,0-1.1,0.5-1.4,1.2c-0.4,1-0.6,2.1-0.4,3.1c0.4,2,2.1,3.3,3.9,3.9c2.3,0.7,4.8,0.4,6.9-0.6c2.1-1.1,4.5-3.1,4.8-5.5
					s-1.1-4.7-1.4-7C-284.3,342.1-285.7,342.6-285.5,343.5L-285.5,343.5z"/>
			</g>
		</g>
		<g>
			<path class="st16" d="M-253.3,362.7c-3.1,1.6-7.4,1.1-7.1-2.2"/>
			<g>
				<path d="M-253.7,362c-0.7,0.3-1.4,0.6-2.2,0.7c-0.6,0.1-1.4,0.1-2,0c-0.4-0.1-0.6-0.2-0.8-0.3c-0.1-0.1-0.2-0.1-0.4-0.2
					c0.1,0.1-0.1-0.1-0.1-0.1l-0.1-0.1c0,0-0.1-0.2-0.1-0.1c-0.1-0.1-0.1-0.1-0.1-0.2s-0.1-0.1-0.1-0.2c0.1,0.1,0-0.1,0-0.1
					c0-0.1,0-0.2-0.1-0.2c0,0,0-0.3,0-0.1c0-0.2,0-0.4,0-0.6c0.1-1-1.4-1-1.5,0c-0.1,1.8,1.1,3.2,2.8,3.7c1.8,0.5,3.8,0.1,5.5-0.8
					C-252.1,362.9-252.8,361.6-253.7,362L-253.7,362z"/>
			</g>
		</g>
	</g>
	<g>
		<path class="st15" d="M613.4,378.5c0.1-2.5,13.9,0.4,26.6-10.2c9.2-7.7,7.7-14,18.1-24.9c4.7-4.9,17.5-18.8,29.6-15.4
			c1.5,0.4,5.5,2.4,9.8,5.9c2.1,1.7,2.4,2.3,5.4,4.9c5.3,4.7,7.9,7.1,9.4,7.2c7.1,0.9,10-15.4,18.5-17.9c7.7-2.3,11.7,11.8,19,9.4
			c3.7-1.3,3.4-4.8,8.3-8.2c6.7-4.7,16.8-4.6,21.1,1.4c3.6,5,0.6,10.3,3.5,16c3.9,7.9,12.4,0.9,22.5,7.6c8.5,5.6,7.2,13.1,15.8,17.4
			c8.5,4.3,15.2-0.9,16,1.5c1.3,4.5-20.4,24.5-29.8,17.7c-3.4-2.5-4.4-8-6.1-7.4c-2.7,0.9,0.2,15-4.5,19.7c-4.3,4.3-10-6.3-18.2-4.4
			c-11.3,2.6-12,24.6-23.6,27.6c-6.8,1.7-15.1-3.7-17.5-10.8c-1.7-5-0.3-10.1-1.6-10.6c-2-0.7-4.7,11.5-11.4,16.9
			c-6.6,5.4-11-1.8-26.8-2.5c-13.7-0.6-17.5,4.1-24.1-0.3c-6.1-4.1-6.4-10.6-10.2-17.6C649.8,377.2,613.2,382.6,613.4,378.5z"/>
		<path class="st15" d="M698.3,354.8"/>
		<g>
			<g>
				<path d="M705.6,342.3c2.6,4.1,2.7,8.7,0,12.7c-2.4,3.6-6.4,6.3-10.4,7.8s-8.4,2-12.2-0.2c-4.6-2.6-6.9-8.4-6.3-13.5
					c0.2-2.4,1-5.3,2.7-7c2.2-2.2,3.8,1.2,4.4,3c0.3,0.9,1.8,0.5,1.4-0.4c-0.7-1.9-2-5-4.5-4.9c-2.1,0-3.5,2.3-4.3,4
					c-2.5,5.5-1.7,12.3,2.1,17c7.1,8.8,20.6,4,26.9-3.3c1.8-2.1,3.2-4.6,3.6-7.4c0.4-3.1-0.5-6.1-2.2-8.7
					C706.4,340.7,705.1,341.5,705.6,342.3L705.6,342.3z"/>
			</g>
		</g>
		<g>
			<g>
				<path d="M744.5,337.9c6,2.9,6.1,12,3.1,17.1c-1.5,2.6-4.3,4.5-7.4,3.7c-4.7-1.2-6-7.7-4.7-11.7c0.4-1.3,1.9-4.2,3.8-3.5
					c1.8,0.7-0.2,3.5-0.9,4.2c-0.6,0.7,0.4,1.8,1.1,1.1c1.2-1.4,2.7-3.6,1.7-5.5c-0.8-1.5-2.7-1.6-4-0.8c-2.2,1.2-3.2,4-3.5,6.4
					c-0.3,2.8,0.3,5.8,1.9,8.1c2.6,3.7,7.5,4.5,11.1,1.6c3-2.5,4.3-6.8,4.3-10.6c0.1-4.4-1.5-9.3-5.7-11.3
					C744.4,336.1,743.6,337.4,744.5,337.9L744.5,337.9z"/>
			</g>
		</g>
		<g>
			<g>
				<path d="M780.7,341.1c0.8,4.6,0.2,9.5-1.2,13.9c-1.3,3.8-3.8,8.4-8.2,8.9c-3.2,0.3-5.9-1.2-6.8-4.4c-0.8-2.7-0.3-5.8,0.8-8.4
					c0.5-1.1,1.2-2.3,2.3-2.8c1-0.5,1.9,0.2,2.6,0.9c0.6,0.7,1.7-0.3,1.1-1.1c-2-2.3-4.7-1.7-6.3,0.7c-1.9,2.7-2.6,6.4-2.1,9.6
					c0.5,3.5,2.6,6.4,6.2,6.9c5,0.7,8.8-2.6,10.8-6.9c2.6-5.3,3.5-11.9,2.4-17.7C782,339.8,780.5,340.2,780.7,341.1L780.7,341.1z"/>
			</g>
		</g>
		<g>
			<g>
				<path d="M737.4,406.9c-0.2-3.5,0.9-7.2,3.8-9.3c2.5-1.8,5.9-2.1,8.6-0.6c2.4,1.3,3.7,3.9,4.1,6.5c0.3,2.2,0.1,4.9-1.2,6.8
					c-0.5,0.8-1.2,1.3-1.9,1.4c-1.1,0-2.1-0.9-2.9-1.8c-0.6-0.7-1.7,0.3-1.1,1.1c1.7,1.9,4.2,3.1,6.3,1.2c1.9-1.8,2.4-4.9,2.3-7.4
					c-0.1-3.1-1.3-6.3-3.8-8.2c-2.9-2.2-6.8-2.5-10-0.9c-4.2,2.2-6,6.9-5.7,11.4C735.9,407.9,737.4,407.9,737.4,406.9L737.4,406.9z"
					/>
			</g>
		</g>
		<g>
			<g>
				<path d="M671.6,418.2c1.7,2.5,4.3,4.1,7.4,4c2.9-0.1,5.8-1.5,7.9-3.5c2.3-2.2,3.9-5.1,4.2-8.2c0.3-3.3-1-6.4-2.9-9
					c-1.1-1.6-2.7-3.1-4.7-3.3c-1.5-0.2-3,0.6-4.1,1.7c-2.3,2.3-3.7,6.1-3.7,9.4c0,1.3,0.3,2.8,1.5,3.7c1.3,0.9,2.9,0.4,4.2-0.3
					c0.5-0.3,0.9-0.6,1.4-0.9c0.8-0.6,0-1.9-0.8-1.3c-0.7,0.5-1.5,1-2.3,1.3c-0.6,0.2-1,0.3-1.4,0.1c-0.3-0.1-0.5-0.3-0.7-0.6
					c-0.2-0.3-0.3-0.9-0.4-1.3c-0.3-2.7,0.8-5.8,2.4-8.1c0.7-1,1.7-1.8,2.8-2.1c0.5-0.1,1-0.1,1.6,0.1c0.7,0.2,1.3,0.8,1.8,1.3
					c1.8,1.8,3.2,4.4,3.6,6.9c0.4,2.8-0.4,5.6-2,7.8c-1.7,2.4-4.3,4.3-7.2,4.8c-2.9,0.6-5.6-0.7-7.3-3.1
					C672.3,416.6,671,417.4,671.6,418.2L671.6,418.2z"/>
			</g>
		</g>
	</g>
</g>
</svg>
