<svg xmlns="http://www.w3.org/2000/svg" viewBox="0 0 344.07 142.69"><defs><style>.cls-1{fill:#fff;stroke:#000;stroke-miterlimit:10;}</style></defs><g id="Layer_2" data-name="Layer 2"><path class="cls-1" d="M.25,74.23c.23-3.58,21.32.57,40.88-14.32C55.31,49.11,52.94,40.3,68.94,25,76.1,18.09,95.86-1.45,114.49,3.32c2.29.59,8.47,3.39,15.08,8.3,3.17,2.35,3.75,3.25,8.3,7,8.12,6.6,12.18,9.91,14.4,10.17C163.11,30,167.63,7.11,180.67,3.55c11.9-3.25,18,16.59,29.16,13.14,5.73-1.77,5.16-6.69,12.69-11.5,10.34-6.6,25.78-6.49,32.42,2,5.48,7,.88,14.41,5.31,22.54,6.05,11.1,19.09,1.29,34.52,10.65,13,7.89,11,18.36,24.34,24.51,13.09,6.05,23.42-1.32,24.55,2.13,2.07,6.35-31.3,34.48-45.76,24.8-5.24-3.52-6.77-11.18-9.3-10.4-4.07,1.26.37,21.07-7,27.73-6.59,6-15.36-8.81-27.95-6.15-17.39,3.68-18.41,34.51-36.24,38.74-10.37,2.46-23.13-5.19-26.92-15.23-2.68-7.09-.44-14.2-2.48-14.87-3.13-1-7.18,16.1-17.46,23.75-10.11,7.53-16.87-2.56-41.18-3.51-21-.83-26.95,5.75-37.05-.49-9.39-5.8-9.76-14.86-15.69-24.75C56.13,72.36-.12,80,.25,74.23Z"/><path d="M142.16,23.26a15.9,15.9,0,0,1,3.23,9.59,15.58,15.58,0,0,1-3.14,8.43c-3.85,5.35-10,9.06-16.16,11.26s-13,3-19.07-.06a19.54,19.54,0,0,1-10.13-19.7c.46-3.46,1.75-7.72,4.61-10,3.49-2.77,6,1.86,7.17,4.68.35.89,1.8.51,1.44-.39-1.12-2.85-3.23-7.16-7-6.64C100,20.88,98,24.26,97,26.88a21.57,21.57,0,0,0,4.64,23.57c5.56,5.37,13.45,6.51,20.74,4.78a38.63,38.63,0,0,0,19.32-10.87,18.86,18.86,0,0,0,5.1-10,16.66,16.66,0,0,0-3.3-11.82c-.55-.79-1.85,0-1.29.75Z"/><path d="M201.84,16.9c9.14,4.05,9.74,17.29,4.73,24.75-2.69,4-7.7,6.36-12.45,4.7C187.3,44,185.07,34.75,188,28.7c1-2,3.41-5,6-3.94,2.88,1.2-.19,5.11-1.37,6.31-.67.69.39,1.75,1.06,1.06,1.75-1.79,4.05-4.89,2.43-7.46-1.24-2-3.9-1.86-5.72-.87-3.11,1.69-4.68,5.53-5.08,8.87a15.41,15.41,0,0,0,3,11.15,11.63,11.63,0,0,0,16.4,2c4.41-3.43,6.39-9.35,6.44-14.77.06-6.22-2.6-12.79-8.57-15.43-.88-.39-1.64.9-.76,1.29Z"/><path d="M257.65,21.68a37.54,37.54,0,0,1-2,20c-2.16,5.79-6.39,11.95-13.13,12.42-4.79.33-9.25-1.58-10.69-6.44a16.75,16.75,0,0,1,1.41-12.1,8.16,8.16,0,0,1,3.65-3.95c1.68-.7,3.21.16,4.36,1.39.66.71,1.72-.35,1.06-1.06a5.53,5.53,0,0,0-4.91-2,7.14,7.14,0,0,0-4.3,3A18.36,18.36,0,0,0,230,46.06a10.58,10.58,0,0,0,9.43,9.41,14.21,14.21,0,0,0,9.44-2,20.11,20.11,0,0,0,6.69-7.85,38.67,38.67,0,0,0,3.55-24.34c-.19-1-1.64-.55-1.45.4Z"/><path d="M190.28,114.12c-.36-5.14,1.54-10.27,5.89-13.25a13.56,13.56,0,0,1,13.23-1.23,12.52,12.52,0,0,1,7,9.31,13.69,13.69,0,0,1-1.66,9.92,4.57,4.57,0,0,1-3.4,2.21c-1.9.08-3.53-1.3-4.77-2.59-.66-.7-1.72.37-1.06,1.06,2.49,2.6,6.18,4.3,9.24,1.58,2.8-2.48,3.59-6.89,3.36-10.45A14.56,14.56,0,0,0,212,99.36a15,15,0,0,0-14.86-.8c-5.84,2.92-8.79,9.2-8.35,15.56.06,1,1.56,1,1.5,0Z"/><path d="M89.9,129.84a13,13,0,0,0,10.64,5.48A18.87,18.87,0,0,0,112.05,131a18.18,18.18,0,0,0,6.72-10.71c.81-4.64-.82-8.89-3.48-12.64-1.68-2.36-3.94-4.82-6.9-5.41a7.45,7.45,0,0,0-6.25,1.81,17.85,17.85,0,0,0-5.86,13c0,1.82.41,4,2,5.08,1.85,1.31,4.28.56,6.12-.34a17.7,17.7,0,0,0,2.15-1.25c.81-.52.06-1.82-.75-1.29-1.59,1-4,2.59-6,2-1.32-.4-1.83-1.84-2-3.15-.44-4,1.39-8.66,4-11.65a7.5,7.5,0,0,1,4.71-2.84c2.3-.23,4.32,1.2,5.83,2.79,2.64,2.78,4.86,6.61,5.11,10.49a15,15,0,0,1-4,10.64c-5.61,6.34-16.56,9.4-22.33,1.57-.57-.76-1.87,0-1.29.76Z"/></g></svg>
