<svg xmlns="http://www.w3.org/2000/svg" viewBox="0 0 435.75 152.98"><defs><style>.cls-1{fill:#fff;stroke:#000;stroke-miterlimit:10;}</style></defs><g id="Layer_2" data-name="Layer 2"><path class="cls-1" d="M.51,57.45c.56-3.51,26.91,3.34,52.81-8.84C72.08,39.79,69.77,30.77,91.18,17.7c9.59-5.86,36.08-22.6,59.28-15.46,2.85.88,10.46,4.45,18.44,10.16,3.82,2.74,4.49,3.7,10,8,9.76,7.58,14.64,11.38,17.44,11.92,13.61,2.67,21.08-19.37,37.86-21.2C249.45,9.41,255.63,29.81,270,27.86c7.38-1,7-5.95,16.94-9.72,13.58-5.18,33.09-3.06,40.85,6.18,6.38,7.62,0,14.36,5,23,6.8,11.75,24.05,3.75,42.84,15,15.83,9.49,12.56,19.58,28.9,27.39,16.09,7.68,29.73,1.74,30.89,5.3,2.13,6.54-42.24,30-59.79,18.54-6.36-4.15-7.7-11.92-11-11.48-5.25.72-1.16,20.87-11,26.5-8.79,5.06-18.74-10.71-34.87-9.72-22.29,1.38-25.94,31.71-48.82,33.57-13.31,1.08-28.85-8.14-32.88-18.55-2.85-7.35.53-14.09-2-15-3.88-1.42-10.31,15-23.91,21.2-13.36,6.12-21.14-4.72-51.81-8.83-26.55-3.56-34.53,2.18-46.83-5.3-11.43-7-11.2-16-17.93-26.5C71.33,62.86-.4,63.11.51,57.45Z"/><path d="M188.13,29.64c2.05,2.73,3.67,6,3.38,9.45a12.37,12.37,0,0,1-4,7.66c-5.22,5.11-12.83,7.72-19.83,9.21-7.71,1.65-15.85,2-23.36-.77-8.37-3.06-16.49-11.29-14.81-20.93C130.17,30.31,132.4,26,136,24c4.52-2.5,7.84,1.56,9.42,5.47.36.88,1.81.49,1.45-.4-1.48-3.64-4.22-7.85-8.73-7.33-3.78.44-6.7,3.78-8.35,7a16.87,16.87,0,0,0-1.24,12.85,22.25,22.25,0,0,0,8.71,11.71c7.61,5.32,17.18,6.18,26.14,5,8.09-1.1,16.69-3.63,23.21-8.74,2.91-2.28,5.51-5.34,6.21-9.08.79-4.2-.93-8.2-3.42-11.51-.57-.76-1.87,0-1.29.76Z"/><path d="M255.05,23.08a14.76,14.76,0,0,1,8.89,12.4,16,16,0,0,1-5.61,13.35A16,16,0,0,1,241,50.27c-6.23-3.48-9.34-12.11-4.28-17.93,1.79-2.07,5.08-3.76,7.82-2.51,3.36,1.55-.49,4.87-2.13,5.94-.81.53-.06,1.83.75,1.3,2.1-1.37,5.46-4.15,3.81-7-1.27-2.2-4.43-2.39-6.62-1.78A11,11,0,0,0,233.12,36a13.18,13.18,0,0,0,1.95,10.81c4.33,6.39,13.2,8.48,20.21,5.58a17,17,0,0,0,10.07-13.65,16.3,16.3,0,0,0-9.54-16.93c-.87-.41-1.64.89-.76,1.29Z"/><path d="M329.33,43.1c1.14,6.55-.72,13.76-4.06,19.41-3.79,6.42-10.13,10.88-17.79,10.51-5.26-.26-11.47-2.14-13.16-7.76-1.19-4,.14-8.57,2.7-11.76a9.22,9.22,0,0,1,5-3.42,6.16,6.16,0,0,1,5.69,2A.75.75,0,0,0,308.79,51c-3.36-3.38-7.94-3.18-11.41-.08a15.28,15.28,0,0,0-4.91,12.71c.7,6,5.7,9.4,11.28,10.43a21.21,21.21,0,0,0,12-1,21.74,21.74,0,0,0,8.84-7c4.94-6.41,7.57-15.43,6.18-23.47-.17-1-1.61-.54-1.45.4Z"/><path d="M98.52,106.49C98.39,94.81,112,90.84,121.39,93.74c4.8,1.49,9.24,4.72,10.64,9.74,1,3.53.41,7.78-2.13,10.55-3.37,3.67-8,2-11.09-1.08-.69-.68-1.75.38-1.06,1.06,3.11,3.06,7.73,5.13,11.72,2.37,3.47-2.4,4.88-7,4.44-11-1.34-12.15-16.8-16.52-26.83-12.7C101.15,94.9,97,100,97,106.49a.75.75,0,0,0,1.5,0Z"/><path d="M236.17,123.45c2.47-9.92-4.72-19.45-13.23-23.76-3.92-2-8.6-3.17-12.95-2-4.57,1.23-7.22,4.9-8.69,9.2-2.13,6.23-2.05,14,4.55,17.34a16.27,16.27,0,0,0,15.09-.39c1.72-1.06,3.21-2.73,3.19-4.85,0-2.68-2.22-4.82-4.2-6.32a26.84,26.84,0,0,0-2.56-1.68.75.75,0,0,0-.75,1.29c3.15,1.86,8.7,6.14,4.39,9.69-3.35,2.75-8.86,2.94-12.81,1.63a9.76,9.76,0,0,1-5.42-4.18c-1.54-2.63-1.55-5.85-1-8.76.81-4,2.43-8.43,6.2-10.56,3.51-2,7.81-1.56,11.48-.27,8.09,2.86,15.85,10.83,15.68,19.85a14.79,14.79,0,0,1-.46,3.37c-.23.94,1.22,1.34,1.45.4Z"/></g></svg>
