<svg xmlns="http://www.w3.org/2000/svg" viewBox="0 0 372.56 98.48"><defs><style>.cls-1,.cls-2{fill:#fff;}.cls-1{stroke:#000;stroke-miterlimit:10;}</style></defs><g id="Layer_3" data-name="Layer 3"><path class="cls-1" d="M.5,71.42c.43-1.09,27.18,6.7,37.85-2.06,4-3.31,2.17-6,5-12.93,5.33-13.16,22.14-28.16,37.39-27.28,9.2.52,10.9,10.31,17.41,9.27,5.86-.94,5.13-8.46,14.53-12.73,7.7-3.51,16.32-2.14,18.82-1.75,3.32.53,8.88,1.41,12.08,4.92,3.49,3.83,1.73,8.11,3,8.27,3,.4,5.87-23.79,25.22-32.91,10.48-4.93,22-3.67,25.29-3.31,2.77.3,19.46,2.13,23.32,10.67,3.42,7.57-4.73,17.11-4.42,17.19s3.31-12.62,14.81-17.83c8.49-3.84,18.83-2.34,23.61-1.65s8.43,1.23,10.95,3.62c4.69,4.46,1.12,11.33,3.46,11.83,2.06.43,4.2-5,11.25-8.7,5.8-3.06,15.09-5.07,18.73-2.45,5.24,3.78-4.66,14.76.46,18,3.73,2.37,10.29-2.71,18.07-.2,5,1.61,9,5.83,7.86,9.08-1.16,3.47-7.33,3.63-7.77,6.08-.76,4.09,15.14,11.48,27.71,7.92,3.93-1.11,7.9-4.08,15.84-10,8.61-6.44,10.5-9,11.24-8.69,1.89.8-4.33,19.58-20.52,25.07-3.41,1.16-10.11,1.56-23.51,2.36-11.48.69-13-.69-17.05.79-9,3.28-8.53,10.79-15.93,16.53-8.78,6.79-24.08,8.06-34.48,6-8.74-1.78-9.59-7.32-15.16-6.68-7.42.85-7,9.69-16.31,13.69-10.3,4.43-18.14-3.29-37.37-1.61-13,1.13-11.66,4.84-23,5.91C144.92,100,137.49,83.86,116,87.35c-8.52,1.39-11.42,4.58-20.42,4.12-8.15-.41-11.63-3.31-19.85-6.07-9.95-3.32-14.93-2.45-30.07-4C18.73,78.63.15,72.34.5,71.42Z"/><path class="cls-2" d="M145.14,37c.78,11.17-13.11,23.3-27,14-5.48-3.65-8.65-9.75-.65-14.1,6.91-3.76,15.78-.22,11,6.2"/><path d="M144.39,37c.55,9.59-8.89,17.77-18.26,16.43-4.55-.64-9.94-3.43-12.07-7.71-2.36-4.71,2.76-8.33,6.86-9.27,2.16-.5,4.82-.49,6.72.79,2.14,1.44,1.49,3.73.19,5.54-.57.78.73,1.53,1.29.75,1.27-1.75,2.08-4.07.83-6.06-1.13-1.77-3.33-2.54-5.32-2.75-4.76-.5-11.94,2.35-12.65,7.72s5.08,9.35,9.25,11.14a17.4,17.4,0,0,0,16.7-1.52c4.88-3.32,8.31-9,8-15.06-.06-1-1.56-1-1.5,0Z"/><path class="cls-2" d="M219.69,19.28c.56,17.1-32.64,25-38.58,7-2.33-7,4.67-18.17,16.68-14.63,16,4.72-4.86,20.73-7.3,11.42"/><path d="M218.94,19.28c.17,7-5.52,12.08-11.57,14.51s-13.93,3.05-19.8-.48a13,13,0,0,1-5.93-7.84c-.88-3.61.71-7.6,3.23-10.19,3.36-3.43,8.22-4.19,12.72-2.87,2.6.77,6,2.47,5.37,5.72-.54,2.81-3.22,5.1-5.69,6.28-2.22,1.06-5.25,1.4-6.06-1.5a.75.75,0,0,0-1.45.4c.81,2.86,3.4,3.84,6.14,3.18a12.79,12.79,0,0,0,7.38-5.34c1.61-2.49,1.76-5.6-.54-7.73-3.39-3.15-9.36-3.91-13.63-2.5a13.65,13.65,0,0,0-8.71,9.15,12.22,12.22,0,0,0,2.48,11.11c5,6.23,14,7,21.22,5.24S218.94,29.76,220.24,22a14.7,14.7,0,0,0,.2-2.73c0-1-1.53-1-1.5,0Z"/><path class="cls-2" d="M264.43,14.09c1.16,7.16,6.08,11.3-2.46,17.87-9.5,7.31-23.19.84-17.4-8.65a3.27,3.27,0,0,1,2.85,1"/><path d="M263.71,14.28c.48,2.88,1.76,5.53,2.29,8.38.58,3.19-1,5.68-3.32,7.74a14.79,14.79,0,0,1-9.56,4,10.32,10.32,0,0,1-7.46-2.64c-2.29-2.29-2-5.4-.44-8l-.65.37a2.8,2.8,0,0,1,2.32.73c.7.66,1.76-.4,1.06-1.06a4.1,4.1,0,0,0-2.76-1.19c-1.23-.05-1.52.71-2,1.73a8.09,8.09,0,0,0-.65,4.82c.61,3.08,3.28,5.18,6.13,6.12a14.87,14.87,0,0,0,11.08-1c3.42-1.69,7.22-4.93,7.78-8.92s-1.77-7.66-2.41-11.4c-.16-1-1.6-.55-1.44.39Z"/><path class="cls-2" d="M316.7,46.3c-5.06,2.67-12.22,1.76-11.84-3.74"/><path d="M316.33,45.66a11,11,0,0,1-7.26,1.14,4.94,4.94,0,0,1-2.61-1.39,3.79,3.79,0,0,1-.85-2.85c.05-1-1.45-1-1.5,0a5.41,5.41,0,0,0,4.31,5.63A12.44,12.44,0,0,0,317.08,47c.86-.44.1-1.74-.75-1.29Z"/></g></svg>
