<svg xmlns="http://www.w3.org/2000/svg" viewBox="0 0 340.68 87.29"><defs><style>.cls-1,.cls-2{fill:#fff;}.cls-1{stroke:#000;stroke-miterlimit:10;}</style></defs><g id="Layer_3" data-name="Layer 3"><path class="cls-1" d="M1,64c.39-1,24.73,5.82,34.48-2,3.68-2.94,2-5.34,4.58-11.47,4.91-11.68,20.28-25,34.17-24.33,8.38.43,9.89,9.1,15.83,8.15,5.34-.85,4.7-7.52,13.28-11.35,7-3.13,14.88-2,17.15-1.62,3,.46,8.09,1.21,11,4.31,3.16,3.39,1.54,7.18,2.69,7.33,2.7.33,5.44-21.12,23.1-29.27,9.56-4.42,20-3.34,23-3,2.52.26,17.72,1.81,21.2,9.36,3.08,6.7-4.37,15.19-4.09,15.26S200.49,14.15,211,9.49c7.74-3.44,17.16-2.15,21.51-1.56s7.68,1.06,10,3.17c4.26,3.93,1,10,3.11,10.46,1.87.38,3.85-4.42,10.27-7.75,5.3-2.73,13.78-4.56,17.08-2.24,4.76,3.33-4.3,13.1.34,15.94,3.4,2.08,9.39-2.44,16.47-.25,4.53,1.4,8.13,5.13,7.13,8-1.08,3.08-6.69,3.25-7.11,5.41C289,44.33,303.5,50.81,315,47.61c3.59-1,7.22-3.65,14.47-8.94,7.87-5.75,9.6-8,10.28-7.75,1.71.69-4,17.36-18.8,22.3-3.11,1-9.21,1.42-21.43,2.18-10.45.66-11.81-.56-15.53.77-8.22,2.94-7.81,9.6-14.58,14.71-8,6.06-22,7.25-31.42,5.42-8-1.54-8.72-6.45-13.79-5.86-6.76.78-6.43,8.62-14.91,12.2-9.4,4-16.51-2.84-34-1.28-11.82,1.06-10.63,4.34-21,5.33-21.75,2.07-28.46-12.2-48.07-9-7.76,1.26-10.42,4.09-18.62,3.73-7.42-.33-10.57-2.89-18.06-5.3C60.4,73.19,55.86,74,42.08,72.67,17.58,70.32.68,64.82,1,64Z"/><path class="cls-2" d="M134.89,29.91c.66,9.89-12,20.7-24.65,12.56-5-3.22-7.83-8.61-.53-12.5,6.31-3.36,14.37-.26,10,5.46"/><path d="M134.14,29.91c.45,8.48-8,15.38-16.14,14.61-4.18-.4-9.21-2.8-11.31-6.62-2.32-4.24,2.48-7.45,6.13-8.3,2-.45,4.42-.48,6.15.7s1.2,3.21.07,4.75c-.58.78.72,1.52,1.29.76,1.17-1.59,1.92-3.66.77-5.46-1-1.62-3.07-2.28-4.88-2.46-4.31-.43-11,2.08-11.63,7-.64,4.75,4.7,8.35,8.44,9.9a16.27,16.27,0,0,0,15.3-1.45c4.4-2.94,7.6-8,7.31-13.42-.06-1-1.56-1-1.5,0Z"/><path class="cls-2" d="M203.86,16.92c.45,15.16-29.82,22.26-35.17,6.39C166.6,17.1,173,7.19,184,10.28c14.56,4.12-4.51,18.4-6.7,10.15"/><path d="M203.11,16.92c.12,6.22-5.11,10.66-10.45,12.79-5.56,2.22-12.6,2.83-18-.24a11.32,11.32,0,0,1-5.4-6.78c-.85-3.17.56-6.67,2.77-9a11.48,11.48,0,0,1,11.32-2.83c2.33.6,5.74,2,5.19,5-.46,2.51-2.95,4.53-5.12,5.56-1.94.92-4.74,1.36-5.48-1.22a.75.75,0,0,0-1.44.4c1.83,6.42,10.21,1.43,12.46-2,1.48-2.24,1.59-5-.51-6.92C185.34,8.9,179.86,8.28,176,9.57a12.44,12.44,0,0,0-8,8.27,10.68,10.68,0,0,0,2.25,9.82c4.55,5.6,12.82,6.2,19.37,4.6,7.21-1.76,15.17-7.08,15-15.34a.75.75,0,0,0-1.5,0Z"/><path class="cls-2" d="M243.64,12.14c1,6.35,5.49,10-2.31,15.85-8.68,6.52-21.13.84-15.82-7.59a3,3,0,0,1,2.6.82"/><path d="M242.92,12.34c.43,2.54,1.59,4.88,2.05,7.41.53,2.88-1,5.08-3.14,6.89a13.68,13.68,0,0,1-8.53,3.42,9.46,9.46,0,0,1-6.74-2.23c-2.09-2-1.82-4.74-.4-7l-.65.37a2.54,2.54,0,0,1,2.07.6c.7.66,1.77-.4,1.06-1.06a3.92,3.92,0,0,0-2.56-1.07c-1.14,0-1.43.64-1.86,1.59a7.22,7.22,0,0,0-.62,4.29c.54,2.85,3.09,4.73,5.72,5.54a14,14,0,0,0,10-1c3.12-1.51,6.68-4.42,7.18-8.07.48-3.43-1.59-6.75-2.15-10.07-.17-.95-1.61-.55-1.45.4Z"/><path class="cls-2" d="M290.13,38.48c-4.62,2.39-11.13,1.61-10.77-3.27"/><path d="M289.76,37.84a10.21,10.21,0,0,1-6.57,1,4.44,4.44,0,0,1-2.32-1.17,3.2,3.2,0,0,1-.76-2.49c.06-1-1.44-1-1.5,0a4.86,4.86,0,0,0,3.95,5.06,11.68,11.68,0,0,0,7.95-1.14c.86-.44.11-1.73-.75-1.29Z"/></g></svg>
